<svg xmlns="http://www.w3.org/2000/svg" width="155" height="17" viewBox="0 0 155 17"><path d="M0,.12h12.05v1.73H1.9v5.94h9.09v1.71H1.9v7.24H0V.12Z" fill="#231815"/><path d="M22.91.12h12.13v1.71h-10.24v5.68h9.16v1.71h-9.16v5.82h10.36v1.71h-12.25V.12Z" fill="#231815"/><path d="M52.37,0h1.78l7.65,16.74h-2.04l-1.97-4.39h-9.13l-1.99,4.39h-1.94L52.37,0ZM57.04,10.64l-3.81-8.45-3.83,8.45h7.65Z" fill="#231815"/><path d="M74.56,1.85h-5.63V.12h13.18v1.73h-5.63v14.89h-1.92V1.85Z" fill="#231815"/><path d="M92.59,9.79V.12h1.9v9.55c0,3.58,1.94,5.6,5.13,5.6s5.05-1.85,5.05-5.48V.12h1.9v9.52c0,4.85-2.81,7.36-7,7.36s-6.97-2.51-6.97-7.22h-.01Z" fill="#231815"/><path d="M118.23.12h7.21c2.06,0,3.72.61,4.77,1.66.82.81,1.3,1.97,1.3,3.28v.05c0,2.75-1.92,4.37-4.55,4.85l5.15,6.79h-2.33l-4.86-6.46h-4.79v6.46h-1.9V.12ZM125.28,8.6c2.52,0,4.31-1.29,4.31-3.42v-.05c0-2.04-1.58-3.28-4.29-3.28h-5.17v6.75h5.15Z" fill="#231815"/><path d="M142.75.12h12.13v1.71h-10.24v5.68h9.16v1.71h-9.16v5.82h10.36v1.71h-12.25V.12Z" fill="#231815"/></svg>

