<svg xmlns="http://www.w3.org/2000/svg" width="270" height="20" viewBox="0 0 270 20"><g id="b"><rect width="270" height="20" fill="none"/><path d="M141.38,18.49l-.76.35-3.56-5.59,3.56-5.59.76.35-3.36,5.24,3.36,5.24ZM148.2,8.24h.85v7.49h-.85v-7.49ZM148.66,8.24h3.04v6.88h-3.04v-.82h2.2v-5.26h-2.2v-.8ZM148.64,11.15h2.64v.79h-2.64v-.79ZM152.22,8.21h5.38v.8h-5.38v-.8ZM157.31,8.21h.86s0,.04-.01.13c0,.09,0,.16-.01.22-.03.58-.07,1.05-.12,1.43-.04.37-.09.66-.16.86-.06.2-.12.35-.2.44-.1.1-.2.16-.31.2s-.24.07-.4.08c-.14,0-.33.01-.58.01s-.51,0-.79-.02c0-.11-.03-.24-.07-.37-.04-.14-.09-.27-.16-.37.26.02.51.04.73.05h.48c.08,0,.15,0,.2-.01.06-.02.12-.04.16-.08.06-.06.12-.18.16-.35.04-.18.08-.43.11-.77.04-.34.08-.78.11-1.32v-.13ZM154.31,8.47h.89c-.05.44-.13.84-.25,1.21-.11.36-.28.69-.49.98-.21.29-.48.54-.83.77-.34.22-.77.42-1.28.58-.05-.1-.12-.22-.23-.36-.1-.14-.19-.24-.28-.31.46-.14.84-.29,1.14-.47.3-.18.54-.38.72-.61.18-.24.31-.51.41-.8.1-.3.16-.62.2-.98ZM153.42,12.92v1.82h3.52v-1.82h-3.52ZM152.58,12.16h5.24v3.34h-5.24v-3.34ZM151.16,16.3l.83-.08c.08.38.15.8.2,1.25s.09.82.1,1.12l-.88.13c0-.2-.01-.44-.04-.72-.02-.27-.05-.56-.08-.85s-.08-.58-.13-.84ZM153.73,16.27l.84-.16c.11.26.22.53.32.82.1.28.2.56.28.84.08.27.14.52.18.73l-.89.19c-.04-.21-.1-.45-.17-.73-.07-.28-.16-.57-.25-.86-.1-.3-.2-.57-.31-.83ZM156.18,16.21l.82-.34c.19.26.39.54.59.85.21.3.4.6.56.9.18.29.31.55.41.78l-.85.38c-.1-.23-.23-.5-.4-.8-.16-.3-.34-.6-.54-.91-.2-.31-.4-.6-.59-.86ZM149.17,15.95l.86.25c-.22.45-.46.91-.74,1.39-.28.47-.56.88-.83,1.22l-.86-.38c.18-.2.37-.44.56-.71.19-.28.38-.57.55-.88.18-.3.33-.6.46-.9ZM161.75,8.45h3.43v7.16h-3.43v-.84h2.59v-5.5h-2.59v-.83ZM161.75,11.57h2.96v.82h-2.96v-.82ZM166.82,8.24h4.04v.84h-4.04v-.84ZM166.82,11.15h4.04v.82h-4.04v-.82ZM166.74,14.09h4.1v.82h-4.1v-.82ZM161.24,8.45h.85v8.29h-.85v-8.29ZM170.53,8.24h.89v9.34c0,.28-.04.5-.12.65-.07.16-.2.28-.4.35-.2.07-.47.12-.8.13-.34.02-.76.04-1.28.04,0-.08-.03-.18-.07-.29-.03-.1-.07-.21-.12-.32-.04-.1-.08-.2-.13-.28.26,0,.51.01.74.01.24,0,.45,0,.62,0h.37c.11,0,.19-.02.23-.06.05-.05.07-.12.07-.23v-9.34ZM166.3,8.24h.88v4.28c0,.5-.03,1.04-.08,1.61-.06.56-.17,1.12-.34,1.69-.16.56-.4,1.1-.73,1.62-.33.52-.76.99-1.31,1.4-.04-.06-.1-.14-.18-.22-.08-.08-.16-.16-.25-.24-.09-.07-.16-.13-.23-.17.51-.38.92-.81,1.21-1.27.3-.47.52-.96.67-1.46.15-.5.25-1.01.29-1.51.05-.5.07-.99.07-1.46v-4.27ZM177.99,18.49l3.36-5.24-3.36-5.24.76-.35,3.56,5.59-3.56,5.59-.76-.35Z" fill="#fff"/><path d="M42,7.39h1.31v10.4h6.53v1.21h-7.84V7.39Z" fill="#fff"/><path d="M53.54,7.39h1.31v11.61h-1.31V7.39Z" fill="#fff"/><path d="M58.89,13.23v-.03c0-3.18,2.34-6,5.82-6,1.96,0,3.16.57,4.32,1.54l-.84.99c-.9-.78-1.89-1.33-3.53-1.33-2.57,0-4.41,2.17-4.41,4.76v.03c0,2.77,1.77,4.82,4.59,4.82,1.33,0,2.56-.51,3.35-1.16v-2.89h-3.53v-1.18h4.79v4.63c-1.08.96-2.7,1.77-4.66,1.77-3.65,0-5.9-2.65-5.9-5.97h0Z" fill="#fff"/><path d="M73.56,7.39h1.31v5.15h6.7v-5.15h1.31v11.61h-1.31v-5.22h-6.7v5.22h-1.31V7.39Z" fill="#fff"/><path d="M90.39,8.6h-3.9v-1.21h9.12v1.21h-3.9v10.4h-1.33v-10.4Z" fill="#fff"/><path d="M99.34,7.39h1.31v11.61h-1.31V7.39Z" fill="#fff"/><path d="M105.21,7.39h1.23l7.31,9.3V7.39h1.28v11.61h-1.04l-7.5-9.51v9.51h-1.28V7.39Z" fill="#fff"/><path d="M118.96,13.23v-.03c0-3.18,2.34-6,5.82-6,1.95,0,3.17.57,4.32,1.54l-.84.99c-.9-.78-1.89-1.33-3.53-1.33-2.57,0-4.41,2.17-4.41,4.76v.03c0,2.77,1.78,4.82,4.59,4.82,1.33,0,2.55-.51,3.35-1.16v-2.89h-3.53v-1.18h4.79v4.63c-1.08.96-2.7,1.77-4.66,1.77-3.65,0-5.9-2.65-5.9-5.97h-.01Z" fill="#fff"/><path d="M0,9.85v-.05C0,5,2.77.8,7.15.8s7.1,4.15,7.1,8.95v.05c0,4.8-2.77,9-7.15,9S0,14.65,0,9.85ZM12.92,9.85v-.05c0-4.05-2.26-7.83-5.82-7.83S1.33,5.7,1.33,9.75v.05c0,4.03,2.26,7.83,5.82,7.83s5.77-3.76,5.77-7.78h0Z" fill="#fff"/><path d="M16.99,15.99l.91-.92c1.55,1.56,3.34,2.56,5.16,2.56,2.73,0,4.61-1.94,4.61-4.38v-.05c0-2.41-1.94-4.13-4.72-4.13-1.6,0-2.8.5-3.88,1.09l-.98-.65.49-8.43h9.65v1.24h-8.52l-.42,6.52c1.1-.55,2.21-.94,3.81-.94,3.31,0,5.89,2.14,5.89,5.25v.05c0,3.28-2.53,5.59-5.99,5.59-2.33,0-4.52-1.27-6.02-2.81h0Z" fill="#fff"/></g></svg>