<svg xmlns="http://www.w3.org/2000/svg" width="270" height="20" viewBox="0 0 270 20"><g id="b"><rect width="270" height="20" fill="none"/><path d="M168.38,17.68l-.76.35-3.56-5.59,3.56-5.59.76.35-3.36,5.24,3.36,5.24ZM175.66,8.06c.16.02.33.04.52.05.18,0,.37.01.56.01h4.72c.19,0,.38,0,.58-.01.19,0,.36-.02.52-.05v1c-.14-.02-.32-.02-.52-.02-.19,0-.39-.01-.59-.01h-4.7c-.18,0-.37,0-.55.01-.18,0-.36.02-.53.02v-1ZM183.42,11.23s-.06.11-.1.18c-.03.06-.05.12-.06.17-.16.59-.38,1.19-.66,1.79-.28.59-.64,1.13-1.09,1.62-.63.69-1.32,1.22-2.05,1.61-.73.38-1.48.68-2.24.9l-.74-.85c.85-.18,1.64-.45,2.36-.83.73-.38,1.35-.83,1.86-1.37.37-.38.67-.81.9-1.28.24-.48.42-.94.53-1.37h-6.37c-.14,0-.32,0-.53.01-.21,0-.42,0-.65.02v-1.01c.22.02.44.04.64.06.2,0,.38.01.54.01h6.32c.14,0,.26,0,.38-.02.12-.02.21-.04.28-.07l.68.43ZM188.21,8.2c.22.14.46.32.74.54.28.21.56.43.85.67.3.23.57.46.83.68s.47.42.64.59l-.76.76c-.15-.15-.35-.34-.59-.56-.24-.22-.5-.46-.79-.7-.29-.25-.57-.48-.85-.7-.28-.22-.53-.41-.76-.55l.68-.73ZM187.18,16.24c.7-.1,1.34-.25,1.92-.43.58-.18,1.12-.39,1.6-.62.48-.23.91-.46,1.28-.7.62-.38,1.18-.82,1.7-1.32.52-.5.98-1.02,1.37-1.56.39-.54.7-1.05.94-1.54l.58,1.02c-.27.5-.61,1-1.01,1.51-.4.51-.85,1-1.36,1.48-.5.47-1.06.9-1.67,1.28-.4.25-.84.49-1.32.73-.47.24-.99.46-1.56.66-.56.19-1.17.35-1.84.47l-.64-.98ZM205.96,8.36c.1.14.22.32.36.54.14.21.27.42.4.65.14.22.25.43.34.62l-.68.31c-.1-.21-.2-.42-.32-.62-.11-.22-.23-.42-.36-.62-.12-.21-.25-.4-.38-.58l.66-.3ZM207.41,7.76c.1.14.22.31.36.52.14.21.28.42.42.65s.25.43.35.61l-.67.34c-.1-.21-.22-.42-.34-.62s-.25-.41-.38-.61c-.13-.2-.26-.39-.4-.56l.66-.31ZM201.74,16.1v-6.98c0-.17,0-.37-.02-.61,0-.24-.03-.45-.07-.64h1.19c-.02.18-.04.4-.06.64-.02.23-.02.44-.02.61v7.43c0,.18.02.35.04.52.02.18.03.33.04.46h-1.15c.02-.19.04-.42.05-.68.02-.26.02-.51.02-.73ZM202.54,11.01c.39.12.83.26,1.31.43.48.16.96.33,1.45.52.5.18.96.37,1.4.56.45.18.84.36,1.18.53l-.42,1.02c-.34-.18-.73-.37-1.16-.56-.42-.19-.86-.38-1.32-.56s-.9-.35-1.32-.49c-.42-.14-.79-.27-1.12-.37v-1.07ZM220.28,8.97s-.09.13-.16.24c-.06.1-.1.2-.14.29-.15.39-.35.83-.6,1.31-.25.47-.52.94-.83,1.4s-.62.88-.96,1.26c-.44.5-.92.98-1.45,1.45-.53.46-1.08.9-1.67,1.31-.58.4-1.19.74-1.82,1.03l-.77-.8c.65-.26,1.27-.57,1.86-.95.6-.38,1.16-.8,1.68-1.25.53-.46,1-.91,1.4-1.37.27-.31.54-.66.8-1.04.27-.39.51-.79.72-1.19.22-.41.37-.78.47-1.1h-4.68c-.14,0-.29,0-.47.01-.17,0-.32.02-.47.02-.14,0-.23.02-.28.02v-1.09c.06,0,.16.02.3.04.15,0,.31.02.48.02.17,0,.31.01.43.01h4.63c.2,0,.38,0,.53-.02.16-.02.28-.04.37-.07l.61.47ZM217.75,12.83c.33.27.66.57,1.01.9.35.33.7.67,1.03,1.02.34.34.65.68.94,1,.29.31.54.6.74.85l-.84.72c-.28-.38-.62-.8-1.01-1.24-.39-.45-.81-.89-1.25-1.33-.43-.45-.87-.86-1.31-1.24l.68-.68ZM228.23,7.72c-.05.14-.1.28-.16.43-.05.14-.1.28-.14.41-.06.18-.13.38-.22.6-.08.22-.17.44-.26.67-.1.22-.2.45-.31.67-.16.3-.36.63-.59.98-.23.35-.48.69-.74,1.01-.26.31-.52.57-.78.78l-.95-.56c.22-.16.43-.35.64-.56.22-.22.42-.44.6-.68.19-.25.36-.49.52-.72.15-.23.28-.44.38-.61.17-.3.31-.6.42-.9.11-.3.2-.56.26-.78.05-.16.09-.32.12-.48.03-.16.05-.32.06-.48l1.15.23ZM226.73,9.77h6.41c.15,0,.33,0,.54-.01.22,0,.41-.02.59-.05v1.03c-.19-.02-.4-.02-.61-.02-.21,0-.38-.01-.52-.01h-6.53l.12-.94ZM231.13,10.29c-.03.92-.14,1.75-.31,2.48-.18.74-.42,1.4-.74,1.98-.31.58-.68,1.09-1.12,1.54-.43.44-.92.83-1.45,1.18l-1.02-.7c.17-.06.34-.14.5-.24.18-.1.33-.21.47-.31.31-.23.62-.52.92-.85s.58-.74.84-1.21c.26-.48.46-1.04.62-1.67.16-.64.25-1.38.26-2.21h1.02ZM237.11,11.8c.12,0,.27.02.44.04.18,0,.37.02.58.02h7.22c.3,0,.56,0,.78-.02s.39-.03.52-.04v1.18c-.12,0-.3-.02-.54-.04-.23-.02-.48-.02-.74-.02h-6.59c-.33,0-.64,0-.94.02-.3,0-.54.02-.73.04v-1.18ZM257.43,8.38c0,.22.08.4.23.56.16.15.35.23.56.23s.41-.08.56-.23c.16-.16.24-.35.24-.56s-.08-.41-.24-.56c-.15-.16-.34-.24-.56-.24s-.4.08-.56.24c-.15.15-.23.34-.23.56ZM256.88,8.38c0-.25.06-.47.18-.67.13-.21.29-.37.49-.49.2-.13.42-.19.67-.19s.47.06.67.19c.21.12.37.28.49.49.13.2.19.42.19.67s-.06.47-.19.67c-.12.2-.28.36-.49.49-.2.12-.42.18-.67.18s-.47-.06-.67-.18c-.2-.13-.36-.29-.49-.49-.12-.2-.18-.42-.18-.67ZM257.92,9.19c-.04.08-.08.17-.11.28-.02.1-.05.2-.07.32-.06.31-.15.66-.25,1.04-.1.38-.23.78-.38,1.19-.14.4-.31.79-.5,1.16-.19.38-.41.72-.65,1.03-.37.46-.78.9-1.22,1.3s-.96.76-1.54,1.08c-.58.32-1.23.6-1.97.83l-.82-.9c.78-.19,1.46-.43,2.03-.72.58-.29,1.08-.61,1.51-.97.43-.37.81-.76,1.14-1.19.29-.37.54-.78.74-1.24.22-.46.4-.93.54-1.39.14-.47.24-.9.29-1.28h-6.13c-.24,0-.46,0-.66.01-.2,0-.38.02-.54.02v-1.07c.11.02.24.03.37.05.14,0,.28.02.42.02s.28.01.41.01h6.02c.09,0,.19,0,.3-.01s.22-.02.34-.05l.73.47ZM264.28,17.68l3.36-5.24-3.36-5.24.76-.35,3.56,5.59-3.56,5.59-.76-.35Z" fill="#fff"/><path d="M44,6.2h1.31v10.4h6.53v1.21h-7.84V6.2Z" fill="#fff"/><path d="M59.72,6.12h1.23l5.29,11.69h-1.41l-1.36-3.07h-6.31l-1.38,3.07h-1.34l5.29-11.69ZM62.95,13.54l-2.64-5.9-2.65,5.9h5.29Z" fill="#fff"/><path d="M69.68,6.2h1.23l7.31,9.3V6.2h1.28v11.61h-1.04l-7.49-9.51v9.51h-1.28V6.2Z" fill="#fff"/><path d="M83.94,6.2h4.03c3.65,0,6.17,2.5,6.17,5.77v.03c0,3.27-2.52,5.8-6.17,5.8h-4.03V6.2ZM85.25,7.41v9.18h2.72c2.94,0,4.81-1.99,4.81-4.56v-.03c0-2.57-1.87-4.59-4.81-4.59h-2.72Z" fill="#fff"/><path d="M97.3,16.11l.81-.96c1.21,1.09,2.37,1.64,3.98,1.64s2.58-.83,2.58-1.97v-.03c0-1.08-.58-1.69-3.02-2.2-2.67-.58-3.9-1.44-3.9-3.35v-.03c0-1.82,1.61-3.16,3.81-3.16,1.69,0,2.9.48,4.08,1.42l-.76,1.01c-1.08-.88-2.15-1.26-3.35-1.26-1.51,0-2.47.83-2.47,1.87v.03c0,1.09.59,1.71,3.15,2.25,2.58.57,3.78,1.51,3.78,3.28v.03c0,1.99-1.66,3.28-3.96,3.28-1.84,0-3.35-.61-4.74-1.86h0Z" fill="#fff"/><path d="M109.32,12.03v-.03c0-3.28,2.45-6,5.87-6,2.11,0,3.36.75,4.53,1.84l-.89.96c-.98-.93-2.07-1.59-3.65-1.59-2.57,0-4.49,2.09-4.49,4.76v.03c0,2.69,1.94,4.79,4.49,4.79,1.59,0,2.64-.61,3.74-1.67l.86.84c-1.21,1.23-2.53,2.04-4.64,2.04-3.35,0-5.82-2.64-5.82-5.97h0Z" fill="#fff"/><path d="M127.52,6.12h1.23l5.29,11.69h-1.41l-1.36-3.07h-6.31l-1.38,3.07h-1.34l5.28-11.69ZM130.76,13.54l-2.64-5.9-2.65,5.9h5.29Z" fill="#fff"/><path d="M137.48,6.2h4.35c2.62,0,4.35,1.39,4.35,3.68v.03c0,2.5-2.09,3.8-4.56,3.8h-2.82v4.1h-1.31V6.2ZM141.66,12.51c1.92,0,3.18-1.03,3.18-2.56v-.03c0-1.66-1.24-2.52-3.12-2.52h-2.93v5.11h2.87Z" fill="#fff"/><path d="M149.72,6.2h8.39v1.19h-7.08v3.96h6.33v1.19h-6.33v4.06h7.16v1.19h-8.47V6.2Z" fill="#fff"/><path d="M0,10.05v-.05C0,5.2,2.81,1,7.24,1s7.18,4.15,7.18,8.95v.05c0,4.8-2.81,9-7.24,9S0,14.85,0,10.05ZM13.08,10.05v-.05c0-4.05-2.29-7.83-5.89-7.83S1.34,5.9,1.34,9.95v.05c0,4.03,2.29,7.83,5.89,7.83s5.84-3.76,5.84-7.78h0Z" fill="#fff"/><path d="M16.48,17.73l6.49-5.87c2.86-2.61,3.85-4.1,3.85-5.94,0-2.26-1.84-3.73-3.93-3.73-2.21,0-3.66,1.14-5.1,3.23l-.97-.65c1.51-2.31,3.13-3.73,6.19-3.73s5.17,2.06,5.17,4.78v.05c0,2.39-1.29,3.98-4.35,6.76l-5.32,4.82h9.85v1.24h-11.88v-.97h0Z" fill="#fff"/></g></svg>