<svg xmlns="http://www.w3.org/2000/svg" width="270" height="20" viewBox="0 0 270 20"><g id="b"><rect width="270" height="20" fill="none"/><path d="M0,10.05v-.05C0,5.2,2.81,1,7.24,1s7.18,4.15,7.18,8.95v.05c0,4.8-2.81,9-7.24,9S0,14.85,0,10.05ZM13.08,10.05v-.05c0-4.05-2.29-7.83-5.89-7.83S1.34,5.9,1.34,9.95v.05c0,4.03,2.29,7.83,5.89,7.83s5.84-3.76,5.84-7.78h0Z" fill="#fff"/><path d="M20.86,2.52l-3.36,1.14-.35-1.02,3.98-1.47h.99v17.53h-1.27V2.52Z" fill="#fff"/><path d="M37,5.2h8.34v1.21h-7.03v4.14h6.28v1.19h-6.28v5.06h-1.31V5.2Z" fill="#fff"/><path d="M53.33,5.12h1.23l5.29,11.69h-1.41l-1.36-3.07h-6.31l-1.38,3.07h-1.34l5.29-11.69ZM56.56,12.54l-2.64-5.9-2.65,5.9h5.29Z" fill="#fff"/><path d="M62.78,11.03v-.03c0-3.28,2.45-6,5.87-6,2.11,0,3.36.75,4.53,1.84l-.9.96c-.98-.93-2.07-1.59-3.65-1.59-2.57,0-4.49,2.09-4.49,4.76v.03c0,2.69,1.94,4.79,4.49,4.79,1.59,0,2.64-.61,3.74-1.67l.86.84c-1.21,1.23-2.54,2.04-4.64,2.04-3.35,0-5.82-2.64-5.82-5.97Z" fill="#fff"/><path d="M80.98,5.12h1.23l5.29,11.69h-1.41l-1.36-3.07h-6.31l-1.38,3.07h-1.34l5.29-11.69ZM84.21,12.54l-2.64-5.9-2.65,5.9h5.29Z" fill="#fff"/><path d="M90.95,5.2h4.03c3.65,0,6.17,2.5,6.17,5.77v.03c0,3.27-2.52,5.8-6.17,5.8h-4.03V5.2ZM92.26,6.41v9.18h2.72c2.94,0,4.81-1.99,4.81-4.56v-.03c0-2.57-1.87-4.59-4.81-4.59h-2.72Z" fill="#fff"/><path d="M105.07,5.2h8.39v1.19h-7.08v3.96h6.33v1.19h-6.33v4.06h7.16v1.19h-8.47V5.2Z" fill="#fff"/></g></svg>