<svg xmlns="http://www.w3.org/2000/svg" width="270" height="20" viewBox="0 0 270 20"><g id="b"><rect width="270" height="20" fill="none"/><path d="M209.38,18.67l-.76.35-3.56-5.59,3.56-5.59.76.35-3.36,5.24,3.36,5.24ZM218.44,8.01h.92v6.71h-.92v-6.71ZM222.8,8.01h.92v6.71h-.92v-6.71ZM215.66,14.17h10.9v.88h-10.9v-.88ZM216.15,10.45h9.97v.86h-9.97v-.86ZM222.13,16.18l.79-.47c.37.26.76.56,1.19.89.43.32.84.64,1.22.96.39.31.72.59.97.83l-.85.55c-.24-.24-.55-.52-.92-.85-.38-.32-.78-.65-1.2-.98-.42-.34-.82-.64-1.2-.92ZM219.03,15.74l.94.36c-.29.34-.62.69-1.01,1.04-.38.35-.77.68-1.19,1s-.83.58-1.24.82c-.06-.07-.13-.15-.22-.23-.09-.07-.18-.15-.26-.23-.08-.07-.16-.13-.23-.18.39-.22.79-.47,1.2-.76s.79-.59,1.14-.9c.35-.32.64-.63.86-.92ZM230.64,8.74h7.76v.86h-7.76v-.86ZM230.64,11.54h7.74v.85h-7.74v-.85ZM230.56,14.41h7.84v.85h-7.84v-.85ZM230.12,8.74h.89v4.36c0,.46-.02.94-.06,1.46-.04.52-.12,1.05-.23,1.58-.1.53-.27,1.04-.49,1.52-.22.49-.5.93-.86,1.33-.04-.06-.1-.14-.19-.22l-.26-.22c-.09-.07-.17-.12-.24-.16.34-.38.6-.78.79-1.22.19-.44.34-.89.43-1.36.1-.47.16-.94.18-1.4.03-.46.05-.91.05-1.33v-4.36ZM238.04,8.74h.89v8.98c0,.29-.04.51-.13.66-.08.15-.22.27-.42.35-.2.07-.48.12-.84.13-.36.02-.82.02-1.39.01-.02-.11-.07-.26-.13-.43-.06-.17-.12-.31-.18-.43.28,0,.55.01.8.01.26,0,.49,0,.68,0h.4c.12,0,.2-.03.25-.07.05-.04.07-.12.07-.23v-8.98ZM233.89,9.07h.91v9.77h-.91v-9.77ZM248.68,8.61h3.6v.85h-2.72v9.48h-.88v-10.33ZM242.29,9.24h5.74v.8h-5.74v-.8ZM241.99,12.56h6.2v.82h-6.2v-.82ZM244.7,7.95h.88v1.76h-.88v-1.76ZM243.04,10.45l.76-.16c.13.3.24.63.35,1,.1.36.17.67.2.92l-.8.2c-.02-.27-.08-.59-.18-.95-.1-.37-.2-.71-.32-1.02ZM246.48,10.21l.86.2c-.13.35-.26.72-.41,1.09-.14.37-.27.68-.4.95l-.73-.2c.08-.18.16-.4.24-.64.09-.24.17-.48.24-.73.08-.25.14-.47.19-.67ZM243.1,17.44h3.95v.8h-3.95v-.8ZM242.79,14.43h4.73v4.46h-.88v-3.67h-3.01v3.73h-.84v-4.52ZM252.06,8.61h.17l.16-.04.65.42c-.24.57-.51,1.18-.8,1.82-.3.65-.58,1.25-.86,1.8.41.38.72.74.94,1.08.22.34.37.66.46.96s.13.6.13.89c0,.38-.05.7-.14.97-.1.26-.25.47-.46.61-.21.14-.47.22-.78.26-.16.02-.33.02-.52.02s-.36,0-.54-.01c0-.13-.03-.28-.07-.44-.04-.17-.1-.32-.18-.44.18.02.36.03.52.04.16,0,.3,0,.42-.01.1,0,.2-.02.29-.04.09-.02.17-.06.24-.1.13-.08.22-.2.26-.37.06-.17.08-.36.08-.59,0-.38-.12-.79-.34-1.24-.22-.46-.63-.95-1.25-1.48.16-.3.32-.63.47-.97.15-.35.3-.7.44-1.04.14-.35.28-.68.4-1,.12-.31.23-.59.32-.83v-.29ZM259.19,18.67l3.36-5.24-3.36-5.24.76-.35,3.56,5.59-3.56,5.59-.76-.35Z" fill="#fff"/><path d="M42,13.02v-.03c0-3.28,2.45-6,5.87-6,2.11,0,3.36.75,4.53,1.84l-.9.96c-.98-.93-2.07-1.59-3.65-1.59-2.56,0-4.49,2.09-4.49,4.76v.03c0,2.69,1.94,4.79,4.49,4.79,1.59,0,2.64-.61,3.74-1.67l.86.84c-1.21,1.23-2.54,2.04-4.64,2.04-3.34,0-5.82-2.64-5.82-5.97Z" fill="#fff"/><path d="M55.39,13.02v-.03c0-3.2,2.4-6,5.93-6s5.9,2.77,5.9,5.97v.03c0,3.2-2.4,6-5.93,6s-5.9-2.77-5.9-5.97ZM65.87,13.02v-.03c0-2.64-1.92-4.79-4.57-4.79s-4.54,2.12-4.54,4.76v.03c0,2.64,1.92,4.79,4.57,4.79s4.54-2.12,4.54-4.76h0Z" fill="#fff"/><path d="M71.16,7.18h1.33l4.23,6.33,4.22-6.33h1.33v11.61h-1.31v-9.4l-4.23,6.22h-.07l-4.23-6.2v9.38h-1.28V7.18h0Z" fill="#fff"/><path d="M86.71,7.18h1.33l4.23,6.33,4.22-6.33h1.33v11.61h-1.31v-9.4l-4.23,6.22h-.07l-4.23-6.2v9.38h-1.28V7.18h0Z" fill="#fff"/><path d="M101.75,13.02v-.03c0-3.2,2.4-6,5.93-6s5.9,2.77,5.9,5.97v.03c0,3.2-2.4,6-5.93,6s-5.9-2.77-5.9-5.97ZM112.22,13.02v-.03c0-2.64-1.92-4.79-4.57-4.79s-4.54,2.12-4.54,4.76v.03c0,2.64,1.92,4.79,4.57,4.79s4.54-2.12,4.54-4.76h0Z" fill="#fff"/><path d="M117.52,7.18h1.23l7.31,9.3V7.18h1.28v11.61h-1.04l-7.5-9.51v9.51h-1.28V7.18Z" fill="#fff"/><path d="M137.14,17.1l.81-.96c1.21,1.09,2.37,1.64,3.98,1.64s2.58-.83,2.58-1.97v-.03c0-1.08-.58-1.69-3.02-2.2-2.67-.58-3.9-1.44-3.9-3.35v-.03c0-1.82,1.61-3.16,3.81-3.16,1.69,0,2.9.48,4.08,1.42l-.76,1.01c-1.08-.88-2.16-1.26-3.35-1.26-1.51,0-2.47.83-2.47,1.87v.03c0,1.09.59,1.71,3.15,2.25,2.58.57,3.78,1.51,3.78,3.28v.03c0,1.99-1.66,3.28-3.96,3.28-1.84,0-3.35-.61-4.74-1.86h0Z" fill="#fff"/><path d="M149.68,7.18h4.34c2.62,0,4.35,1.39,4.35,3.68v.03c0,2.5-2.09,3.8-4.56,3.8h-2.82v4.1h-1.31V7.18ZM153.86,13.5c1.92,0,3.18-1.03,3.18-2.56v-.03c0-1.66-1.24-2.52-3.12-2.52h-2.94v5.11h2.87Z" fill="#fff"/><path d="M166.21,7.1h1.23l5.29,11.69h-1.41l-1.36-3.07h-6.31l-1.38,3.07h-1.34l5.29-11.69ZM169.43,14.53l-2.64-5.9-2.65,5.9h5.29Z" fill="#fff"/><path d="M175.66,13.02v-.03c0-3.28,2.45-6,5.87-6,2.11,0,3.37.75,4.53,1.84l-.89.96c-.98-.93-2.07-1.59-3.65-1.59-2.57,0-4.49,2.09-4.49,4.76v.03c0,2.69,1.94,4.79,4.49,4.79,1.59,0,2.64-.61,3.75-1.67l.86.84c-1.21,1.23-2.53,2.04-4.64,2.04-3.35,0-5.82-2.64-5.82-5.97h0Z" fill="#fff"/><path d="M189.56,7.18h8.39v1.19h-7.08v3.96h6.33v1.19h-6.33v4.06h7.16v1.19h-8.47V7.18Z" fill="#fff"/><path d="M0,10.03v-.05C0,5.19,2.81.98,7.24.98s7.18,4.15,7.18,8.95v.05c0,4.8-2.81,9-7.24,9S0,14.83,0,10.03ZM13.08,10.03v-.05c0-4.05-2.29-7.83-5.89-7.83S1.34,5.88,1.34,9.93v.05c0,4.03,2.29,7.83,5.89,7.83s5.84-3.76,5.84-7.78h0Z" fill="#fff"/><path d="M16.63,15.85l.99-.82c1.39,1.77,3.13,2.79,5.42,2.79s4.3-1.56,4.3-3.85v-.05c0-2.43-2.29-3.78-5.42-3.78h-.95l-.32-.72,6-6.91h-9.13v-1.22h10.89v.92l-5.89,6.74c3.31.2,6.16,1.74,6.16,4.92v.05c0,3.03-2.66,5.07-5.67,5.07-2.83,0-4.97-1.29-6.39-3.13h0Z" fill="#fff"/></g></svg>