<svg xmlns="http://www.w3.org/2000/svg" width="270" height="20" viewBox="0 0 270 20"><g id="b"><rect width="270" height="20" fill="none"/><path d="M205.38,17.1l-.76.35-3.56-5.59,3.56-5.59.76.35-3.36,5.24,3.36,5.24ZM215.15,8.73h7.31v.86h-7.31v-.86ZM215.56,12.23h6.54v.85h-6.54v-.85ZM214.85,16.11h7.79v.85h-7.79v-.85ZM218.34,8.98h.9v7.64h-.9v-7.64ZM216.77,6.94l.6-.62c.3.17.62.36.96.58.34.21.66.42.96.64.3.22.55.42.74.6l-.64.72c-.18-.18-.41-.39-.71-.61-.3-.23-.61-.46-.95-.68s-.66-.43-.97-.61ZM214.41,6.37l.84.26c-.27.67-.59,1.34-.96,1.99-.36.66-.75,1.27-1.18,1.85-.42.58-.84,1.09-1.28,1.54-.03-.07-.08-.16-.14-.28-.06-.11-.12-.22-.18-.34-.06-.11-.12-.2-.18-.28.4-.38.79-.83,1.18-1.33.38-.51.74-1.06,1.07-1.63.33-.58.61-1.18.84-1.79ZM213.16,9.47l.84-.85h.02v8.72h-.86v-7.87ZM225.1,7.06h10.4v.86h-10.4v-.86ZM226.8,12.63h7.26v.84h-7.26v-.84ZM226.88,9.23h7.7v4.9h-.9v-4.06h-6.8v-.84ZM226.28,9.23h.91v2.74c0,.41-.02.86-.07,1.34-.05.48-.14.96-.26,1.45-.12.49-.3.96-.54,1.42-.23.46-.54.87-.92,1.25-.04-.06-.1-.14-.19-.22s-.18-.16-.28-.24c-.09-.07-.16-.13-.23-.17.35-.35.63-.73.84-1.13.22-.41.38-.82.48-1.25.1-.43.17-.86.2-1.27.04-.42.06-.82.06-1.2v-2.72ZM244.68,7.05h3.6v.85h-2.72v9.48h-.88V7.05ZM238.29,7.67h5.74v.8h-5.74v-.8ZM237.99,10.99h6.2v.82h-6.2v-.82ZM240.7,6.39h.88v1.76h-.88v-1.76ZM239.04,8.88l.76-.16c.13.3.24.63.35,1,.1.36.17.67.2.92l-.8.2c-.02-.27-.08-.59-.18-.95-.1-.37-.2-.71-.32-1.02ZM242.48,8.64l.86.2c-.13.35-.26.72-.41,1.09-.14.37-.27.68-.4.95l-.73-.2c.08-.18.16-.4.24-.64.09-.24.17-.48.24-.73.08-.25.14-.47.19-.67ZM239.1,15.88h3.95v.8h-3.95v-.8ZM238.79,12.87h4.73v4.46h-.88v-3.67h-3.01v3.73h-.84v-4.52ZM248.06,7.05h.17l.16-.04.65.42c-.24.57-.51,1.18-.8,1.82-.3.65-.58,1.25-.86,1.8.41.38.72.74.94,1.08.22.34.37.66.46.96s.13.6.13.89c0,.38-.05.7-.14.97-.1.26-.25.47-.46.61-.21.14-.47.22-.78.26-.16.02-.33.02-.52.02s-.36,0-.54-.01c0-.13-.03-.28-.07-.44-.04-.17-.1-.32-.18-.44.18.02.36.03.52.04.16,0,.3,0,.42-.01.1,0,.2-.02.29-.04.09-.02.17-.06.24-.1.13-.08.22-.2.26-.37.06-.17.08-.36.08-.59,0-.38-.12-.79-.34-1.24-.22-.46-.63-.95-1.25-1.48.16-.3.32-.63.47-.97.15-.35.3-.7.44-1.04.14-.35.28-.68.4-1,.12-.31.23-.59.32-.83v-.29ZM255.19,17.1l3.36-5.24-3.36-5.24.76-.35,3.56,5.59-3.56,5.59-.76-.35Z" fill="#fff"/><path d="M42,5.94h4.41c2.66,0,4.41,1.38,4.41,3.65v.03c0,2.48-2.12,3.76-4.63,3.76h-2.86v4.06h-1.33V5.94ZM46.24,12.2c1.95,0,3.23-1.02,3.23-2.53v-.03c0-1.64-1.26-2.5-3.16-2.5h-2.98v5.06h2.91Z" fill="#fff"/><path d="M54.43,5.94h5.07c1.45,0,2.61.43,3.35,1.15.57.56.91,1.36.91,2.27v.03c0,1.9-1.35,3.02-3.2,3.35l3.62,4.7h-1.63l-3.42-4.47h-3.37v4.47h-1.33V5.94ZM59.38,11.8c1.77,0,3.03-.89,3.03-2.37v-.03c0-1.41-1.11-2.27-3.02-2.27h-3.64v4.67h3.62Z" fill="#fff"/><path d="M67.89,5.94h1.33v11.5h-1.33V5.94Z" fill="#fff"/><path d="M72.85,5.94h1.48l4.19,9.9,4.2-9.9h1.43l-5.07,11.58h-1.18l-5.07-11.58Z" fill="#fff"/><path d="M92.02,5.86h1.25l5.37,11.58h-1.43l-1.38-3.04h-6.41l-1.4,3.04h-1.36l5.37-11.58ZM95.31,13.21l-2.68-5.85-2.69,5.85h5.37Z" fill="#fff"/><path d="M105.27,7.14h-3.96v-1.2h9.26v1.2h-3.96v10.3h-1.35V7.14Z" fill="#fff"/><path d="M114.24,5.94h8.52v1.18h-7.19v3.92h6.43v1.18h-6.43v4.02h7.28v1.18h-8.6V5.94Z" fill="#fff"/><path d="M132.15,15.76l.83-.95c1.23,1.08,2.41,1.63,4.04,1.63s2.62-.82,2.62-1.96v-.03c0-1.07-.59-1.68-3.07-2.18-2.71-.57-3.96-1.43-3.96-3.32v-.03c0-1.81,1.63-3.14,3.87-3.14,1.72,0,2.95.48,4.14,1.41l-.77,1c-1.1-.87-2.19-1.25-3.4-1.25-1.53,0-2.51.82-2.51,1.85v.03c0,1.08.6,1.69,3.2,2.23,2.62.56,3.84,1.49,3.84,3.25v.03c0,1.97-1.68,3.25-4.02,3.25-1.87,0-3.4-.61-4.81-1.84h0Z" fill="#fff"/><path d="M144.89,5.94h4.41c2.66,0,4.41,1.38,4.41,3.65v.03c0,2.48-2.12,3.76-4.63,3.76h-2.86v4.06h-1.33V5.94ZM149.13,12.2c1.95,0,3.23-1.02,3.23-2.53v-.03c0-1.64-1.26-2.5-3.16-2.5h-2.98v5.06h2.91Z" fill="#fff"/><path d="M161.67,5.86h1.25l5.37,11.58h-1.43l-1.38-3.04h-6.41l-1.4,3.04h-1.36l5.37-11.58ZM164.95,13.21l-2.68-5.85-2.7,5.85h5.37Z" fill="#fff"/><path d="M171.27,11.72v-.03c0-3.25,2.49-5.95,5.96-5.95,2.14,0,3.42.74,4.6,1.82l-.91.95c-1-.92-2.11-1.57-3.7-1.57-2.61,0-4.56,2.07-4.56,4.71v.03c0,2.66,1.97,4.75,4.56,4.75,1.61,0,2.68-.61,3.8-1.66l.88.84c-1.23,1.22-2.58,2.02-4.72,2.02-3.4,0-5.91-2.61-5.91-5.91Z" fill="#fff"/><path d="M185.4,5.94h8.52v1.18h-7.19v3.92h6.43v1.18h-6.43v4.02h7.28v1.18h-8.6V5.94Z" fill="#fff"/><path d="M0,10.05v-.05C0,5.33,2.75,1.25,7.07,1.25s7.03,4.04,7.03,8.7v.05c0,4.67-2.75,8.75-7.07,8.75S0,14.71,0,10.05ZM12.79,10.05v-.05c0-3.94-2.24-7.61-5.76-7.61S1.31,6.01,1.31,9.95v.05c0,3.92,2.24,7.61,5.76,7.61s5.71-3.65,5.71-7.57Z" fill="#fff"/><path d="M26.01,14.33h-9.21l-.44-.94L26.08,1.42h1.14v11.82h2.77v1.09h-2.77v4.13h-1.22v-4.13ZM26.01,13.24V3.23l-8.12,10.01h8.12Z" fill="#fff"/></g></svg>