
<svg id="hk_about_fig_03.svg" xmlns="http://www.w3.org/2000/svg" width="343.47" height="183.66" viewBox="0 0 343.47 183.66">
  <defs>
    <style>
      .cls-1 {
        fill: #a0d7e6;
      }

      .cls-1, .cls-2, .cls-3, .cls-4, .cls-5 {
        fill-rule: evenodd;
      }

      .cls-2 {
        fill: #565656;
        opacity: 0.65;
      }

      .cls-3 {
        fill: #171717;
      }

      .cls-4 {
        fill: #eebb0e;
      }

      .cls-5 {
        fill: #55b0eb;
      }
    </style>
  </defs>
  <path id="t" class="cls-1" d="M1181.78,1713.34l-18.04,17.16-18.04-17.16" transform="translate(-1090.94 -1601.84)"/>
  <path id="t-2" data-name="t" class="cls-1" d="M1378.89,1710.69l-18.04,17.16-18.04-17.16" transform="translate(-1090.94 -1601.84)"/>
  <path id="長方形_5" data-name="長方形 5" class="cls-2" d="M1261.67,1605.48h0.71v174.65h-0.71V1605.48Z" transform="translate(-1090.94 -1601.84)"/>
  <path id="_96.6_" data-name="96.6%※" class="cls-3" d="M1106.72,1781.7a22.028,22.028,0,0,0,8.26-1.88,22.483,22.483,0,0,0,7.81-5.28,40.983,40.983,0,0,0,6.92-9.22,20.9,20.9,0,0,0,2.26-9.77,13.8,13.8,0,0,0-1.75-6.64,14.886,14.886,0,0,0-4.62-5.25,10.2,10.2,0,0,0-5.87-2,12.6,12.6,0,0,0-6.7,1.82,13.8,13.8,0,0,0-4.72,4.64,10.678,10.678,0,0,0-1.72,5.61,6.351,6.351,0,0,0,1.31,3.88,8.865,8.865,0,0,0,3.35,2.76,9.539,9.539,0,0,0,4.27,1.01,8.752,8.752,0,0,0,3.25-.67,13.376,13.376,0,0,0,2.62-1.34,7,7,0,0,0,2.1-2.12,0.359,0.359,0,0,0,0-.42,0.405,0.405,0,0,0-.38-0.25h-0.07c-0.34.17-.76,0.38-1.27,0.64a10.307,10.307,0,0,1-1.63.67,7.445,7.445,0,0,1-2.2.27,5.32,5.32,0,0,1-3.19-1.12,8.263,8.263,0,0,1-2.45-2.88,7.614,7.614,0,0,1-.93-3.58,7.249,7.249,0,0,1,.74-3.13,6.818,6.818,0,0,1,2.13-2.58,5.6,5.6,0,0,1,3.38-1.03,6.446,6.446,0,0,1,4.31,1.85,13.706,13.706,0,0,1,3.35,4.73,14.265,14.265,0,0,1,1.27,5.8,23.557,23.557,0,0,1-1.31,8.07,25.515,25.515,0,0,1-4.36,7.4,29.172,29.172,0,0,1-7.18,6.34q-4.11,2.58-6.98,2.58a1.237,1.237,0,0,0-.64.15,0.5,0.5,0,0,0-.26.46q0,0.48.9,0.48h0Zm42.73-.91a13.388,13.388,0,0,0,6.18-1.58,13.118,13.118,0,0,0,4.98-4.43,11.406,11.406,0,0,0,1.91-6.49,6.638,6.638,0,0,0-1.15-3.82,7.893,7.893,0,0,0-3.09-2.67,9.066,9.066,0,0,0-4.11-.97,10.31,10.31,0,0,0-3.48.67,10.841,10.841,0,0,0-2.77,1.33,11.806,11.806,0,0,0-1.73,1.46,1.1,1.1,0,0,0-.25.54,0.218,0.218,0,0,0,.25.25,2.479,2.479,0,0,0,.45-0.12,7.386,7.386,0,0,1,2.23-.73,19.049,19.049,0,0,1,2.87-.18,5.038,5.038,0,0,1,4.15,2.15,8,8,0,0,1,1.66,5,7.383,7.383,0,0,1-1.85,5.4,6.192,6.192,0,0,1-4.6,1.89,8.469,8.469,0,0,1-4.3-1.25,9.688,9.688,0,0,1-3.51-3.64,11.607,11.607,0,0,1-1.43-5.61,21.568,21.568,0,0,1,1.85-8.53,37.53,37.53,0,0,1,4.01-7.31,26.129,26.129,0,0,1,5.49-5.52,36.31,36.31,0,0,1,7.4-4.06,3.417,3.417,0,0,0,1.66-1.22c0.08-.08.04-0.18-0.13-0.3a1.076,1.076,0,0,0-.64-0.18,0.908,0.908,0,0,0-.38.06,32.3,32.3,0,0,0-9.57,4.13,47.823,47.823,0,0,0-7.46,5.82,29.761,29.761,0,0,0-5.29,7.04,20.406,20.406,0,0,0-2.43,10.19,12.473,12.473,0,0,0,1.85,6.92,11.831,11.831,0,0,0,4.85,4.3,14.281,14.281,0,0,0,6.38,1.46h0Zm21.51-.12a3.409,3.409,0,0,0,2.49-1,3.186,3.186,0,0,0,1.02-2.34,3.119,3.119,0,0,0-1.02-2.36,3.63,3.63,0,0,0-4.94,0,3.078,3.078,0,0,0-1.05,2.36,3.144,3.144,0,0,0,1.05,2.34,3.433,3.433,0,0,0,2.45,1h0Zm18.37,0.12a13.427,13.427,0,0,0,6.19-1.58,13.016,13.016,0,0,0,4.97-4.43,11.33,11.33,0,0,0,1.91-6.49,6.7,6.7,0,0,0-1.14-3.82,7.994,7.994,0,0,0-3.1-2.67,9.006,9.006,0,0,0-4.11-.97,10.4,10.4,0,0,0-3.48.67,11.013,11.013,0,0,0-2.77,1.33,11.716,11.716,0,0,0-1.72,1.46,1.144,1.144,0,0,0-.26.54,0.225,0.225,0,0,0,.26.25,2.74,2.74,0,0,0,.44-0.12,7.444,7.444,0,0,1,2.24-.73,18.957,18.957,0,0,1,2.87-.18,5.021,5.021,0,0,1,4.14,2.15,7.944,7.944,0,0,1,1.66,5,7.383,7.383,0,0,1-1.85,5.4,6.154,6.154,0,0,1-4.59,1.89,8.5,8.5,0,0,1-4.31-1.25,9.591,9.591,0,0,1-3.5-3.64,11.5,11.5,0,0,1-1.44-5.61,21.744,21.744,0,0,1,1.85-8.53,37.011,37.011,0,0,1,4.02-7.31,25.855,25.855,0,0,1,5.48-5.52,36.31,36.31,0,0,1,7.4-4.06,3.417,3.417,0,0,0,1.66-1.22c0.08-.08.04-0.18-0.13-0.3a1.076,1.076,0,0,0-.64-0.18,0.94,0.94,0,0,0-.38.06,32.243,32.243,0,0,0-9.56,4.13,47.929,47.929,0,0,0-7.47,5.82,30.032,30.032,0,0,0-5.29,7.04,20.4,20.4,0,0,0-2.42,10.19,12.391,12.391,0,0,0,1.85,6.92,11.8,11.8,0,0,0,4.84,4.3,14.312,14.312,0,0,0,6.38,1.46h0Zm20.75-7.35a3.027,3.027,0,0,0,1.95-.66,4.106,4.106,0,0,0,1.27-1.68,5.577,5.577,0,0,0,.43-2.18,5.119,5.119,0,0,0-.38-1.94,3.807,3.807,0,0,0-1.1-1.5,2.6,2.6,0,0,0-1.71-.58,3.259,3.259,0,0,0-1.94.6,4.094,4.094,0,0,0-1.3,1.6,5.048,5.048,0,0,0-.46,2.09,5.85,5.85,0,0,0,.37,2.04,3.812,3.812,0,0,0,1.11,1.59,2.683,2.683,0,0,0,1.76.62h0Zm0.28-.54a1.538,1.538,0,0,1-1.59-1.12,8.909,8.909,0,0,1-.4-2.86,6.407,6.407,0,0,1,.41-2.42,1.477,1.477,0,0,1,1.48-1,1.5,1.5,0,0,1,1.54,1.07,7.485,7.485,0,0,1,.4,2.64,8.271,8.271,0,0,1-.36,2.65,1.422,1.422,0,0,1-1.48,1.04h0Zm8.91-8.81-11.18,16.87a0.145,0.145,0,0,0-.02.07,0.251,0.251,0,0,0,.14.2,0.534,0.534,0,0,0,.29.1,1.684,1.684,0,0,0,.55-0.08,0.73,0.73,0,0,0,.37-0.29l11.17-16.87a0.1,0.1,0,0,0,.03-0.09,0.276,0.276,0,0,0-.12-0.22,0.325,0.325,0,0,0-.24-0.1,1.724,1.724,0,0,0-.6.09,0.711,0.711,0,0,0-.39.32h0Zm-0.26,16.14a3.076,3.076,0,0,0,1.95-.65,4.138,4.138,0,0,0,1.27-1.69,5.713,5.713,0,0,0,.43-2.17,5.082,5.082,0,0,0-.38-1.94,3.771,3.771,0,0,0-1.1-1.51,2.624,2.624,0,0,0-1.71-.58,3.2,3.2,0,0,0-1.94.61,4.023,4.023,0,0,0-1.3,1.6,4.863,4.863,0,0,0-.46,2.09,5.538,5.538,0,0,0,.37,2.03,3.812,3.812,0,0,0,1.11,1.59,2.613,2.613,0,0,0,1.76.62h0Zm0.28-.53a1.546,1.546,0,0,1-1.59-1.13,8.535,8.535,0,0,1-.4-2.85,6.462,6.462,0,0,1,.41-2.43,1.481,1.481,0,0,1,1.48-.99,1.5,1.5,0,0,1,1.54,1.06,7.583,7.583,0,0,1,.4,2.65,8.271,8.271,0,0,1-.36,2.65,1.432,1.432,0,0,1-1.48,1.04h0Zm12.79-21.65a1.066,1.066,0,1,0-1.06,1.01A1.045,1.045,0,0,0,1232.08,1758.05Zm-5.74-1-0.41.39,4.68,4.45-4.69,4.46,0.41,0.39,4.69-4.46,4.67,4.45,0.41-.39-4.67-4.45,4.67-4.45-0.41-.39-4.67,4.45Zm0.64,3.83a1.011,1.011,0,1,0,1.06,1.01A1.045,1.045,0,0,0,1226.98,1760.88Zm8.07,2.02a1.011,1.011,0,1,0-1.06-1.01A1.054,1.054,0,0,0,1235.05,1762.9Zm-5.1,2.83a1.066,1.066,0,1,0,1.07-1.01A1.054,1.054,0,0,0,1229.95,1765.73Z" transform="translate(-1090.94 -1601.84)"/>
  <path id="一般的なLDKより" class="cls-3" d="M1090.95,1609.24v1.45h17.18v-1.45h-17.18Zm30.63-5.44h2.91v2.88a1.879,1.879,0,0,0,.34,1.5,1.729,1.729,0,0,0,1.02.28h0.95a2.081,2.081,0,0,0,.85-0.14,0.977,0.977,0,0,0,.55-0.59,6.242,6.242,0,0,0,.17-1.68,3.277,3.277,0,0,1-1.02-.52c-0.02.68-.04,1.21-0.08,1.46a0.531,0.531,0,0,1-.19.38,0.862,0.862,0,0,1-.41.07h-0.51a0.48,0.48,0,0,1-.33-0.09,1.061,1.061,0,0,1-.07-0.6v-4.12h-5.45v2.31a4.022,4.022,0,0,1-1.57,3.52,4.816,4.816,0,0,1,1,.8,5.145,5.145,0,0,0,1.84-4.29v-1.17Zm-7.51,2.74a8.562,8.562,0,0,1,1,2.45l0.96-.38a7.576,7.576,0,0,0-1.09-2.4Zm-0.68-1.06h3.38v4.05c-1.19.1-2.34,0.23-3.38,0.32v-4.37Zm5.44,4.89-0.01-1.06-0.88.09v-5h-2.78c0.29-.65.61-1.44,0.91-2.18l-1.51-.29a18.385,18.385,0,0,1-.68,2.47h-1.65v5.56l-1.38.12,0.15,1.12,1.23-.13c0,2.13-.15,4.77-1.4,6.66a4.367,4.367,0,0,1,.99.61c1.36-1.99,1.57-5.09,1.57-7.38,1.05-.1,2.21-0.23,3.38-0.36v6.39c0,0.22-.09.27-0.32,0.27h-1.66a4.494,4.494,0,0,1,.41,1.08,6.535,6.535,0,0,0,2.18-.19,1.068,1.068,0,0,0,.56-1.16v-6.51Zm-3.42.99h-0.91v4.21h0.91v-4.21Zm10.22-.43a9.671,9.671,0,0,1-2.26,3.45,10.5,10.5,0,0,1-2.23-3.45h4.49Zm0.85-1.24-0.25.03h-6.94v1.21h1.78l-1.06.23a12.218,12.218,0,0,0,2.44,4.03,11.3,11.3,0,0,1-4.07,2.07,4.817,4.817,0,0,1,.76,1.12,13.1,13.1,0,0,0,4.25-2.27,11.1,11.1,0,0,0,4.22,2.23,5.708,5.708,0,0,1,.87-1.09,10.972,10.972,0,0,1-4.12-1.98,11.738,11.738,0,0,0,2.99-5.28Zm10.31,0.07h-3.97V1606h3.97v3.76Zm-3.97,5.51v-4.32h3.97v4.32h-3.97Zm1.59-13.39a21.547,21.547,0,0,1-.76,2.91h-2.12v13.1h1.29v-1.42h5.26v-11.68h-3.14c0.32-.77.66-1.76,0.98-2.64Zm12.92,2.86h-5.66a25.953,25.953,0,0,0,.82-2.59l-1.35-.31a17.6,17.6,0,0,1-2.89,6.53,9.541,9.541,0,0,1,1.15.76,15.047,15.047,0,0,0,1.78-3.15h4.81c-0.25,7.16-.53,9.9-1.16,10.53a0.849,0.849,0,0,1-.77.27c-0.44,0-1.57,0-2.8-.11a3.1,3.1,0,0,1,.47,1.31,20.343,20.343,0,0,0,2.8.02,1.871,1.871,0,0,0,1.49-.72c0.76-.88,1.01-3.65,1.31-11.86v-0.68Zm-2.99,8.1a35.2,35.2,0,0,0-2.97-4.07l-1.1.61a32.574,32.574,0,0,1,2.88,4.16Zm22.21-5.29a29.069,29.069,0,0,0-4.39-2.38l-0.74,1.12a22.555,22.555,0,0,1,4.27,2.44Zm-6.82-2.7a20.39,20.39,0,0,1-2.91.64c0.3-1.02.55-2.1,0.74-2.75l-1.69-.14a13.7,13.7,0,0,1-.58,3.07c-0.72.06-1.42,0.09-2.08,0.09a18.55,18.55,0,0,1-2.31-.12l0.11,1.35c0.7,0.03,1.48.05,2.18,0.05,0.55,0,1.1-.02,1.64-0.05a25.252,25.252,0,0,1-4.01,6.66l1.48,0.72a31.836,31.836,0,0,0,4.09-7.54,23.9,23.9,0,0,0,3.38-.65Zm0.99,9.95c0,0.88-.51,1.69-2.05,1.69-1.45,0-2.15-.56-2.15-1.39,0-.81.91-1.4,2.29-1.4a7.249,7.249,0,0,1,1.89.25C1160.72,1614.28,1160.72,1614.56,1160.72,1614.8Zm-0.27-6.55c0.04,1.24.14,2.98,0.19,4.44a9.136,9.136,0,0,0-1.78-.16c-2.11,0-3.74,1.06-3.74,2.7,0,1.76,1.68,2.57,3.74,2.57,2.31,0,3.3-1.17,3.3-2.59,0-.2,0-0.45-0.02-0.72a13.077,13.077,0,0,1,3.01,2.04l0.81-1.23a12.908,12.908,0,0,0-3.88-2.23c-0.04-1.08-.11-2.25-0.13-2.9a15.524,15.524,0,0,1,.02-1.92h-1.52Zm9.63,8.73h7.81v-1.43h-6.05v-11.77h-1.76v13.2Zm10.92,0h3.56c4.18,0,6.47-2.47,6.47-6.64,0-4.2-2.29-6.56-6.54-6.56H1181v13.2Zm1.76-1.37v-10.48h1.57c3.28,0,4.89,1.86,4.89,5.21,0,3.32-1.61,5.27-4.89,5.27h-1.57Zm11.89,1.37h1.76v-4.18l2.39-2.7,4.14,6.88h1.97l-5.01-8.17,4.33-5.03h-1.97l-5.79,6.63h-0.06v-6.63h-1.76v13.2Zm19.49-2.45c0,1.22-.66,1.83-2.04,1.83-1.8,0-2.84-.54-2.84-1.53,0-.97,1.1-1.6,3.03-1.6a9.308,9.308,0,0,1,1.83.18C1214.12,1613.86,1214.14,1614.24,1214.14,1614.53Zm1.27-6.73c1.53-.04,3.93-0.15,5.6-0.29l-0.06-1.37c-1.68.22-4.05,0.31-5.54,0.34,0-.7-0.02-1.33,0-1.81a14.3,14.3,0,0,1,.15-1.77h-1.82a12.051,12.051,0,0,1,.15,1.77c0.02,0.75.02,2.23,0.02,3.25,0,1.07.08,2.7,0.15,4.14a12.138,12.138,0,0,0-1.59-.11c-3.23,0-4.71,1.34-4.71,2.94,0,2.03,1.91,2.82,4.49,2.82,2.49,0,3.44-1.26,3.44-2.71,0-.33-0.02-0.72-0.04-1.19a13.33,13.33,0,0,1,4.87,2.93l0.9-1.33a15.062,15.062,0,0,0-5.82-3.04c-0.1-1.55-.19-3.28-0.19-4.45v-0.12Zm11.72-5.02c-0.02.43-.08,0.97-0.15,1.53a43.889,43.889,0,0,0-.57,5.76,19.876,19.876,0,0,0,.19,2.82l1.47-.11a6.981,6.981,0,0,1-.03-2.18c0.22-2.33,2.38-5.56,4.71-5.56,1.98,0,2.97,2.02,2.97,4.83,0,4.48-3.18,6.03-7.25,6.62l0.89,1.3c4.65-.81,7.93-2.99,7.93-7.94,0-3.74-1.8-6.12-4.3-6.12-2.36,0-4.33,2.21-5.07,4.05a33.212,33.212,0,0,1,.87-4.95Z" transform="translate(-1090.94 -1601.84)"/>
  <path id="と感じると回答" class="cls-3" d="M1112.2,1680.83a7.46,7.46,0,0,1-1.35.85c-1.02.55-3.04,1.49-4.8,2.5a40.143,40.143,0,0,1-2.52-5.27l-1.49.57a58.6,58.6,0,0,0,2.72,5.49c-2,1.33-3.23,2.79-3.23,4.63,0,2.66,2.55,3.67,6.07,3.67a39.1,39.1,0,0,0,5.92-.43v-1.62a28.96,28.96,0,0,1-6,.61c-2.95,0-4.42-.92-4.42-2.4,0-1.35,1.04-2.52,2.78-3.6a63.168,63.168,0,0,1,5.69-2.93c0.55-.27,1.02-0.5,1.44-0.76Zm6.43,13.03a7.207,7.207,0,0,0,2.57-3.85l-1.21-.4a6.624,6.624,0,0,1-2.52,3.51Zm8.24-11.93h-5.77v0.93h5.77v-0.93Zm-1.49,4.97h-2.78v-1.88h2.78v1.88Zm1.06,0.99a8.329,8.329,0,0,1,1.02.91,11.943,11.943,0,0,0,2.23-1.94,4.282,4.282,0,0,0,3.22,2.11c1.19,0,1.7-.63,1.93-2.88a3.358,3.358,0,0,1-1.1-.6c-0.09,1.62-.28,2.25-0.76,2.27-0.77,0-1.64-.7-2.44-1.93a14.39,14.39,0,0,0,2.16-3.96l-1.3-.28a12.114,12.114,0,0,1-1.54,3.02,17.118,17.118,0,0,1-1.23-3.89h5.77v-1.11h-2.08l0.59-.67a9.873,9.873,0,0,0-2.69-1.26l-0.74.79a10.155,10.155,0,0,1,2.41,1.14h-3.45c-0.07-.6-0.13-1.21-0.15-1.82h-1.34c0.04,0.61.09,1.22,0.17,1.82h-7.98v2.68c0,1.83-.21,4.35-1.8,6.21a3.578,3.578,0,0,1,1.02.83c1.72-2.02,2.06-4.95,2.06-7.02v-1.59h6.87a17.853,17.853,0,0,0,1.7,5.01,11.306,11.306,0,0,1-2.42,2.07v-3.71h-5.14v3.76h5.07Zm-2.65,1a12.924,12.924,0,0,1,3.2,2.18l0.96-.84a11.756,11.756,0,0,0-3.23-2.07Zm1.14,3.91c-1.03,0-1.18-.09-1.18-0.54v-2.77h-1.4v2.79c0,1.36.51,1.72,2.46,1.72h3.67c1.59,0,2.01-.5,2.2-2.6a3.844,3.844,0,0,1-1.29-.49c-0.06,1.67-.19,1.89-1.02,1.89h-3.44Zm5.35-2.79a12.2,12.2,0,0,1,3.25,3.65l1.25-.64a12.529,12.529,0,0,0-3.35-3.6Zm16.05-9.57-1.08.43a20.747,20.747,0,0,1,1.78,2.91l1.12-.48A25.733,25.733,0,0,0,1146.33,1680.44Zm2.44-.92-1.06.47a19.211,19.211,0,0,1,1.84,2.84l1.1-.51A27.254,27.254,0,0,0,1148.77,1679.52Zm-9.57-.54a8.952,8.952,0,0,1,.17,1.8c0,1.89-.19,6.39-0.19,9.03,0,2.9,1.86,3.98,4.54,3.98a9.464,9.464,0,0,0,7.82-3.92l-1.04-1.25a7.9,7.9,0,0,1-6.72,3.69c-1.74,0-3.08-.68-3.08-2.62,0-2.67.15-6.9,0.22-8.91,0.04-.58.1-1.19,0.19-1.78Zm23.16,13.28c-1.4,0-2.48-.5-2.48-1.39a1.325,1.325,0,0,1,1.5-1.09,2.443,2.443,0,0,1,2.48,2.37A10.066,10.066,0,0,1,1162.36,1692.26Zm3.86-12.94a7.192,7.192,0,0,1-1.02.14c-0.98.09-5.43,0.22-6.39,0.22a12.186,12.186,0,0,1-1.33-.05l0.04,1.49a10.175,10.175,0,0,1,1.27-.11c0.96-.05,4.65-0.21,5.63-0.25-0.92.79-3.25,2.66-4.29,3.49-1.1.86-3.5,2.77-5.05,4l1.1,1.06c2.38-2.31,4.08-3.55,7.17-3.55,2.36,0,4.22,1.28,4.22,3.03a3.14,3.14,0,0,1-2.33,3.02,3.645,3.645,0,0,0-3.86-3.15,2.627,2.627,0,0,0-2.9,2.34c0,1.48,1.57,2.55,4.13,2.55,3.95,0,6.47-1.87,6.47-4.75,0-2.41-2.25-4.21-5.37-4.21a8.328,8.328,0,0,0-2.54.38c1.44-1.15,3.95-3.26,4.88-3.92,0.29-.2.7-0.47,1.04-0.69Zm18.49,1.51a7.46,7.46,0,0,1-1.35.85c-1.02.55-3.04,1.49-4.8,2.5a41.46,41.46,0,0,1-2.52-5.27l-1.49.57a58.6,58.6,0,0,0,2.72,5.49c-2,1.33-3.23,2.79-3.23,4.63,0,2.66,2.55,3.67,6.07,3.67a39.1,39.1,0,0,0,5.92-.43v-1.62a28.96,28.96,0,0,1-6,.61c-2.95,0-4.42-.92-4.42-2.4,0-1.35,1.04-2.52,2.78-3.6a63.168,63.168,0,0,1,5.69-2.93c0.55-.27,1.02-0.5,1.44-0.76Zm15.79,7.15h-4.58v-4.11h4.58v4.11Zm-5.92-5.31v6.49h7.3v-6.49h-7.3Zm-2.73,9.32v-12.11h12.77v12.11h-12.77Zm-1.42-13.44v15.67h1.42v-0.97h12.77v0.97h1.5v-15.67h-15.69Zm22.46,1.94a14.123,14.123,0,0,1,1.14,2.41l1.27-.4a11.43,11.43,0,0,0-1.01-2.01h3.28v-1.15h-4.75c0.22-.49.45-0.97,0.64-1.48l-1.34-.34a12.322,12.322,0,0,1-2.95,4.7,9.848,9.848,0,0,1,1.15.73,13.979,13.979,0,0,0,1.85-2.46h0.72Zm9.22,9.25v2.74h-8.19v-2.74h8.19Zm-9.54,4.48h1.35v-0.58h8.19v0.53h1.38v-5.58h-10.92v5.63Zm2.12-8.33a16.657,16.657,0,0,0,3.25-2.79,18.015,18.015,0,0,0,3.5,2.79h-6.75Zm3.46-3.96a10.6,10.6,0,0,0,1.21-1.44h1.44a10.457,10.457,0,0,1,1.48,2.37l1.3-.43a12.108,12.108,0,0,0-1.21-1.94h4.01v-1.15h-6.28a11.16,11.16,0,0,0,.68-1.5l-1.36-.32a9.46,9.46,0,0,1-2.88,4.05,7.081,7.081,0,0,1,.65.38,19.886,19.886,0,0,1-8,5.4,4.955,4.955,0,0,1,.79,1.06,26.272,26.272,0,0,0,4.18-2.18v0.79h7.78v-0.83a25.262,25.262,0,0,0,4.06,1.98,5.931,5.931,0,0,1,.86-1.13,20.413,20.413,0,0,1-8.31-5.11h-0.4Z" transform="translate(-1090.94 -1601.84)"/>
  <path id="明るい" class="cls-4" d="M1112.48,1636.7v5.63h-5.42v-5.63h5.42Zm-5.42,15.79v-5.92h5.42v5.92h-5.42Zm10.05,4.32v-24.43h-14.68v27.87h4.63v-3.44h10.05Zm7.61-6.08a44.252,44.252,0,0,0,.21-4.52v-0.6h9.03v5.12h-9.24Zm9.24-14.51v5.12h-9.03v-5.12h9.03Zm4.96-4.4h-18.91v14.39c0,6.08-.63,13.52-7.7,18.48a18.655,18.655,0,0,1,3.75,3.16c4.7-3.28,6.97-8.04,8.02-12.84h9.88v7.04a0.8,0.8,0,0,1-1,.92c-0.72.04-3.28,0.08-5.55-.04a15.953,15.953,0,0,1,1.76,4.6c3.49,0,5.89-.12,7.57-0.88,1.64-.76,2.18-2.04,2.18-4.56v-30.27Zm26.16,29.87c-2.44,0-4.21-1-4.21-2.48,0-1,1.01-1.88,2.57-1.88,2.27,0,3.82,1.68,4.07,4.24A22.841,22.841,0,0,1,1165.08,1661.69Zm9.16-28.55a20.922,20.922,0,0,1-3.19.4c-2.36.2-11.27,0.4-13.46,0.4-1.17,0-2.6-.08-3.78-0.2l0.17,5.16a28.7,28.7,0,0,1,3.4-.32c2.19-.16,7.91-0.4,10.05-0.44-2.06,1.72-6.39,5.03-8.7,6.87-2.48,1.92-7.49,5.96-10.43,8.24l3.79,3.72c4.45-4.8,8.61-8.04,15-8.04,4.84,0,8.62,2.4,8.62,5.96a5.74,5.74,0,0,1-3.4,5.4c-0.63-3.76-3.75-6.76-8.87-6.76-4.42,0-7.49,2.96-7.49,6.16,0,3.96,4.37,6.48,10.18,6.48,10.04,0,15.05-4.96,15.05-11.2,0-5.76-5.38-9.96-12.45-9.96a14.716,14.716,0,0,0-3.91.44c2.61-2,6.98-5.51,9.21-6.99,0.92-.6,1.89-1.2,2.9-1.8Zm23.73,2.48-6.39-.08a21.215,21.215,0,0,1,.3,4c0,2.43.08,7.03,0.46,10.67,1.18,10.64,5.17,14.56,9.71,14.56,3.36,0,5.97-2.44,8.75-9.32l-4.21-4.8c-0.8,3.12-2.44,7.76-4.41,7.76-2.61,0-3.87-3.88-4.46-9.6a83.5,83.5,0,0,1-.25-8.39A30.369,30.369,0,0,1,1197.97,1635.62Zm20.81,0.84-5.29,1.68c4.54,4.87,6.76,14.19,7.39,20.55l5.51-2C1225.93,1650.61,1222.73,1641.06,1218.78,1636.46Z" transform="translate(-1090.94 -1601.84)"/>
  <path id="_72.5_" data-name="72.5%※" class="cls-3" d="M1303.89,1785.13a4.187,4.187,0,0,0,1.21-1.64l19.19-32.94c0.17-.28.62-0.94,1.34-1.97a4.807,4.807,0,0,0,1.09-2.28,1.282,1.282,0,0,0-.13-0.51,0.376,0.376,0,0,0-.26-0.28c-0.59.09-2.39,0.16-5.38,0.22s-6.1.09-9.28,0.09l-6.32-.06a20.645,20.645,0,0,1-3.66-.28c-1.05-.18-1.61-0.27-1.69-0.27a0.612,0.612,0,0,0-.64.67,57.14,57.14,0,0,1-1.02,6,3.383,3.383,0,0,1-.13.58,2.738,2.738,0,0,0-.13.76c0,0.57.15,0.85,0.45,0.85,0.42,0,.93-0.51,1.53-1.52a6.189,6.189,0,0,1,2.14-2.18,5.649,5.649,0,0,1,2.77-.61h16.33c0.51,0.04.76,0.14,0.76,0.3a0.929,0.929,0,0,1-.13.31l-18.04,30.7a13.17,13.17,0,0,0-1.34,2.49c0,1.05.44,1.57,1.34,1.57h0Zm48.35-1.76a1.481,1.481,0,0,0,1.4-1.45c0.21-.93.68-2.45,1.41-4.55a6.654,6.654,0,0,0,.51-1.58c0-.49-0.15-0.73-0.45-0.73-0.47,0-1,.47-1.6,1.4a5.841,5.841,0,0,1-2.2,2.24,11.323,11.323,0,0,1-3.85.61q-3.45.18-7.27,0.18c-2.34,0-4.21-.06-5.62-0.18a3.661,3.661,0,0,1-.63-0.15,0.321,0.321,0,0,1-.26-0.28c0-.08,1.49-1.53,4.47-4.37q1.395-1.4,4.56-4.48c2.1-2.07,3.56-3.54,4.36-4.43a21.6,21.6,0,0,0,3.35-5.28,13.189,13.189,0,0,0,1.31-5.34,9.874,9.874,0,0,0-2.74-7.25,10.054,10.054,0,0,0-7.46-2.76,13.28,13.28,0,0,0-6.16,1.45,15.52,15.52,0,0,0-4.56,3.4c-1.15,1.3-1.72,2.29-1.72,2.97a2.361,2.361,0,0,0,.35,1.28,0.946,0.946,0,0,0,.61.54,0.978,0.978,0,0,0,.57-0.24,1.854,1.854,0,0,0,.51-0.6,10.042,10.042,0,0,1,3.6-3.58,9.354,9.354,0,0,1,4.82-1.34,6.8,6.8,0,0,1,4.85,1.88,6.657,6.657,0,0,1,1.97,5.04,16.986,16.986,0,0,1-2.01,7.76,27.07,27.07,0,0,1-5.39,7.22l-10.9,10.74c-0.04.04-.14,0.13-0.29,0.28a0.667,0.667,0,0,0-.22.51,1.063,1.063,0,0,0,.51.64,1.526,1.526,0,0,0,.76.39l4.6-.12q10.9-.18,10.2-0.18,2.49,0,6.06.24Zm12.72,0.67a3.409,3.409,0,0,0,2.49-1,3.186,3.186,0,0,0,1.02-2.34,3.119,3.119,0,0,0-1.02-2.36,3.63,3.63,0,0,0-4.94,0,3.088,3.088,0,0,0-1.06,2.36,3.155,3.155,0,0,0,1.06,2.34,3.433,3.433,0,0,0,2.45,1h0Zm11.37,1.46a24.948,24.948,0,0,0,12.05-2.92,16.763,16.763,0,0,0,5.71-4.91,10.486,10.486,0,0,0,2.07-6.19,10.131,10.131,0,0,0-1.72-6.01,14.168,14.168,0,0,0-5.36-4.24,72.036,72.036,0,0,0-11.61-4.07,0.937,0.937,0,0,1-.82-0.91v-0.24a8.281,8.281,0,0,1,1.11-2.79c0.7-1.29,1.27-1.96,1.69-2q1.92-.315,6.06-0.61l4.91-.49a2.98,2.98,0,0,0,2.36-1.94l1.08-2a0.664,0.664,0,0,0,.07-0.73,0.7,0.7,0,0,0-.64-0.3h-0.13a83.193,83.193,0,0,0-13.2,2.12,3.3,3.3,0,0,0-2.61,2.19l-0.96,2.67q-2.1,5.16-2.1,6.97a2.959,2.959,0,0,0,.35,1.49,4.469,4.469,0,0,0,1.18,1.31q8.355,2.055,11.83,4.45a7.088,7.088,0,0,1,3.47,5.98,9.689,9.689,0,0,1-1.69,5.34,12.288,12.288,0,0,1-5.04,4.28,18.1,18.1,0,0,1-8.13,1.67,3.74,3.74,0,0,0-1.46.36,1.077,1.077,0,0,0-.83.79,0.741,0.741,0,0,0,.73.54,6.343,6.343,0,0,0,1.63.19h0Zm28.64-8.69a3.027,3.027,0,0,0,1.95-.66,4.172,4.172,0,0,0,1.26-1.68,5.55,5.55,0,0,0,.44-2.18,4.944,4.944,0,0,0-.39-1.94,3.786,3.786,0,0,0-1.09-1.5,2.624,2.624,0,0,0-1.71-.58,3.259,3.259,0,0,0-1.94.6,4.008,4.008,0,0,0-1.3,1.6,4.9,4.9,0,0,0-.46,2.09,5.63,5.63,0,0,0,.37,2.04,3.64,3.64,0,0,0,1.11,1.59,2.664,2.664,0,0,0,1.76.62h0Zm0.28-.54a1.557,1.557,0,0,1-1.6-1.12,8.934,8.934,0,0,1-.39-2.86,6.217,6.217,0,0,1,.41-2.42,1.469,1.469,0,0,1,1.48-1,1.513,1.513,0,0,1,1.54,1.07,7.761,7.761,0,0,1,.39,2.65,8.231,8.231,0,0,1-.35,2.64,1.422,1.422,0,0,1-1.48,1.04h0Zm8.9-8.81-11.17,16.87a0.091,0.091,0,0,0-.03.07,0.277,0.277,0,0,0,.14.2,0.566,0.566,0,0,0,.3.1,1.619,1.619,0,0,0,.54-0.08,0.692,0.692,0,0,0,.37-0.29l11.18-16.87a0.144,0.144,0,0,0,.02-0.09,0.3,0.3,0,0,0-.11-0.22,0.359,0.359,0,0,0-.24-0.1,1.724,1.724,0,0,0-.6.09,0.7,0.7,0,0,0-.4.32h0Zm-0.25,16.14a3.058,3.058,0,0,0,1.95-.65,4.205,4.205,0,0,0,1.26-1.69,5.528,5.528,0,0,0,.43-2.17,4.9,4.9,0,0,0-.38-1.94,3.679,3.679,0,0,0-1.1-1.51,2.632,2.632,0,0,0-1.7-.58,3.18,3.18,0,0,0-1.94.61,3.941,3.941,0,0,0-1.3,1.6,4.863,4.863,0,0,0-.46,2.09,5.63,5.63,0,0,0,.37,2.04,3.667,3.667,0,0,0,1.11,1.58,2.613,2.613,0,0,0,1.76.62h0Zm0.28-.53a1.565,1.565,0,0,1-1.6-1.13,8.826,8.826,0,0,1-.39-2.85,6.3,6.3,0,0,1,.41-2.43,1.469,1.469,0,0,1,1.47-.99,1.513,1.513,0,0,1,1.55,1.07,7.739,7.739,0,0,1,.39,2.64,8.591,8.591,0,0,1-.35,2.65,1.44,1.44,0,0,1-1.48,1.04h0Zm12.78-21.65a1.061,1.061,0,1,0-1.06,1.01A1.045,1.045,0,0,0,1426.96,1761.42Zm-5.73-1-0.41.4,4.67,4.44-4.69,4.46,0.41,0.39,4.69-4.46,4.68,4.45,0.41-.39-4.68-4.45,4.68-4.44-0.41-.4-4.68,4.45Zm0.63,3.83a1.012,1.012,0,1,0,1.07,1.01A1.045,1.045,0,0,0,1421.86,1764.25Zm8.08,2.02a1.011,1.011,0,1,0-1.06-1.01A1.045,1.045,0,0,0,1429.94,1766.27Zm-5.1,2.83a1.061,1.061,0,1,0,1.06-1.01A1.045,1.045,0,0,0,1424.84,1769.1Z" transform="translate(-1090.94 -1601.84)"/>
  <path id="一般的なLDKより-2" data-name="一般的なLDKより" class="cls-3" d="M1288.06,1609.24v1.45h17.18v-1.45h-17.18Zm30.63-5.44h2.91v2.88a1.879,1.879,0,0,0,.34,1.5,1.76,1.76,0,0,0,1.03.28h0.94a2.024,2.024,0,0,0,.85-0.14,0.977,0.977,0,0,0,.55-0.59,5.855,5.855,0,0,0,.17-1.68,3.391,3.391,0,0,1-1.02-.52c-0.02.68-.04,1.21-0.07,1.46a0.572,0.572,0,0,1-.19.38,0.936,0.936,0,0,1-.42.07h-0.51a0.453,0.453,0,0,1-.32-0.09,0.944,0.944,0,0,1-.08-0.6v-4.12h-5.45v2.31a4.022,4.022,0,0,1-1.57,3.52,4.625,4.625,0,0,1,1.01.8,5.163,5.163,0,0,0,1.83-4.29v-1.17Zm-7.51,2.74a8.562,8.562,0,0,1,1,2.45l0.97-.38a7.616,7.616,0,0,0-1.1-2.4Zm-0.68-1.06h3.38v4.05c-1.19.1-2.34,0.23-3.38,0.32v-4.37Zm5.45,4.89-0.02-1.06-0.87.09v-5h-2.78c0.28-.65.6-1.44,0.9-2.18l-1.51-.29a15.827,15.827,0,0,1-.68,2.47h-1.65v5.56l-1.38.12,0.15,1.12,1.23-.13c0,2.13-.15,4.77-1.4,6.66a4.367,4.367,0,0,1,.99.61c1.36-1.99,1.57-5.09,1.57-7.38,1.06-.1,2.21-0.23,3.38-0.36v6.39c0,0.22-.09.27-0.32,0.27h-1.66a4.11,4.11,0,0,1,.41,1.08,6.5,6.5,0,0,0,2.18-.19,1.06,1.06,0,0,0,.57-1.16v-6.51Zm-3.43.99h-0.91v4.21h0.91v-4.21Zm10.22-.43a9.783,9.783,0,0,1-2.25,3.45,10.346,10.346,0,0,1-2.23-3.45h4.48Zm0.85-1.24-0.25.03h-6.94v1.21h1.78l-1.06.23a12.388,12.388,0,0,0,2.44,4.03,11.3,11.3,0,0,1-4.07,2.07,4.268,4.268,0,0,1,.76,1.12,13.249,13.249,0,0,0,4.26-2.27,10.955,10.955,0,0,0,4.22,2.23,5.025,5.025,0,0,1,.87-1.09,11.092,11.092,0,0,1-4.13-1.98,11.738,11.738,0,0,0,2.99-5.28Zm10.31,0.07h-3.97V1606h3.97v3.76Zm-3.97,5.51v-4.32h3.97v4.32h-3.97Zm1.59-13.39a20.158,20.158,0,0,1-.76,2.91h-2.11v13.1h1.28v-1.42h5.26v-11.68h-3.14c0.32-.77.66-1.76,0.98-2.64Zm12.92,2.86h-5.65a25.9,25.9,0,0,0,.81-2.59l-1.34-.31a17.769,17.769,0,0,1-2.9,6.53,10.544,10.544,0,0,1,1.16.76,15.037,15.037,0,0,0,1.77-3.15h4.81c-0.25,7.16-.53,9.9-1.15,10.53a0.859,0.859,0,0,1-.78.27c-0.44,0-1.57,0-2.8-.11a3.1,3.1,0,0,1,.47,1.31,20.343,20.343,0,0,0,2.8.02,1.891,1.891,0,0,0,1.5-.72c0.75-.88,1-3.65,1.3-11.86v-0.68Zm-2.99,8.1a34.049,34.049,0,0,0-2.97-4.07l-1.09.61a32.411,32.411,0,0,1,2.87,4.16Zm22.21-5.29a29.069,29.069,0,0,0-4.39-2.38l-0.74,1.12a22.956,22.956,0,0,1,4.28,2.44Zm-6.81-2.7a20.525,20.525,0,0,1-2.92.64c0.31-1.02.55-2.1,0.74-2.75l-1.68-.14a14.316,14.316,0,0,1-.59,3.07c-0.72.06-1.42,0.09-2.08,0.09a18.655,18.655,0,0,1-2.31-.12l0.12,1.35c0.7,0.03,1.47.05,2.17,0.05,0.55,0,1.1-.02,1.65-0.05a25.252,25.252,0,0,1-4.01,6.66l1.47,0.72a31.482,31.482,0,0,0,4.09-7.54,24.337,24.337,0,0,0,3.39-.65Zm0.98,9.95c0,0.88-.51,1.69-2.04,1.69-1.46,0-2.16-.56-2.16-1.39,0-.81.91-1.4,2.29-1.4a7.192,7.192,0,0,1,1.89.25C1357.83,1614.28,1357.83,1614.56,1357.83,1614.8Zm-0.26-6.55c0.03,1.24.13,2.98,0.19,4.44a9.208,9.208,0,0,0-1.78-.16c-2.12,0-3.75,1.06-3.75,2.7,0,1.76,1.68,2.57,3.75,2.57,2.31,0,3.29-1.17,3.29-2.59,0-.2,0-0.45-0.02-0.72a13.077,13.077,0,0,1,3.01,2.04l0.81-1.23a12.784,12.784,0,0,0-3.88-2.23c-0.03-1.08-.11-2.25-0.13-2.9a15.524,15.524,0,0,1,.02-1.92h-1.51Zm9.62,8.73h7.82v-1.43h-6.06v-11.77h-1.76v13.2Zm10.93,0h3.55c4.19,0,6.47-2.47,6.47-6.64,0-4.2-2.28-6.56-6.54-6.56h-3.48v13.2Zm1.76-1.37v-10.48h1.57c3.27,0,4.88,1.86,4.88,5.21,0,3.32-1.61,5.27-4.88,5.27h-1.57Zm11.89,1.37h1.76v-4.18l2.38-2.7,4.14,6.88h1.97l-5.01-8.17,4.33-5.03h-1.97l-5.79,6.63h-0.05v-6.63h-1.76v13.2Zm19.48-2.45c0,1.22-.66,1.83-2.04,1.83-1.8,0-2.84-.54-2.84-1.53,0-.97,1.1-1.6,3.03-1.6a9.308,9.308,0,0,1,1.83.18C1411.23,1613.86,1411.25,1614.24,1411.25,1614.53Zm1.27-6.73c1.53-.04,3.94-0.15,5.6-0.29l-0.06-1.37c-1.68.22-4.05,0.31-5.54,0.34,0-.7-0.02-1.33,0-1.81a16.548,16.548,0,0,1,.15-1.77h-1.81a13.625,13.625,0,0,1,.15,1.77c0.02,0.75.02,2.23,0.02,3.25,0,1.07.07,2.7,0.15,4.14a12.138,12.138,0,0,0-1.59-.11c-3.24,0-4.71,1.34-4.71,2.94,0,2.03,1.91,2.82,4.48,2.82,2.5,0,3.44-1.26,3.44-2.71,0-.33-0.02-0.72-0.03-1.19a13.284,13.284,0,0,1,4.86,2.93l0.91-1.33a15.183,15.183,0,0,0-5.83-3.04c-0.1-1.55-.19-3.28-0.19-4.45v-0.12Zm11.72-5.02c-0.02.43-.07,0.97-0.15,1.53a43.889,43.889,0,0,0-.57,5.76,21.5,21.5,0,0,0,.19,2.82l1.48-.11a6.716,6.716,0,0,1-.04-2.18c0.23-2.33,2.38-5.56,4.71-5.56,1.99,0,2.97,2.02,2.97,4.83,0,4.48-3.18,6.03-7.25,6.62l0.89,1.3c4.66-.81,7.93-2.99,7.93-7.94,0-3.74-1.8-6.12-4.29-6.12-2.37,0-4.34,2.21-5.07,4.05a30.826,30.826,0,0,1,.87-4.95Z" transform="translate(-1090.94 -1601.84)"/>
  <path id="と感じると回答-2" data-name="と感じると回答" class="cls-3" d="M1309.31,1680.83a7.358,7.358,0,0,1-1.34.85c-1.02.55-3.05,1.49-4.81,2.5a40.182,40.182,0,0,1-2.51-5.27l-1.5.57a58.6,58.6,0,0,0,2.72,5.49c-2,1.33-3.23,2.79-3.23,4.63,0,2.66,2.55,3.67,6.07,3.67a39,39,0,0,0,5.92-.43v-1.62a28.858,28.858,0,0,1-5.99.61c-2.95,0-4.43-.92-4.43-2.4,0-1.35,1.04-2.52,2.78-3.6,1.84-1.15,4.45-2.32,5.7-2.93,0.54-.27,1.02-0.5,1.43-0.76Zm6.43,13.03a7.207,7.207,0,0,0,2.57-3.85l-1.21-.4a6.571,6.571,0,0,1-2.52,3.51Zm8.25-11.93h-5.77v0.93h5.77v-0.93Zm-1.5,4.97h-2.78v-1.88h2.78v1.88Zm1.06,0.99a7.649,7.649,0,0,1,1.02.91,12.324,12.324,0,0,0,2.24-1.94,4.251,4.251,0,0,0,3.21,2.11c1.19,0,1.7-.63,1.93-2.88a3.358,3.358,0,0,1-1.1-.6c-0.09,1.62-.28,2.25-0.75,2.27-0.78,0-1.65-.7-2.44-1.93a14.367,14.367,0,0,0,2.15-3.96l-1.3-.28a12.431,12.431,0,0,1-1.53,3.02,16.633,16.633,0,0,1-1.23-3.89h5.77v-1.11h-2.08l0.58-.67a9.8,9.8,0,0,0-2.68-1.26l-0.74.79a10.076,10.076,0,0,1,2.4,1.14h-3.44a15.762,15.762,0,0,1-.15-1.82h-1.35c0.04,0.61.1,1.22,0.17,1.82h-7.98v2.68c0,1.83-.21,4.35-1.8,6.21a3.446,3.446,0,0,1,1.02.83c1.72-2.02,2.07-4.95,2.07-7.02v-1.59h6.86a17.539,17.539,0,0,0,1.71,5.01,11.357,11.357,0,0,1-2.43,2.07v-3.71h-5.14v3.76h5.07Zm-2.65,1a12.737,12.737,0,0,1,3.2,2.18l0.97-.84a11.975,11.975,0,0,0-3.24-2.07Zm1.14,3.91c-1.02,0-1.17-.09-1.17-0.54v-2.77h-1.4v2.79c0,1.36.51,1.72,2.45,1.72h3.68c1.58,0,2-.5,2.19-2.6a3.927,3.927,0,0,1-1.29-.49c-0.05,1.67-.19,1.89-1.02,1.89h-3.44Zm5.35-2.79a12.248,12.248,0,0,1,3.26,3.65l1.25-.64a12.817,12.817,0,0,0-3.35-3.6Zm16.06-9.57-1.08.43a22.819,22.819,0,0,1,1.78,2.91l1.11-.48A27.277,27.277,0,0,0,1343.45,1680.44Zm2.44-.92-1.06.47a20,20,0,0,1,1.83,2.84l1.1-.51A27.23,27.23,0,0,0,1345.89,1679.52Zm-9.58-.54a8.279,8.279,0,0,1,.17,1.8c0,1.89-.19,6.39-0.19,9.03,0,2.9,1.86,3.98,4.55,3.98a9.459,9.459,0,0,0,7.81-3.92l-1.04-1.25a7.871,7.871,0,0,1-6.72,3.69c-1.74,0-3.08-.68-3.08-2.62,0-2.67.15-6.9,0.23-8.91,0.03-.58.09-1.19,0.18-1.78Zm23.17,13.28c-1.4,0-2.48-.5-2.48-1.39a1.315,1.315,0,0,1,1.49-1.09,2.443,2.443,0,0,1,2.48,2.37A9.83,9.83,0,0,1,1359.48,1692.26Zm3.86-12.94a7.41,7.41,0,0,1-1.03.14c-0.98.09-5.43,0.22-6.39,0.22a12.186,12.186,0,0,1-1.33-.05l0.04,1.49a10.175,10.175,0,0,1,1.27-.11c0.96-.05,4.65-0.21,5.64-0.25-0.93.79-3.26,2.66-4.3,3.49-1.09.86-3.5,2.77-5.05,4l1.1,1.06c2.38-2.31,4.09-3.55,7.17-3.55,2.36,0,4.22,1.28,4.22,3.03a3.128,3.128,0,0,1-2.33,3.02,3.631,3.631,0,0,0-3.86-3.15,2.617,2.617,0,0,0-2.89,2.34c0,1.48,1.57,2.55,4.12,2.55,3.96,0,6.47-1.87,6.47-4.75,0-2.41-2.25-4.21-5.37-4.21a8.419,8.419,0,0,0-2.54.38c1.44-1.15,3.96-3.26,4.88-3.92,0.29-.2.7-0.47,1.05-0.69Zm18.48,1.51a7.358,7.358,0,0,1-1.34.85c-1.02.55-3.05,1.49-4.81,2.5a40.182,40.182,0,0,1-2.51-5.27l-1.5.57a58.6,58.6,0,0,0,2.72,5.49c-2,1.33-3.23,2.79-3.23,4.63,0,2.66,2.55,3.67,6.07,3.67a39,39,0,0,0,5.92-.43v-1.62a28.858,28.858,0,0,1-5.99.61c-2.95,0-4.43-.92-4.43-2.4,0-1.35,1.04-2.52,2.78-3.6,1.84-1.15,4.45-2.32,5.7-2.93,0.54-.27,1.02-0.5,1.43-0.76Zm15.79,7.15h-4.58v-4.11h4.58v4.11Zm-5.92-5.31v6.49h7.3v-6.49h-7.3Zm-2.72,9.32v-12.11h12.77v12.11h-12.77Zm-1.42-13.44v15.67h1.42v-0.97h12.77v0.97h1.49v-15.67h-15.68Zm22.46,1.94a14.8,14.8,0,0,1,1.13,2.41l1.27-.4a12.045,12.045,0,0,0-1-2.01h3.27v-1.15h-4.75c0.23-.49.45-0.97,0.64-1.48l-1.34-.34a12.2,12.2,0,0,1-2.95,4.7,9.074,9.074,0,0,1,1.15.73,14.007,14.007,0,0,0,1.86-2.46h0.72Zm9.21,9.25v2.74h-8.19v-2.74h8.19Zm-9.54,4.48h1.35v-0.58h8.19v0.53h1.38v-5.58h-10.92v5.63Zm2.12-8.33a17.046,17.046,0,0,0,3.26-2.79,18.015,18.015,0,0,0,3.5,2.79h-6.76Zm3.47-3.96a12.276,12.276,0,0,0,1.21-1.44h1.43a10.457,10.457,0,0,1,1.48,2.37l1.31-.43a12.241,12.241,0,0,0-1.22-1.94h4.02v-1.15h-6.29a11.228,11.228,0,0,0,.69-1.5l-1.37-.32a9.357,9.357,0,0,1-2.87,4.05c0.17,0.09.41,0.23,0.64,0.38a19.886,19.886,0,0,1-8,5.4,4.955,4.955,0,0,1,.79,1.06,25.85,25.85,0,0,0,4.18-2.18v0.79h7.78v-0.83a24.949,24.949,0,0,0,4.07,1.98,6.308,6.308,0,0,1,.85-1.13,20.546,20.546,0,0,1-8.31-5.11h-0.39Z" transform="translate(-1090.94 -1601.84)"/>
  <path id="広い" class="cls-5" d="M1328.49,1639.86h30.18v-4.56H1343.5v-5.04h-5.22v5.04h-14.79v10.07c0,5.64-.3,13.84-3.91,19.48a19.342,19.342,0,0,1,4.28,2.64c3.96-6.04,4.63-15.8,4.63-22.12v-5.51Zm31.11,25.59c-1.52-4.2-5.47-10.24-9.08-14.8l-4.67,1.92a74.823,74.823,0,0,1,4.92,7.4c-4.33.24-8.74,0.44-12.74,0.6a170.558,170.558,0,0,0,5.84-17.76l-5.71-1.08a118.52,118.52,0,0,1-5.51,19.08c-1.81.04-3.45,0.12-4.92,0.16l0.46,4.92c6.52-.36,15.94-1,24.81-1.68a24.169,24.169,0,0,1,1.43,3.44Zm14.9-29.83-6.39-.08a22.051,22.051,0,0,1,.29,4c0,2.43.09,7.03,0.47,10.67,1.17,10.64,5.17,14.56,9.71,14.56,3.36,0,5.97-2.44,8.74-9.32l-4.2-4.8c-0.8,3.12-2.44,7.76-4.42,7.76-2.6,0-3.87-3.88-4.45-9.6a80.742,80.742,0,0,1-.26-8.39A29.326,29.326,0,0,1,1374.5,1635.62Zm20.81,0.84-5.3,1.68c4.54,4.87,6.77,14.19,7.4,20.55l5.51-2C1402.46,1650.61,1399.26,1641.06,1395.31,1636.46Z" transform="translate(-1090.94 -1601.84)"/>
</svg>
