<svg id="hk_about_balloon.svg" xmlns="http://www.w3.org/2000/svg" width="138.969" height="141.031" viewBox="0 0 138.969 141.031">
  <defs>
    <style>
      .cls-1 {
        fill: #fff;
      }

      .cls-1, .cls-2, .cls-3 {
        fill-rule: evenodd;
      }

      .cls-2 {
        fill: #2fa6b1;
      }

      .cls-3 {
        fill: #171717;
      }
    </style>
  </defs>
  <path id="シェイプ_2" data-name="シェイプ 2" class="cls-1" d="M612.139,802.05l8.4,20.732L601,810.88A69.145,69.145,0,0,1,509.182,795a70.33,70.33,0,0,1,11.737-98.265,69.14,69.14,0,0,1,97.556,11.79A70.363,70.363,0,0,1,612.139,802.05Z" transform="translate(-494.344 -681.75)"/>
  <path id="_80.9_" data-name="80.9%※" class="cls-2" d="M523.205,756.1a10.72,10.72,0,0,0,4.838-1.162,10.039,10.039,0,0,0,3.789-3.236,7.81,7.81,0,0,0,1.46-4.6,6.729,6.729,0,0,0-1.613-4.549,26.666,26.666,0,0,0-4.993-4.2,0.722,0.722,0,0,1-.409-0.4,1.379,1.379,0,0,1,.666-0.657q1.331-.96,2.713-2.123a11.351,11.351,0,0,0,1.972-2.149,4.688,4.688,0,0,0,.742-2.7,5.72,5.72,0,0,0-1.152-3.514,7.7,7.7,0,0,0-3.047-2.4,9.439,9.439,0,0,0-3.942-.86,10.871,10.871,0,0,0-4.429.961,9.419,9.419,0,0,0-3.533,2.6,5.483,5.483,0,0,0-1.357,3.564,7.348,7.348,0,0,0,.666,3.21,8.653,8.653,0,0,0,1.638,2.376q0.972,0.985,2.765,2.5l0.87,0.708a1.016,1.016,0,0,1,.41.4,0.431,0.431,0,0,1-.256.253,36.7,36.7,0,0,0-3.328,2.023,9.735,9.735,0,0,0-2.458,2.527,6.193,6.193,0,0,0-1.075,3.59,6.821,6.821,0,0,0,1.254,4.044,8.578,8.578,0,0,0,3.354,2.78,10.134,10.134,0,0,0,4.455,1.011h0Zm2.355-18.806a0.577,0.577,0,0,1-.717-0.152q-0.256-.2-2.1-1.567a26.74,26.74,0,0,1-2.279-1.794,4.924,4.924,0,0,1-1.177-1.669,6.057,6.057,0,0,1-.435-2.452,4.3,4.3,0,0,1,.768-2.451,5.549,5.549,0,0,1,1.971-1.8,4.944,4.944,0,0,1,2.381-.657,3.928,3.928,0,0,1,3.3,1.491,5.9,5.9,0,0,1,1.152,3.716,12.7,12.7,0,0,1-.614,4.246,7.16,7.16,0,0,1-2.253,3.084h0Zm-1.638,17.34a4.84,4.84,0,0,1-4.122-2.174,8.348,8.348,0,0,1-1.562-5,7.619,7.619,0,0,1,.743-3.641,9.526,9.526,0,0,1,2.534-2.78,1.252,1.252,0,0,1,.614-0.3,2.008,2.008,0,0,1,1.024.5q6.042,4.1,6.042,7.887a5.507,5.507,0,0,1-1.51,3.893,4.939,4.939,0,0,1-3.763,1.617h0Zm24.73,1.466a8.1,8.1,0,0,0,6.016-2.477,14.974,14.974,0,0,0,3.584-6.319,27.311,27.311,0,0,0,1.152-7.887,24.813,24.813,0,0,0-1.152-7.532,14.606,14.606,0,0,0-3.481-5.991,7.613,7.613,0,0,0-5.607-2.351,8.138,8.138,0,0,0-6.016,2.452,14.787,14.787,0,0,0-3.584,6.244,26.971,26.971,0,0,0-1.153,7.886,25.219,25.219,0,0,0,1.153,7.608,14.593,14.593,0,0,0,3.481,6.017,7.609,7.609,0,0,0,5.607,2.35h0Zm0.87-1.314a4.464,4.464,0,0,1-3.737-2.224,16.437,16.437,0,0,1-2.33-5.814,34.752,34.752,0,0,1-.794-7.533,33.025,33.025,0,0,1,1.332-10.262q1.33-3.993,4.2-3.994a4.6,4.6,0,0,1,3.789,2.2,15.864,15.864,0,0,1,2.407,5.713,32.823,32.823,0,0,1,.819,7.456,32.392,32.392,0,0,1-1.408,10.338q-1.41,4.122-4.276,4.121h0Zm14.142,1.116a2.034,2.034,0,0,0,2.028-2,1.919,1.919,0,0,0-.59-1.419,2.042,2.042,0,0,0-2.857,0,1.939,1.939,0,0,0,0,2.82,1.953,1.953,0,0,0,1.419.6h0Zm6.12,0.619a12.312,12.312,0,0,0,4.774-1.128,13.053,13.053,0,0,0,4.516-3.167,24.533,24.533,0,0,0,4-5.533,12.938,12.938,0,0,0,1.308-5.86,8.55,8.55,0,0,0-1.013-3.986A8.882,8.882,0,0,0,580.7,733.7a5.728,5.728,0,0,0-3.392-1.2,7.1,7.1,0,0,0-3.871,1.092,8.139,8.139,0,0,0-2.728,2.784,6.6,6.6,0,0,0-1,3.367,3.907,3.907,0,0,0,.756,2.329,5.283,5.283,0,0,0,1.935,1.657,5.375,5.375,0,0,0,2.47.6,4.855,4.855,0,0,0,1.88-.4,7.661,7.661,0,0,0,1.512-.8,4.185,4.185,0,0,0,1.216-1.274,0.273,0.273,0,0,0-.221-0.4h-0.037c-0.2.1-.442,0.224-0.737,0.382a5.85,5.85,0,0,1-.94.4,4.119,4.119,0,0,1-1.272.164,3,3,0,0,1-1.843-.673,4.932,4.932,0,0,1-1.42-1.729,4.713,4.713,0,0,1-.534-2.148,4.463,4.463,0,0,1,.424-1.874,4.009,4.009,0,0,1,1.235-1.547,3.123,3.123,0,0,1,1.954-.619,3.648,3.648,0,0,1,2.488,1.11,8.206,8.206,0,0,1,1.936,2.839,8.8,8.8,0,0,1,.737,3.476,14.716,14.716,0,0,1-.756,4.841,15.509,15.509,0,0,1-2.525,4.441,17.065,17.065,0,0,1-4.148,3.8,7.864,7.864,0,0,1-4.036,1.546,0.687,0.687,0,0,0-.369.092,0.3,0.3,0,0,0-.147.273c0,0.194.171,0.291,0.516,0.291h0Zm23.715-9.239a3.65,3.65,0,0,0,2.39-.833,5.289,5.289,0,0,0,1.546-2.143,7.294,7.294,0,0,0,.531-2.76,6.6,6.6,0,0,0-.469-2.467,4.775,4.775,0,0,0-1.343-1.912,3.134,3.134,0,0,0-2.093-.74,3.855,3.855,0,0,0-2.373.771,5.053,5.053,0,0,0-1.593,2.035,6.458,6.458,0,0,0-.562,2.653,7.43,7.43,0,0,0,.453,2.59,4.8,4.8,0,0,0,1.358,2.02,3.18,3.18,0,0,0,2.155.786h0Zm0.344-.678a1.9,1.9,0,0,1-1.952-1.434,11.49,11.49,0,0,1-.484-3.624,8.419,8.419,0,0,1,.5-3.084,1.813,1.813,0,0,1,1.812-1.264,1.857,1.857,0,0,1,1.89,1.357,10.111,10.111,0,0,1,.484,3.361,10.894,10.894,0,0,1-.438,3.362,1.754,1.754,0,0,1-1.811,1.326h0Zm10.9-11.194-13.68,21.432a0.122,0.122,0,0,0-.031.092,0.33,0.33,0,0,0,.172.247,0.606,0.606,0,0,0,.359.123,2.061,2.061,0,0,0,.671-0.092,0.912,0.912,0,0,0,.453-0.37l13.68-21.432a0.178,0.178,0,0,0,.032-0.124,0.362,0.362,0,0,0-.141-0.277,0.448,0.448,0,0,0-.3-0.124,2.166,2.166,0,0,0-.734.108,0.943,0.943,0,0,0-.484.417h0Zm-0.312,20.506a3.652,3.652,0,0,0,2.389-.832,5.271,5.271,0,0,0,1.546-2.143,7.282,7.282,0,0,0,.531-2.76,6.587,6.587,0,0,0-.468-2.467,4.788,4.788,0,0,0-1.343-1.912,3.131,3.131,0,0,0-2.093-.74,3.86,3.86,0,0,0-2.374.771,5.046,5.046,0,0,0-1.593,2.035,6.47,6.47,0,0,0-.562,2.652,7.449,7.449,0,0,0,.453,2.59,4.808,4.808,0,0,0,1.359,2.02,3.173,3.173,0,0,0,2.155.786h0Zm0.343-.678a1.905,1.905,0,0,1-1.952-1.434,11.484,11.484,0,0,1-.484-3.623,8.414,8.414,0,0,1,.5-3.084,1.812,1.812,0,0,1,1.812-1.264,1.855,1.855,0,0,1,1.889,1.356,10.1,10.1,0,0,1,.484,3.362,10.921,10.921,0,0,1-.437,3.361,1.756,1.756,0,0,1-1.812,1.326h0Zm12.052-19.621a0.851,0.851,0,1,0-.851.84A0.852,0.852,0,0,0,616.826,735.613Zm-4.6-.829-0.329.325,3.744,3.7-3.755,3.708,0.329,0.325,3.755-3.708,3.744,3.7,0.329-.325-3.744-3.7,3.744-3.7-0.329-.325-3.744,3.7Zm0.511,3.181a0.84,0.84,0,1,0,.851.84A0.852,0.852,0,0,0,612.742,737.965Zm6.467,1.68a0.84,0.84,0,1,0-.851-0.84A0.851,0.851,0,0,0,619.209,739.645ZM615.124,742a0.851,0.851,0,1,0,.851-0.841A0.852,0.852,0,0,0,615.124,742Z" transform="translate(-494.344 -681.75)"/>
  <path id="の女性が" class="cls-3" d="M530.754,780.879c-0.636,0-1.324-.845-1.324-2.569a5.349,5.349,0,0,1,4.316-4.948,27.371,27.371,0,0,1-.911,4.138C532.147,779.81,531.459,780.879,530.754,780.879Zm4.678,3.81c4.3-.655,6.5-3.207,6.5-6.793a6.507,6.507,0,0,0-6.879-6.672,7.6,7.6,0,0,0-7.843,7.31c0,2.879,1.6,4.966,3.474,4.966,1.858,0,3.337-2.1,4.351-5.552a37.182,37.182,0,0,0,1.015-4.638,4.223,4.223,0,0,1,3.56,4.517,4.618,4.618,0,0,1-3.869,4.569c-0.448.1-.929,0.19-1.583,0.276Zm21.087-9.344a11.039,11.039,0,0,1-2.115,4.706c-1.29-.569-2.58-1.069-3.749-1.482,0.43-1.018.894-2.1,1.341-3.224h4.523Zm4.885,0v-2.086h-8.565c0.481-1.19.929-2.38,1.341-3.483l-2.253-.38c-0.413,1.19-.911,2.518-1.427,3.863h-4.7v2.086h3.853c-0.757,1.844-1.531,3.586-2.184,4.93l2.064,0.759,0.292-.638q1.368,0.543,2.786,1.19a16.216,16.216,0,0,1-6.673,1.879,6.945,6.945,0,0,1,1.084,2.052c3.474-.517,6.019-1.345,7.894-2.811a29.237,29.237,0,0,1,4.644,2.862l1.565-1.93a31.188,31.188,0,0,0-4.575-2.621,14.365,14.365,0,0,0,2.3-5.672H561.4Zm14.982,7.637v-3.448h3.147V777.62h-3.147v-2.827h3.508v-1.931h-3.508v-3.379h-2.047v3.379h-1.376c0.172-.776.31-1.586,0.43-2.4l-2-.276a20.9,20.9,0,0,1-.912,4.206,19.626,19.626,0,0,0-.945-2.172l-1,.414v-3.259H566.5V772.9l-1.444-.207a20.559,20.559,0,0,1-.843,4.483l1.513,0.552a21.982,21.982,0,0,0,.774-4.569v12.327h2.047V773.707a12.135,12.135,0,0,1,.654,1.982l0.98-.448c-0.172.362-.344,0.69-0.516,1a18.094,18.094,0,0,1,1.823.931,11.812,11.812,0,0,0,.963-2.379h1.892v2.827H571.02v1.914h3.319v3.448h-4.592v1.949h10.7v-1.949h-4.059ZM599.675,771.4a20.573,20.573,0,0,0-1.393-2.344l-1.359.569A17.26,17.26,0,0,1,598.316,772Zm-11.558-1.12a18.936,18.936,0,0,1-.361,3.62c-0.86.069-1.669,0.121-2.2,0.138a15.545,15.545,0,0,1-1.806,0l0.19,2.31c0.533-.086,1.41-0.206,1.891-0.258,0.327-.052.86-0.121,1.462-0.19a25.352,25.352,0,0,1-3.422,7.983l2.218,0.9a37.027,37.027,0,0,0,3.475-9.12c0.481-.035.894-0.069,1.169-0.069,1.066,0,1.651.19,1.651,1.552a13.05,13.05,0,0,1-.688,4.672,1.251,1.251,0,0,1-1.272.741,9.9,9.9,0,0,1-2.1-.362l0.379,2.259a9.61,9.61,0,0,0,2.029.241,2.721,2.721,0,0,0,2.8-1.569,16.733,16.733,0,0,0,.963-6.224c0-2.448-1.273-3.258-3.079-3.258-0.344,0-.86.034-1.427,0.069,0.12-.621.258-1.241,0.361-1.759,0.086-.431.189-0.965,0.292-1.414Zm9.511,1.913c-0.344-.637-0.946-1.723-1.376-2.361l-1.359.569a18.945,18.945,0,0,1,1.17,2.034l-1.582.672a19.369,19.369,0,0,1,2.872,6.431l2.167-1.017a34.019,34.019,0,0,0-2.769-5.948Z" transform="translate(-494.344 -681.75)"/>
</svg>
