<svg id="a" xmlns="http://www.w3.org/2000/svg" width="80" height="80" viewBox="0 0 80 80"><path d="M2.85,15.1c1.57,0,2.85-1.28,2.85-2.85v-6.55h6.4c1.57,0,2.85-1.28,2.85-2.85,0-1.57-1.28-2.85-2.85-2.85H2.85C1.28,0,0,1.28,0,2.85v9.4C0,13.82,1.28,15.1,2.85,15.1ZM77.15,0h-9.25c-1.57,0-2.85,1.28-2.85,2.85s1.28,2.85,2.85,2.85h6.4v6.55c0,1.57,1.28,2.85,2.85,2.85s2.85-1.28,2.85-2.85V2.85c0-1.57-1.28-2.85-2.85-2.85ZM12.1,74.28h-6.4v-6.55c0-1.57-1.28-2.85-2.85-2.85s-2.85,1.28-2.85,2.85v9.4c0,1.57,1.28,2.85,2.85,2.85h9.25c1.57,0,2.85-1.28,2.85-2.85s-1.28-2.85-2.85-2.85ZM77.15,64.88c-1.57,0-2.85,1.28-2.85,2.85v6.55h-6.4c-1.57,0-2.85,1.28-2.85,2.85s1.28,2.85,2.85,2.85h9.25c1.57,0,2.85-1.28,2.85-2.85v-9.4c0-1.57-1.28-2.85-2.85-2.85ZM73.67,60.94c.87-.63,1.37-1.22,1.38-2.4V21.5c0-1.01-.54-1.96-1.42-2.47L41.43.38c-.88-.51-1.98-.51-2.86,0L6.36,19.04c-.88.51-1.42,1.45-1.42,2.47v37c0,1.03.56,1.98,1.45,2.48l32.19,18.64c.43.25.94.38,1.43.38s1-.14,1.43-.38l32.18-18.64.06-.04ZM37.15,72.2l-23.64-13.69,18.66-10.7c.66-.38,1.13-.99,1.33-1.73.2-.74.1-1.5-.28-2.16-.38-.66-.99-1.14-1.73-1.33-.74-.2-1.5-.1-2.16.28l-18.7,10.71v-27.15l26.51,15.22v30.55ZM40,36.71l-26.5-15.22,26.5-15.35,26.5,15.35-26.5,15.22ZM46.5,46.08c.2.73.67,1.35,1.33,1.73l18.66,10.7-23.64,13.69v-30.55l26.51-15.22v27.15s-18.7-10.71-18.7-10.71c-1.36-.78-3.11-.31-3.89,1.05-.38.66-.48,1.43-.28,2.16Z" fill="#51f1eb" stroke-width="0"/></svg>