<svg id="a" xmlns="http://www.w3.org/2000/svg" width="108" height="80" viewBox="0 0 108 80"><path d="M98.48,30.86c-1.44-.99-3.41-.63-4.4.81-.99,1.44-.63,3.4.81,4.39,3.09,2.13,6.78,5.53,6.78,9.7,0,3.78-3.15,7.69-8.88,11.02-6.26,3.64-15.21,6.35-25.21,7.62-1.73.22-2.96,1.8-2.74,3.53.2,1.6,1.57,2.76,3.14,2.76.13,0,.27,0,.4-.02,10.98-1.4,20.52-4.31,27.6-8.43,7.86-4.57,12.02-10.27,12.02-16.48,0-5.47-3.29-10.63-9.52-14.91ZM44.79,57.75c-1.24-1.23-3.24-1.23-4.48,0-1.24,1.23-1.24,3.23,0,4.47l2.47,2.46c-9.45-.98-18.04-3.17-24.69-6.37-7.48-3.59-11.76-8.16-11.76-12.55,0-3.72,3.07-7.58,8.64-10.88,1.5-.89,2-2.83,1.11-4.33-.89-1.5-2.83-2-4.34-1.11C2.04,35.19,0,41.49,0,45.77c0,7.01,5.45,13.49,15.35,18.24,7.68,3.69,17.62,6.16,28.45,7.12l-3.48,3.48c-1.24,1.23-1.24,3.23,0,4.47.62.62,1.43.92,2.24.92s1.62-.31,2.24-.92l8.44-8.43c1.24-1.23,1.24-3.24,0-4.47l-8.44-8.43ZM29.45,43.04c-1.8,0-3.57-.44-3.57-2.32,0-1.52-.64-2.08-3.21-2.08-2.2,0-2.97.48-2.97,2.28,0,3.36,2.64,7.56,9.54,7.56,5.61,0,10.14-2.48,10.14-9.05v-.76c0-3.24-1.72-5-4.09-5.88,2-.92,3.09-3.64,3.09-6.56,0-5.4-3.85-7.24-8.94-7.24-6.89,0-9.14,4.04-9.14,7.16,0,1.92.36,2.52,3.25,2.52,2.32,0,2.93-.92,2.93-2.28,0-1.56,1-2.04,2.97-2.04,1.64,0,2.97.56,2.97,2.88,0,3.24-1.6,3.44-3.13,3.44-1.36,0-1.8,1.2-1.8,2.4s.44,2.4,1.8,2.4c2.2,0,3.85.52,3.85,3.2v.76c0,2.6-.96,3.6-3.69,3.6ZM54.06,24.43c1.88,0,3.49.8,3.49,2.32,0,1.84,1.52,2.28,3.25,2.28,2,0,2.93-.6,2.93-2.52,0-3.32-2.69-7.52-9.46-7.52-5.77,0-10.22,2.56-10.22,9.44v10.61c0,6.88,4.33,9.45,9.86,9.45s9.82-2.56,9.82-9.45v-.36c0-6.41-3.85-8.41-8.42-8.41-1.92,0-3.73.36-5.01,1.76v-3.6c0-2.76,1.4-4,3.77-4ZM53.86,35.08c2.29,0,3.61,1.12,3.61,4.04v.36c0,2.76-1.32,3.96-3.57,3.96s-3.61-1.2-3.61-3.96v-.72c0-2.64,1.4-3.68,3.57-3.68ZM78.39,48.49c5.53,0,9.86-2.56,9.86-9.45v-10.61c0-6.88-4.33-9.44-9.86-9.44s-9.82,2.56-9.82,9.44v10.61c0,6.88,4.29,9.45,9.82,9.45ZM74.82,28.43c0-2.76,1.32-4,3.57-4s3.61,1.24,3.61,4v10.61c0,2.76-1.36,4-3.61,4s-3.57-1.24-3.57-4v-10.61ZM95.84,18.96c5.23,0,9.49-4.25,9.49-9.48S101.07,0,95.84,0s-9.49,4.25-9.49,9.48,4.26,9.48,9.49,9.48ZM95.84,6.32c1.74,0,3.16,1.42,3.16,3.16s-1.42,3.16-3.16,3.16-3.16-1.42-3.16-3.16,1.42-3.16,3.16-3.16Z" fill="#589fff" stroke-width="0"/></svg>