<svg xmlns="http://www.w3.org/2000/svg" width="144" height="144" viewBox="0 0 144 144"><path d="M92.29,77.7h-47.38c-.64,0-1.25.29-1.66.78-.41.5-.57,1.15-.45,1.77,1.22,6.15,4.36,11.76,8.84,15.81,4.04,3.65,9.03,5.9,14.26,6.45v4.84c0,1.18.96,2.14,2.14,2.14h24.25c1.18,0,2.14-.96,2.14-2.14v-27.52c0-1.18-.96-2.14-2.14-2.14ZM90.14,105.22h-19.96v-4.71c0-1.17-.94-2.12-2.1-2.14-9.42-.17-17.51-6.79-20.43-16.39h42.5v23.24Z" fill="#1e237f" stroke-width="0"/><path d="M101.72,36.67c-.66-1.05-1.7-1.78-2.9-2.05h0c-2.5-.57-5,1.01-5.56,3.5l-6.57,28.95h-40.47c-2.56,0-4.65,2.08-4.65,4.64s2.09,4.64,4.65,4.64h43.95c.21,0,.38-.03.53-.06,2.06-.13,3.78-1.56,4.24-3.56l7.39-32.57c.27-1.21.06-2.45-.6-3.5ZM98.14,39.23l-7.39,32.57c-.04.18-.26.23-.36.23-.07,0-.13,0-.2.01-.09,0-.18.02-.25.04h-43.73c-.2,0-.37-.17-.37-.37s.17-.37.37-.37h42.18c1,0,1.87-.69,2.09-1.67l6.95-30.62c.04-.19.25-.32.44-.27.12.03.19.1.23.16.04.06.08.16.05.27Z" fill="#1e237f" stroke-width="0"/><path d="M67.02,50.79c-1.18-.01-2.15.93-2.16,2.12-.01,1.18.94,2.15,2.12,2.16h.02c1.17,0,2.13-.94,2.14-2.12.01-1.18-.94-2.15-2.12-2.16Z" fill="#1e237f" stroke-width="0"/><path d="M66.92,60.99c-1.18-.01-2.15.94-2.16,2.12-.01,1.18.94,2.15,2.12,2.16h.02c1.18,0,2.13-.94,2.14-2.12.01-1.18-.94-2.15-2.12-2.16Z" fill="#1e237f" stroke-width="0"/><path d="M69.09,58.05c.01-1.18-.94-2.15-2.12-2.16-1.18-.01-2.15.94-2.17,2.12h0c-.01,1.18.94,2.15,2.12,2.16h.02c1.18,0,2.13-.94,2.14-2.12h0Z" fill="#1e237f" stroke-width="0"/><path d="M58.16,47.42c.44,0,.88-.13,1.26-.41.96-.7,1.16-2.04.47-2.99-.7-.95-2.04-1.16-3-.46-.95.7-1.16,2.04-.46,2.99.42.57,1.07.88,1.73.88Z" fill="#1e237f" stroke-width="0"/><path d="M55.58,51.74c.06,0,.11,0,.17,0,1.11,0,2.04-.85,2.13-1.97h0c.09-1.18-.78-2.21-1.96-2.3-1.18-.09-2.21.78-2.31,1.96-.09,1.18.78,2.21,1.96,2.3Z" fill="#1e237f" stroke-width="0"/><path d="M62.34,46.52c.22.07.45.1.67.1.9,0,1.74-.57,2.04-1.47.37-1.12-.24-2.33-1.37-2.7-1.12-.37-2.33.24-2.7,1.37-.37,1.12.24,2.33,1.37,2.7Z" fill="#1e237f" stroke-width="0"/><path d="M64.61,48.68c.34.83,1.14,1.34,1.99,1.34.27,0,.53-.05.8-.15,1.1-.44,1.63-1.69,1.19-2.78-.44-1.1-1.69-1.63-2.79-1.19-1.1.44-1.63,1.68-1.19,2.78Z" fill="#1e237f" stroke-width="0"/><path d="M75.8,49.77c.09,1.12,1.03,1.97,2.13,1.97.06,0,.11,0,.17,0,1.18-.09,2.06-1.13,1.96-2.3-.09-1.18-1.13-2.06-2.31-1.96-1.18.09-2.06,1.12-1.97,2.3Z" fill="#1e237f" stroke-width="0"/><path d="M74.26,47.01c.38.28.83.41,1.26.41.66,0,1.31-.3,1.73-.88.7-.95.49-2.29-.46-2.99-.96-.7-2.3-.49-3,.46-.7.95-.49,2.29.46,2.99Z" fill="#1e237f" stroke-width="0"/><path d="M70.68,46.62c.22,0,.45-.03.67-.1,1.13-.37,1.74-1.58,1.37-2.7-.37-1.12-1.58-1.73-2.7-1.37-1.12.37-1.74,1.58-1.37,2.7.3.9,1.13,1.47,2.03,1.47Z" fill="#1e237f" stroke-width="0"/><path d="M72,0c39.76,0,72,32.24,72,72s-32.24,72-72,72S0,111.77,0,72,32.24,0,72,0Z" fill="none" fill-rule="evenodd" stroke-width="0"/></svg>