<svg xmlns="http://www.w3.org/2000/svg" width="144" height="144" viewBox="0 0 144 144"><path d="M72,0c39.76,0,72,32.24,72,72s-32.24,72-72,72S0,111.76,0,72,32.24,0,72,0Z" fill="none" fill-rule="evenodd" stroke-width="0"/><path d="M99.27,34.5h-54.54c-5.65,0-10.23,4.58-10.23,10.23v54.54c0,5.65,4.58,10.23,10.23,10.23h54.54c5.65,0,10.23-4.58,10.23-10.23v-54.54c0-5.65-4.58-10.23-10.23-10.23ZM105.88,99.27c0,3.65-2.96,6.61-6.61,6.61h-54.54c-3.65,0-6.61-2.97-6.61-6.61v-54.54c0-3.64,2.97-6.61,6.61-6.61h54.54c3.65,0,6.61,2.97,6.61,6.61v54.54Z" fill="#1e237f" stroke-width="0"/><path d="M73.92,91.82v-14.14c-.08-2.53-3.76-2.52-3.83,0v14.14c-1.5.72-2.54,2.25-2.54,4.03.24,5.93,8.68,5.92,8.92,0,0-1.78-1.04-3.31-2.55-4.03Z" fill="#1e237f" stroke-width="0"/><path d="M80.38,87.77h6.4l-3.2-3.2-3.2,3.2Z" fill="#1e237f" stroke-width="0"/><path d="M60.42,87.77l3.2-3.2h-6.4l3.2,3.2Z" fill="#1e237f" stroke-width="0"/><path d="M52.62,90.11v2.1c3.46,2.57,1.65,8.17-2.72,8.17-4.36-.01-6.17-5.61-2.71-8.17,0,0,0-2.1,0-2.1-2.15,1.01-3.63,3.2-3.63,5.73,0,3.51,2.84,6.35,6.35,6.35,6.8-.09,8.75-9.17,2.71-12.09Z" fill="#1e237f" stroke-width="0"/><path d="M94.1,89.5c-3.51,0-6.35,2.84-6.35,6.35.33,8.42,12.36,8.42,12.7,0,0-3.5-2.84-6.35-6.35-6.35ZM94.1,100.38c-2.51,0-4.54-2.04-4.54-4.54.25-6.02,8.83-6.02,9.08,0,0,2.5-2.03,4.54-4.54,4.54Z" fill="#1e237f" stroke-width="0"/><path d="M96.1,95.12h-1.28v-2.37c0-.4-.32-.72-.72-.72s-.72.32-.72.72v3.81h2.73c.95-.02.95-1.43,0-1.45Z" fill="#1e237f" stroke-width="0"/><path d="M49.9,95.84c.5,0,.9-.41.9-.9v-4.54c0-.5-.41-.9-.9-.9-.49,0-.89.39-.9.87,0,.04,0,4.45,0,4.57-.03.41.39.93.9.91Z" fill="#1e237f" stroke-width="0"/><path d="M82.18,55.63c-.05,2.01,2.56,3.07,3.94,1.63.9-.85.89-2.42,0-3.28-1.4-1.48-3.98-.36-3.93,1.65ZM84.51,56.66c-1.39-.02-1.37-2.06,0-2.09,1.31,0,1.34,2.1,0,2.09Z" fill="#1e237f" stroke-width="0"/><path d="M96.13,65.17c1.5-.7,2.35-2.07,2.42-3.72,0,0-2.89,0-2.89,0-.04,1.37-.76,1.96-2.1,1.97-1.98-.04-2.1-1.59-2.15-3.59v-.85c.02-1.19.19-2.05.53-2.59.52-1.04,2.48-1,3.18-.33.35.32.53.85.56,1.58h2.9c-.12-1.35-.63-2.42-1.52-3.19-.89-.77-2.07-1.16-3.53-1.16-3.3-.05-5.16,2.73-5.08,5.88-.09,1.92.33,3.88,1.37,4.97,1.35,1.69,4.38,1.95,6.31,1.02Z" fill="#1e237f" stroke-width="0"/><path d="M58.92,65.34v-1.94c0-.18.08-.27.24-.27h1.06c.46,0,.87-.17,1.21-.52.34-.34.52-.75.52-1.21v-1.24c0-.47-.17-.87-.52-1.21-.34-.34-.75-.52-1.21-.52h-1.06c-.16,0-.24-.09-.24-.27v-11.49c0-.46-.17-.87-.52-1.21-.34-.34-.75-.52-1.21-.52h-2.3c-1.15,0-2.06.46-2.73,1.4l-7.7,10.7c-.67.95-1,1.99-1,3.12v1.24c0,.47.17.87.52,1.21.34.34.75.52,1.21.52h7.7c.18,0,.27.09.27.27v1.94c0,.47.17.87.52,1.21.34.34.75.52,1.21.52h2.3c.46,0,.87-.17,1.21-.52.34-.34.52-.75.52-1.21ZM53.16,58.15c0,.18-.09.27-.27.27h-4.25s-.03-.01-.03-.03v-.03l.03-.03,4.43-6.4s.02-.03.06-.03c.02,0,.03.01.03.03v6.22Z" fill="#1e237f" stroke-width="0"/><path d="M81.96,61.4v-1.24c0-.47-.17-.87-.52-1.21-.34-.34-.75-.52-1.21-.52h-1.06c-.16,0-.24-.09-.24-.27v-11.49c0-.46-.17-.87-.52-1.21-.34-.34-.75-.52-1.21-.52h-2.3c-1.15,0-2.06.46-2.73,1.4l-7.7,10.7c-.67.95-1,1.99-1,3.12v1.24c0,.47.17.87.52,1.21.34.34.75.52,1.21.52h7.7c.18,0,.27.09.27.27v1.94c0,.47.17.87.52,1.21.34.34.75.52,1.21.52h2.3c.47,0,.87-.17,1.21-.52.34-.34.52-.75.52-1.21v-1.94c0-.18.08-.27.24-.27h1.06c.46,0,.87-.17,1.21-.52.34-.34.52-.75.52-1.21ZM73.17,58.15c0,.18-.09.27-.27.27h-4.25s-.03-.01-.03-.03v-.03l.03-.03,4.43-6.4s.02-.03.06-.03c.02,0,.03.01.03.03v6.22Z" fill="#1e237f" stroke-width="0"/></svg>