<svg xmlns="http://www.w3.org/2000/svg" width="144" height="144" viewBox="0 0 144 144"><g id="b"><path d="M109.43,26.12c-.2-.48-.67-.79-1.19-.79H35.76c-.52,0-.99.31-1.19.79-.2.48-.09,1.03.28,1.4l13.8,13.81c.24.24.57.38.91.38h44.87c.34,0,.67-.13.91-.38l13.81-13.81c.37-.37.48-.92.28-1.4ZM105.14,27.9l-11.23,11.23h-43.8l-11.23-11.23h66.27Z" fill="#1e2380" stroke-width="0"/><path d="M94.43,34.55h-44.87c-.57,0-1.04-.46-1.04-1.04s.46-1.04,1.04-1.04h44.87c.57,0,1.04.46,1.04,1.04s-.46,1.04-1.04,1.04Z" fill="#1e2380" stroke-width="0"/><path d="M97.88,31.1h-51.77c-.57,0-1.04-.46-1.04-1.04s.46-1.04,1.04-1.04h51.77c.57,0,1.04.46,1.04,1.04s-.46,1.04-1.04,1.04Z" fill="#1e2380" stroke-width="0"/><path d="M90.98,38h-37.96c-.57,0-1.04-.46-1.04-1.04s.46-1.04,1.04-1.04h37.96c.57,0,1.04.46,1.04,1.04s-.46,1.04-1.04,1.04Z" fill="#1e2380" stroke-width="0"/><path d="M81.34,62.16s-3.11,3.66-9.34,3.66-9.34-3.66-9.34-3.66c0,0,.28,19.79,9.34,19.79s9.34-19.79,9.34-19.79Z" fill="#fff" stroke-width="0"/><path d="M72,82.98c-9.97,0-10.37-19.96-10.38-20.81,0-.44.26-.83.67-.98.41-.15.87-.03,1.15.3.11.13,2.91,3.29,8.55,3.29s8.44-3.16,8.56-3.3c.28-.33.75-.45,1.15-.29.41.15.67.55.67.98-.01.85-.41,20.81-10.38,20.81ZM63.82,64.48c.15,1.87.46,4.63,1.13,7.36,1.01,4.14,3.06,9.07,7.06,9.07s6.05-4.95,7.06-9.1c.66-2.72.97-5.46,1.12-7.33-1.66,1.11-4.38,2.38-8.18,2.38s-6.52-1.26-8.18-2.38Z" fill="#1e2380" stroke-width="0"/><path d="M72,45.79c-3.51,0-6.37,2.86-6.37,6.37,0,.85.69,1.54,1.54,1.54s1.54-.69,1.54-1.54c0-1.82,1.48-3.3,3.3-3.3s3.3,1.48,3.3,3.3-1.48,3.3-3.3,3.3c-.85,0-1.54.69-1.54,1.54v3.45c0,.85.69,1.54,1.54,1.54s1.54-.69,1.54-1.54v-2.1c2.82-.7,4.83-3.23,4.83-6.18,0-3.51-2.86-6.37-6.37-6.37Z" fill="#1e2380" stroke-width="0"/><path d="M90.31,67.88l-17.62-8.81c-.43-.21-.94-.21-1.37,0l-17.62,8.81c-1.38.69-2.07,2.16-1.72,3.67s1.63,2.51,3.17,2.51h33.7c1.54,0,2.82-1.01,3.17-2.51s-.33-2.98-1.72-3.67ZM89.03,70.84c-.03.15-.11.15-.19.15h-33.7c-.07,0-.15,0-.19-.15-.03-.15.03-.18.1-.21l16.93-8.47,16.93,8.47c.07.03.13.07.1.21Z" fill="#1e2380" stroke-width="0"/><path d="M82.07,62.48l-.72-.32c0,13.18-18.69,13.18-18.69,0l-.72.32c-5.71,2.51-10.94,5.98-15.47,10.24l-8.56,8.06c-.53.49-.55,1.32-.04,1.84l8.69,8.98c.5.52,1.34.53,1.85.02l4.92-4.91v29.37c0,.72.58,1.29,1.3,1.29h34.78c.72,0,1.3-.58,1.3-1.29v-29.37l4.92,4.91c.51.51,1.35.5,1.85-.02l8.69-8.98c.5-.52.48-1.35-.04-1.84l-8.56-8.06c-4.54-4.27-9.77-7.73-15.47-10.24Z" fill="#fff" stroke-width="0"/><path d="M107.16,79.67l-8.56-8.06c-4.68-4.4-10.03-7.94-15.91-10.53l-.72-.32c-.48-.21-1.02-.17-1.46.12-.44.28-.7.77-.7,1.29,0,5.73-4.05,8.35-7.81,8.35s-7.81-2.61-7.81-8.35c0-.52-.26-1-.7-1.29-.44-.28-.98-.33-1.46-.12l-.72.32c-5.88,2.59-11.23,6.13-15.91,10.53l-8.56,8.06c-.56.52-.87,1.23-.89,1.99-.02.76.26,1.48.79,2.03l8.69,8.98c.53.55,1.25.86,2.01.86.78.02,1.49-.29,2.03-.83l2.3-2.29v25.67c0,1.56,1.27,2.83,2.83,2.83h34.78c1.56,0,2.83-1.27,2.83-2.83v-25.67l2.3,2.29c.54.53,1.25.83,2.03.83.77,0,1.48-.31,2.01-.86l8.69-8.98c.53-.55.81-1.27.79-2.03s-.33-1.47-.89-1.99ZM53.9,85.3c-.56-.24-1.24-.1-1.67.33l-4.75,4.74-8.35-8.63,8.39-7.89c4.08-3.84,8.72-7,13.79-9.39.41,2.49,1.52,4.63,3.22,6.24,1.98,1.86,4.63,2.89,7.48,2.89s5.5-1.03,7.48-2.89c1.71-1.6,2.81-3.75,3.22-6.24,5.07,2.39,9.71,5.54,13.79,9.39l8.39,7.89-8.35,8.64-4.75-4.74c-.44-.44-1.1-.57-1.67-.33-.58.24-.95.79-.95,1.42v29.13h-34.31v-29.13c0-.62-.37-1.18-.95-1.42Z" fill="#1e2380" stroke-width="0"/><path d="M90.18,113.42h-36.35c-.35,0-.63.28-.63.63s.28.63.63.63h36.35c.35,0,.63-.28.63-.63s-.28-.63-.63-.63Z" fill="#1e2380" stroke-width="0"/><path d="M111.42,56.42c-.13-.39-.4-.7-.77-.89-8.18-4.1-9.51-12.56-9.52-12.64-.06-.41-.27-.77-.6-1.01-.33-.25-.73-.35-1.13-.3-.41.06-.77.27-1.01.59s-.35.73-.3,1.14c.06.41,1.5,10.12,11.19,14.97.22.11.45.16.69.16.59,0,1.11-.33,1.37-.85.18-.37.21-.78.08-1.17Z" fill="#1e2380" stroke-width="0"/><path d="M49.69,45.02c-.85-.06-1.58.56-1.66,1.4-.01.13-.31,3.27-2.05,7.23-2.34,5.33-6.04,9.46-10.99,12.28-.74.42-.99,1.36-.57,2.09.27.48.78.78,1.33.78.27,0,.53-.07.76-.2,6.93-3.95,10.52-9.68,12.31-13.79,1.95-4.46,2.25-7.98,2.26-8.13.07-.84-.56-1.58-1.4-1.66Z" fill="#1e2380" stroke-width="0"/><path d="M109,65.92c-4.95-2.82-8.65-6.95-10.99-12.28-1.74-3.96-2.04-7.1-2.05-7.22-.07-.84-.82-1.47-1.65-1.4-.41.03-.78.22-1.05.54-.27.31-.39.71-.36,1.12.01.15.32,3.66,2.26,8.13,1.79,4.11,5.39,9.84,12.31,13.79.23.13.49.2.76.2.55,0,1.06-.3,1.33-.78.42-.74.16-1.68-.57-2.09Z" fill="#1e2380" stroke-width="0"/><path d="M44.6,41.57c-.83-.11-1.61.47-1.73,1.31-.01.08-1.35,8.56-9.52,12.65-.37.18-.64.5-.77.89-.13.39-.1.81.08,1.17.26.52.79.85,1.37.85.24,0,.47-.05.69-.16,9.69-4.85,11.13-14.56,11.19-14.97.11-.84-.47-1.61-1.31-1.73Z" fill="#1e2380" stroke-width="0"/></g><path d="M72,0c39.76,0,72,32.24,72,72s-32.24,72-72,72S0,111.77,0,72,32.24,0,72,0Z" fill="none" fill-rule="evenodd" stroke-width="0"/></svg>