<svg xmlns="http://www.w3.org/2000/svg" width="144" height="144" viewBox="0 0 144 144"><path d="M72,0c39.76,0,72,32.24,72,72s-32.24,72-72,72S0,111.76,0,72,32.24,0,72,0Z" fill="none" fill-rule="evenodd"/><path d="M44.24,78.43c1.96,1.71,5.85,3.45,10.42,4.65l1.04-3.97c-4.69-1.23-7.65-2.8-8.76-3.77l-2.7,3.09Z" fill="#1e2380"/><path d="M114.68,70.74c0-10.35-18.89-18.45-43-18.45s-43,8.1-43,18.45c0,2.73,1.32,6.76,7.44,10.57,4.13,7.06,18.03,11.98,35.56,11.98s31.43-4.92,35.57-11.98c6.12-3.81,7.43-7.84,7.43-10.57ZM71.68,89.19c-19.31,0-32.76-6.48-32.76-12.3s13.45-12.3,32.76-12.3,32.76,6.48,32.76,12.3-13.46,12.3-32.76,12.3ZM108.37,75.27c-1.72-8.53-16.91-14.78-36.68-14.78s-34.96,6.25-36.68,14.78c-1.28-1.3-2.22-2.83-2.22-4.53,0-6.79,15.98-14.35,38.9-14.35s38.9,7.56,38.9,14.35c0,1.7-.94,3.22-2.22,4.53Z" fill="#1e2380"/></svg>