<svg xmlns="http://www.w3.org/2000/svg" width="144" height="144" viewBox="0 0 144 144"><path d="M52.7,63.83c0-1.15.94-2.09,2.1-2.09h36.41c1.16,0,2.1.93,2.1,2.09s-.94,2.09-2.1,2.09h-36.41c-1.16,0-2.1-.93-2.1-2.09ZM54.8,89.28h36.41c1.16,0,2.1-.93,2.1-2.09s-.94-2.09-2.1-2.09h-36.41c-1.16,0-2.1.93-2.1,2.09s.94,2.09,2.1,2.09ZM54.8,73.61h36.41c1.16,0,2.1-.93,2.1-2.09s-.94-2.09-2.1-2.09h-36.41c-1.16,0-2.1.93-2.1,2.09s.94,2.09,2.1,2.09ZM54.8,81.59h36.41c1.16,0,2.1-.93,2.1-2.09s-.94-2.09-2.1-2.09h-36.41c-1.16,0-2.1.93-2.1,2.09s.94,2.09,2.1,2.09ZM101.71,55.77v39.49h4.2c1.16,0,2.1.93,2.1,2.09s-.94,2.09-2.1,2.09H40.1c-1.16,0-2.1-.93-2.1-2.09s.94-2.09,2.1-2.09h4.2v-39.49h-4.2c-1.16,0-2.1-.93-2.1-2.09v-6.78c0-1.15.94-2.09,2.1-2.09h65.81c1.16,0,2.1.93,2.1,2.09v6.78c0,1.15-.94,2.09-2.1,2.09h-4.2ZM97.51,55.77h-49.01v39.49h49.01v-39.49Z" fill="#1e237f" stroke-width="0"/><path d="M72,0c39.76,0,72,32.24,72,72s-32.24,72-72,72S0,111.77,0,72,32.24,0,72,0Z" fill="none" fill-rule="evenodd" stroke-width="0"/></svg>