<svg xmlns="http://www.w3.org/2000/svg" width="144" height="144" viewBox="0 0 144 144"><path d="M72,0c39.76,0,72,32.24,72,72s-32.24,72-72,72S0,111.77,0,72,32.24,0,72,0Z" fill="none" fill-rule="evenodd" stroke-width="0"/><path d="M110.13,36.29c0-.99-.81-1.79-1.82-1.79H35.69c-1,0-1.82.8-1.82,1.79v59.75c0,.26.06.51.16.73h0s5.3,11.68,5.3,11.68c.29.64.94,1.06,1.66,1.06h62.57c.74,0,1.41-.45,1.68-1.13l4.74-11.65s0,0,0,0v-.03s0,0,0,0c.08-.21.13-.43.13-.67v-59.75ZM37.51,38.08h68.99v56.16H37.51v-56.16ZM73.38,97.82h22.79v3.18h-22.79v-3.18ZM102.33,105.92h-60.17l-3.67-8.1h31.26v4.98c0,.99.81,1.79,1.82,1.79h26.42c1,0,1.82-.8,1.82-1.79v-4.98h5.82l-3.29,8.1Z" fill="#1e237f" stroke-width="0"/><path d="M86.21,100.41h-3.63v-1.99h3.63v1.99Z" fill="#1e237f" stroke-width="0"/><path d="M79.59,100.41h-3.63v-1.99h3.63v1.99Z" fill="#1e237f" stroke-width="0"/><path d="M93.23,100.41h-3.63v-1.99h3.63v1.99Z" fill="#1e237f" stroke-width="0"/><path d="M100.24,51.25h-56.48c-1,0-1.82-.8-1.82-1.79v-6.34c0-.99.81-1.79,1.82-1.79h56.48c1,0,1.82.8,1.82,1.79v6.34c0,.99-.81,1.79-1.82,1.79ZM45.57,47.66h52.85v-2.76h-52.85v2.76Z" fill="#1e237f" stroke-width="0"/><path d="M66.52,78.61h-1.9c-.65-4.36-4.15-7.81-8.57-8.44v-1.89h-2.9v1.89c-4.43.63-7.94,4.08-8.59,8.45h-1.88v2.87h1.87c.63,4.4,4.15,7.88,8.6,8.51v1.82h2.9v-1.83c4.44-.64,7.96-4.12,8.58-8.51h1.89v-2.87ZM61.68,78.61h-1.33c-.54-2.08-2.2-3.71-4.31-4.23v-1.31c2.82.57,5.05,2.77,5.63,5.55ZM54.59,83.11c-1.69,0-3.07-1.36-3.07-3.03s1.38-3.03,3.07-3.03,3.07,1.36,3.07,3.03-1.38,3.03-3.07,3.03ZM53.14,73.06v1.31c-2.12.52-3.78,2.16-4.32,4.24h-1.33c.59-2.79,2.82-4.98,5.65-5.55ZM47.48,81.48h1.32c.53,2.12,2.2,3.78,4.34,4.31v1.31c-2.85-.57-5.1-2.8-5.67-5.61ZM56.05,87.09v-1.31c2.13-.53,3.8-2.19,4.33-4.3h1.32c-.57,2.81-2.81,5.03-5.65,5.61Z" fill="#1e237f" stroke-width="0"/><path d="M101.32,78.61h-1.89c-.65-4.36-4.15-7.81-8.57-8.44v-1.89h-2.9v1.89c-4.43.63-7.94,4.08-8.59,8.45h-1.88v2.87h1.87c.63,4.4,4.15,7.88,8.6,8.51v1.82h2.9v-1.83c4.44-.64,7.96-4.12,8.58-8.51h1.88v-2.87ZM96.49,78.61h-1.33c-.54-2.08-2.2-3.71-4.3-4.23v-1.31c2.82.57,5.05,2.77,5.63,5.55ZM89.4,83.11c-1.69,0-3.07-1.36-3.07-3.03s1.38-3.03,3.07-3.03,3.07,1.36,3.07,3.03-1.38,3.03-3.07,3.03ZM87.95,73.06v1.31c-2.12.52-3.78,2.16-4.32,4.24h-1.33c.59-2.79,2.82-4.98,5.65-5.55ZM82.29,81.48h1.32c.53,2.12,2.2,3.78,4.34,4.31v1.31c-2.85-.57-5.1-2.8-5.67-5.61ZM90.86,87.09v-1.31c2.13-.53,3.8-2.19,4.33-4.3h1.32c-.57,2.81-2.81,5.03-5.65,5.61Z" fill="#1e237f" stroke-width="0"/><path d="M84,62.87h-1.9c-.65-4.36-4.15-7.81-8.57-8.44v-1.89h-2.9v1.89c-4.43.63-7.94,4.08-8.59,8.45h-1.88v2.87h1.87c.63,4.4,4.15,7.88,8.6,8.51v1.82h2.9v-1.83c4.44-.64,7.96-4.12,8.58-8.51h1.89v-2.87ZM79.16,62.87h-1.33c-.54-2.08-2.2-3.71-4.31-4.23v-1.31c2.82.57,5.05,2.77,5.64,5.55ZM72.07,67.37c-1.69,0-3.07-1.36-3.07-3.03s1.38-3.03,3.07-3.03,3.07,1.36,3.07,3.03-1.38,3.03-3.07,3.03ZM70.62,57.32v1.31c-2.12.52-3.78,2.16-4.32,4.24h-1.33c.59-2.79,2.82-4.98,5.65-5.55ZM64.96,65.74h1.32c.53,2.12,2.2,3.78,4.34,4.3v1.31c-2.85-.57-5.1-2.8-5.67-5.61ZM73.53,71.35v-1.31c2.13-.53,3.8-2.19,4.33-4.3h1.32c-.57,2.81-2.81,5.03-5.65,5.61Z" fill="#1e237f" stroke-width="0"/></svg>