<svg xmlns="http://www.w3.org/2000/svg" width="144" height="144" viewBox="0 0 144 144"><path d="M110.33,74.79h-.88v-2.16c0-.92-.75-1.68-1.68-1.68h-2.21c-.4-7.18-3.35-13.87-8.34-18.89-5.1-5.12-11.79-7.94-18.84-7.94h-10.22c-.92,0-1.68.75-1.68,1.68v5.11c0,.92.75,1.68,1.68,1.68h10.22c9.74,0,17.87,8.03,18.68,18.36h-5.9c-.92,0-1.68.75-1.68,1.68v2.16h-55.81c-.92,0-1.68.75-1.68,1.68v11.5c0,6.55,5.34,11.89,11.9,11.9h66.43c.92,0,1.68-.75,1.68-1.68v-21.72c0-.92-.75-1.68-1.68-1.68ZM100.45,70.96c-.82-12.21-10.45-21.72-22.06-21.72h-8.54v-1.76h8.54c12.61,0,23,10.28,23.82,23.48h-1.76ZM92.84,74.79v-.48h13.25v.48h-13.25ZM108.65,78.15v18.37H43.89c-4.71,0-8.54-3.84-8.54-8.54v-9.82h73.3Z" fill="#1e237f" stroke-width="0"/><path d="M74.56,61.54c.92,0,1.68-.75,1.68-1.68v-3.83c0-.92-.75-1.68-1.68-1.68s-1.68.75-1.68,1.68v3.83c0,.92.75,1.68,1.68,1.68Z" fill="#1e237f" stroke-width="0"/><path d="M72.88,64.97c0,.92.75,1.68,1.68,1.68s1.68-.75,1.68-1.68v-1.28c0-.92-.75-1.68-1.68-1.68s-1.68.75-1.68,1.68v1.28Z" fill="#1e237f" stroke-width="0"/><path d="M79.67,61.54c.92,0,1.68-.75,1.68-1.68v-3.83c0-.92-.75-1.68-1.68-1.68s-1.68.75-1.68,1.68v3.83c0,.92.75,1.68,1.68,1.68Z" fill="#1e237f" stroke-width="0"/><path d="M69.44,61.54c.92,0,1.68-.75,1.68-1.68v-2.56c0-.92-.75-1.68-1.68-1.68s-1.68.75-1.68,1.68v2.56c0,.92.75,1.68,1.68,1.68Z" fill="#1e237f" stroke-width="0"/><path d="M38.78,83.26h11.5c.92,0,1.68-.75,1.68-1.68s-.75-1.68-1.68-1.68h-11.5c-.92,0-1.68.75-1.68,1.68s.75,1.68,1.68,1.68Z" fill="#1e237f" stroke-width="0"/><path d="M54.11,83.26h1.28c.92,0,1.68-.75,1.68-1.68s-.75-1.68-1.68-1.68h-1.28c-.92,0-1.68.75-1.68,1.68s.75,1.68,1.68,1.68Z" fill="#1e237f" stroke-width="0"/><path d="M69.44,65.37c.92,0,1.68-.75,1.68-1.68s-.75-1.68-1.68-1.68-1.68.75-1.68,1.68.75,1.68,1.68,1.68Z" fill="#1e237f" stroke-width="0"/><path d="M79.67,65.37c.92,0,1.68-.75,1.68-1.68s-.75-1.68-1.68-1.68-1.68.75-1.68,1.68.75,1.68,1.68,1.68Z" fill="#1e237f" stroke-width="0"/><path d="M72,0c39.76,0,72,32.24,72,72s-32.24,72-72,72S0,111.77,0,72,32.24,0,72,0Z" fill="none" fill-rule="evenodd" stroke-width="0"/></svg>