<?xml version="1.0" encoding="UTF-8"?><svg id="a" xmlns="http://www.w3.org/2000/svg" width="144" height="144" viewBox="0 0 144 144"><path d="M72,0c39.76,0,72,32.24,72,72s-32.24,72-72,72S0,111.76,0,72,32.24,0,72,0Z" fill="none" fill-rule="evenodd" stroke-width="0"/><path d="M101.44,59.69h-58.89c-4.44,0-8.06,3.61-8.06,8.06v33.69c0,4.44,3.61,8.06,8.06,8.06h58.89c4.44,0,8.06-3.61,8.06-8.06v-33.69c0-4.44-3.61-8.06-8.06-8.06ZM105.11,101.44c0,2.02-1.64,3.66-3.66,3.66h-58.89c-2.02,0-3.66-1.64-3.66-3.66v-33.69c0-2.02,1.64-3.66,3.66-3.66h58.89c2.02,0,3.66,1.64,3.66,3.66v33.69Z" fill="#1e237f" stroke-width="0"/><path d="M74.93,68.48h-29.3c-1.21,0-2.2.98-2.2,2.2v27.83c0,1.21.98,2.2,2.2,2.2h29.3c1.21,0,2.2-.98,2.2-2.2v-27.83c0-1.21-.98-2.2-2.2-2.2ZM54.07,96.32c.91-2.56,3.35-4.39,6.22-4.39s5.31,1.84,6.22,4.39h-12.43ZM57.35,84.6c0-1.62,1.31-2.93,2.93-2.93s2.93,1.31,2.93,2.93-1.31,2.93-2.93,2.93-2.93-1.31-2.93-2.93ZM72.73,96.32h-1.69c-.62-3.03-2.48-5.6-5.03-7.17.99-1.25,1.59-2.83,1.59-4.55,0-4.04-3.29-7.32-7.32-7.32s-7.32,3.28-7.32,7.32c0,1.72.6,3.3,1.59,4.55-2.55,1.57-4.41,4.14-5.03,7.17h-1.69v-23.44h24.9v23.44Z" fill="#1e237f" stroke-width="0"/><path d="M91.04,73.61c1.21,0,2.2-.98,2.2-2.2s-.98-2.2-2.2-2.2-2.2.98-2.2,2.2.98,2.2,2.2,2.2Z" fill="#1e237f" stroke-width="0"/><path d="M82.99,69.22c-1.21,0-2.2.98-2.2,2.2s.98,2.2,2.2,2.2,2.2-.98,2.2-2.2-.98-2.2-2.2-2.2Z" fill="#1e237f" stroke-width="0"/><path d="M99.1,73.61c1.21,0,2.2-.98,2.2-2.2s-.98-2.2-2.2-2.2-2.2.98-2.2,2.2.98,2.2,2.2,2.2Z" fill="#1e237f" stroke-width="0"/><path d="M91.04,82.4c1.21,0,2.2-.98,2.2-2.2s-.98-2.2-2.2-2.2-2.2.98-2.2,2.2.98,2.2,2.2,2.2Z" fill="#1e237f" stroke-width="0"/><path d="M82.99,78.01c-1.21,0-2.2.98-2.2,2.2s.98,2.2,2.2,2.2,2.2-.98,2.2-2.2-.98-2.2-2.2-2.2Z" fill="#1e237f" stroke-width="0"/><path d="M99.1,82.4c1.21,0,2.2-.98,2.2-2.2s-.98-2.2-2.2-2.2-2.2.98-2.2,2.2.98,2.2,2.2,2.2Z" fill="#1e237f" stroke-width="0"/><path d="M93.97,86.79c-4.04,0-7.32,3.29-7.32,7.32s3.29,7.32,7.32,7.32,7.32-3.29,7.32-7.32-3.29-7.32-7.32-7.32ZM93.97,97.05c-1.62,0-2.93-1.31-2.93-2.93s1.31-2.93,2.93-2.93,2.93,1.31,2.93,2.93-1.31,2.93-2.93,2.93Z" fill="#1e237f" stroke-width="0"/><path d="M69.8,54.27c0,1.21.98,2.2,2.2,2.2s2.2-.98,2.2-2.2-.98-2.2-2.2-2.2-2.2.98-2.2,2.2Z" fill="#1e237f" stroke-width="0"/><path d="M61.12,43.39c2.9-2.9,6.76-4.5,10.88-4.5s7.98,1.6,10.88,4.5c.43.43.99.64,1.55.64s1.12-.21,1.55-.64c.86-.86.86-2.25,0-3.11-3.73-3.73-8.7-5.78-13.98-5.78s-10.25,2.05-13.98,5.78c-.86.86-.86,2.25,0,3.11.86.86,2.25.86,3.11,0Z" fill="#1e237f" stroke-width="0"/><path d="M79.77,49.61c.86-.86.86-2.25,0-3.11-4.28-4.28-11.25-4.28-15.54,0-.86.86-.86,2.25,0,3.11.43.43.99.64,1.55.64s1.12-.21,1.55-.64c2.57-2.57,6.75-2.57,9.32,0,.86.86,2.25.86,3.11,0Z" fill="#1e237f" stroke-width="0"/></svg>