<svg xmlns="http://www.w3.org/2000/svg" width="144" height="144" viewBox="0 0 144 144"><path d="M72,0c39.76,0,72,32.24,72,72s-32.24,72-72,72S0,111.77,0,72,32.24,0,72,0Z" fill="none" fill-rule="evenodd" stroke-width="0"/><path d="M103.4,45.47h-62.8c-4.74,0-8.59,3.85-8.59,8.58v35.89c0,4.73,3.85,8.58,8.59,8.58h62.8c4.74,0,8.59-3.85,8.59-8.58v-35.89c0-4.73-3.85-8.58-8.59-8.58ZM107.31,89.94c0,2.15-1.75,3.9-3.91,3.9h-62.8c-2.15,0-3.91-1.75-3.91-3.9v-35.89c0-2.15,1.75-3.9,3.91-3.9h62.8c2.15,0,3.91,1.75,3.91,3.9v35.89Z" fill="#1e237f" stroke-width="0"/><path d="M75.12,54.84h-31.25c-1.29,0-2.34,1.05-2.34,2.34v29.65c0,1.29,1.05,2.34,2.34,2.34h31.25c1.29,0,2.34-1.05,2.34-2.34v-29.65c0-1.29-1.05-2.34-2.34-2.34ZM52.87,84.48c.97-2.72,3.57-4.68,6.63-4.68s5.66,1.96,6.63,4.68h-13.26ZM56.38,72c0-1.72,1.4-3.12,3.12-3.12s3.12,1.4,3.12,3.12-1.4,3.12-3.12,3.12-3.12-1.4-3.12-3.12ZM72.78,84.48h-1.8c-.66-3.22-2.65-5.97-5.37-7.64,1.06-1.33,1.7-3.02,1.7-4.85,0-4.3-3.5-7.8-7.81-7.8s-7.81,3.5-7.81,7.8c0,1.83.64,3.51,1.7,4.85-2.72,1.67-4.71,4.41-5.37,7.64h-1.8v-24.97h26.56v24.97Z" fill="#1e237f" stroke-width="0"/><path d="M92.31,60.3c1.29,0,2.34-1.05,2.34-2.34s-1.05-2.34-2.34-2.34-2.34,1.05-2.34,2.34,1.05,2.34,2.34,2.34Z" fill="#1e237f" stroke-width="0"/><path d="M83.72,55.62c-1.29,0-2.34,1.05-2.34,2.34s1.05,2.34,2.34,2.34,2.34-1.05,2.34-2.34-1.05-2.34-2.34-2.34Z" fill="#1e237f" stroke-width="0"/><path d="M100.9,60.3c1.29,0,2.34-1.05,2.34-2.34s-1.05-2.34-2.34-2.34-2.34,1.05-2.34,2.34,1.05,2.34,2.34,2.34Z" fill="#1e237f" stroke-width="0"/><path d="M92.31,69.66c1.29,0,2.34-1.05,2.34-2.34s-1.05-2.34-2.34-2.34-2.34,1.05-2.34,2.34,1.05,2.34,2.34,2.34Z" fill="#1e237f" stroke-width="0"/><path d="M83.72,64.98c-1.29,0-2.34,1.05-2.34,2.34s1.05,2.34,2.34,2.34,2.34-1.05,2.34-2.34-1.05-2.34-2.34-2.34Z" fill="#1e237f" stroke-width="0"/><path d="M100.9,69.66c1.29,0,2.34-1.05,2.34-2.34s-1.05-2.34-2.34-2.34-2.34,1.05-2.34,2.34,1.05,2.34,2.34,2.34Z" fill="#1e237f" stroke-width="0"/><path d="M95.43,74.34c-4.31,0-7.81,3.5-7.81,7.8s3.5,7.8,7.81,7.8,7.81-3.5,7.81-7.8-3.5-7.8-7.81-7.8ZM95.43,85.26c-1.72,0-3.12-1.4-3.12-3.12s1.4-3.12,3.12-3.12,3.12,1.4,3.12,3.12-1.4,3.12-3.12,3.12Z" fill="#1e237f" stroke-width="0"/></svg>