<svg xmlns="http://www.w3.org/2000/svg" width="144" height="144" viewBox="0 0 144 144"><path d="M72,92.87c-10.83,0-19.65-8.81-19.65-19.65s8.81-19.65,19.65-19.65,19.65,8.81,19.65,19.65-8.81,19.65-19.65,19.65ZM72,57.15c-8.86,0-16.08,7.21-16.08,16.07s7.21,16.08,16.08,16.08,16.08-7.21,16.08-16.08-7.21-16.07-16.08-16.07Z" fill="#1e237f" stroke-width="0"/><path d="M109.51,36.28c0-.99-.8-1.79-1.79-1.79H36.28c-.99,0-1.79.8-1.79,1.79v59.76c0,.26.06.5.16.73h0s5.21,11.69,5.21,11.69c.29.64.93,1.06,1.63,1.06h61.56c.73,0,1.39-.45,1.66-1.12l4.67-11.69h0c.08-.21.13-.43.13-.66v-59.76ZM38.06,38.06h67.88v56.19H38.06v-56.19ZM86.68,97.82h9.11v3.2h-9.11v-3.2ZM101.84,105.94h-59.2l-3.62-8.11h44.07v4.99c0,.99.8,1.79,1.79,1.79h12.68c.99,0,1.79-.8,1.79-1.79v-4.99h5.73l-3.24,8.11Z" fill="#1e237f" stroke-width="0"/><path d="M89.32,100.42h3.57v-1.99h-3.57v1.99Z" fill="#1e237f" stroke-width="0"/><path d="M99.63,51.24h-55.26c-.99,0-1.79-.8-1.79-1.79v-6.34c0-.99.8-1.79,1.79-1.79h55.26c.99,0,1.79.8,1.79,1.79v6.34c0,.99-.8,1.79-1.79,1.79ZM46.16,47.66h51.69v-2.77h-51.69v2.77Z" fill="#1e237f" stroke-width="0"/><path d="M63.07,80.5v-15.41h3.1v15.41h-3.1Z" fill="#1e237f" stroke-width="0"/><path d="M69.13,80.5v-15.41h3.1v6.07h6.07v-6.07h3.1v15.41h-3.1v-6.74h-6.07v6.74h-3.1Z" fill="#1e237f" stroke-width="0"/><path d="M72,0c39.76,0,72,32.24,72,72s-32.24,72-72,72S0,111.77,0,72,32.24,0,72,0Z" fill="none" fill-rule="evenodd" stroke-width="0"/></svg>