<svg xmlns="http://www.w3.org/2000/svg" width="144" height="144" viewBox="0 0 144 144"><path d="M109.49,71.41c0-3.64-2.96-6.6-6.6-6.6h-26.01c-.01-.1-.02-.21-.04-.31-.37-2.8-1.81-5.29-4.05-7.01-2.24-1.72-5.02-2.46-7.82-2.1-.32.04-.64.1-.95.17-2.59-4.16-7.44-6.52-12.42-5.86-3.36.44-6.35,2.16-8.41,4.85-2.06,2.68-2.96,6.01-2.51,9.36.04.31.09.61.15.91-3.51.15-6.32,3.05-6.32,6.59,0,2.2,1.08,4.14,2.74,5.34l1.54,8.73c1.03,5.82,5.27,10.36,10.72,11.93l-.42.42c-.86.86-.86,2.25,0,3.11.43.43.99.64,1.56.64s1.13-.21,1.56-.64l2.94-2.94h33.74l2.94,2.94c.43.43.99.64,1.56.64s1.13-.21,1.56-.64c.86-.86.86-2.25,0-3.11l-.42-.42c5.45-1.57,9.7-6.11,10.72-11.93l1.54-8.73c1.66-1.2,2.74-3.15,2.74-5.34h0ZM46.68,57.23c1.35-1.75,3.3-2.88,5.49-3.16,3.7-.49,7.29,1.58,8.72,5.02.23.55.67.98,1.22,1.2s1.17.21,1.71-.04c.55-.24,1.12-.41,1.72-.48,1.64-.21,3.26.22,4.57,1.22,1.24.95,2.06,2.3,2.32,3.83h-27.07c-.15-.48-.27-.97-.33-1.47-.29-2.19.3-4.36,1.64-6.11h0ZM41.11,69.21h61.78c1.22,0,2.2.99,2.2,2.2s-.99,2.2-2.2,2.2h-61.78c-1.22,0-2.2-.99-2.2-2.2,0-1.21.99-2.2,2.2-2.2h0ZM100.88,84.72c-.91,5.15-5.37,8.89-10.6,8.89h-36.56c-5.24,0-9.7-3.74-10.6-8.89l-1.18-6.72h60.13l-1.18,6.72Z" fill="#1e237f" stroke-width="0"/><path d="M96.39,58.3c0,1.21.99,2.2,2.2,2.2s2.2-.98,2.2-2.2c0-.61.1-.81.34-1.28.35-.68.83-1.61.83-3.29s-.48-2.61-.83-3.29c-.24-.47-.34-.67-.34-1.28s.1-.81.34-1.28c.35-.68.83-1.61.83-3.29,0-1.21-.99-2.2-2.2-2.2s-2.2.98-2.2,2.2c0,.61-.1.81-.34,1.28-.35.68-.83,1.61-.83,3.29s.48,2.6.83,3.29c.24.47.34.67.34,1.28s-.1.81-.34,1.28c-.35.68-.83,1.61-.83,3.29Z" fill="#1e237f" stroke-width="0"/><path d="M87.58,58.3c0,1.21.99,2.2,2.2,2.2s2.2-.98,2.2-2.2c0-.61.1-.81.34-1.28.35-.68.83-1.61.83-3.29s-.48-2.61-.83-3.29c-.24-.47-.34-.67-.34-1.28s.1-.81.34-1.28c.35-.68.83-1.61.83-3.29,0-1.21-.99-2.2-2.2-2.2s-2.2.98-2.2,2.2c0,.61-.1.81-.34,1.28-.35.68-.83,1.61-.83,3.29s.48,2.6.83,3.29c.24.47.34.67.34,1.28s-.1.81-.34,1.28c-.35.68-.83,1.61-.83,3.29Z" fill="#1e237f" stroke-width="0"/><path d="M72,0c39.76,0,72,32.24,72,72s-32.24,72-72,72S0,111.77,0,72,32.24,0,72,0Z" fill="none" fill-rule="evenodd" stroke-width="0"/></svg>