<svg id="a" xmlns="http://www.w3.org/2000/svg" width="144" height="144" viewBox="0 0 144 144"><path d="M83.43,53.53c-1.97-1.97-4.58-3.05-7.36-3.05s-5.39,1.08-7.36,3.05l-31.17,31.17c-1.97,1.97-3.05,4.58-3.05,7.36s1.08,5.39,3.05,7.36l7.04,7.04c2.03,2.03,4.69,3.04,7.36,3.04s5.33-1.01,7.36-3.04l31.17-31.17c1.97-1.97,3.05-4.58,3.05-7.36s-1.08-5.39-3.05-7.36l-7.04-7.04ZM87.36,72.18l-31.17,31.17c-2.34,2.34-6.16,2.34-8.5,0l-7.04-7.04c-1.14-1.14-1.76-2.65-1.76-4.25s.63-3.12,1.76-4.25l31.17-31.17c1.14-1.14,2.65-1.76,4.25-1.76s3.12.63,4.25,1.76l7.04,7.04c1.14,1.14,1.76,2.65,1.76,4.25s-.63,3.12-1.76,4.25Z" fill="#1e237f" stroke-width="0"/><path d="M76.08,61.33c-3.63,0-6.59,2.96-6.59,6.59s2.96,6.59,6.59,6.59,6.59-2.96,6.59-6.59-2.96-6.59-6.59-6.59ZM76.08,70.12c-1.21,0-2.2-.99-2.2-2.2s.99-2.2,2.2-2.2,2.2.98,2.2,2.2-.99,2.2-2.2,2.2Z" fill="#1e237f" stroke-width="0"/><path d="M66.53,72.99c-.01-.07-.03-.14-.05-.21-.02-.07-.05-.14-.07-.2-.03-.07-.06-.13-.09-.19-.03-.06-.07-.13-.11-.18-.04-.06-.08-.12-.13-.17-.05-.06-.1-.11-.15-.16-.05-.05-.11-.1-.16-.14-.06-.05-.11-.09-.17-.13-.06-.04-.12-.08-.19-.11-.06-.03-.13-.06-.19-.09-.07-.03-.13-.05-.2-.07-.07-.02-.14-.04-.21-.05-.07-.02-.14-.03-.21-.03-.14-.01-.29-.01-.43,0-.07,0-.14.02-.21.03-.07.01-.14.03-.21.05-.07.02-.14.04-.2.07s-.13.06-.19.09c-.06.03-.12.07-.18.11-.06.04-.12.08-.17.13-.06.04-.11.09-.16.14-.05.05-.1.1-.15.16-.05.06-.09.11-.13.17-.04.06-.08.12-.11.18-.03.06-.06.13-.09.19-.03.07-.05.13-.07.2-.02.07-.04.14-.05.21-.01.07-.02.14-.03.21,0,.07-.01.14-.01.22s0,.14.01.22c0,.07.02.14.03.21.01.07.03.14.05.21.02.07.05.14.07.2.03.07.06.13.09.19.03.06.07.12.11.18.04.06.08.12.13.17.05.06.1.11.15.16.05.05.11.1.16.15.06.05.11.09.17.13.06.04.12.08.18.11.06.03.13.06.19.09.07.03.13.05.2.07.07.02.14.04.21.05.07.02.14.03.21.03.07,0,.14.01.22.01s.14,0,.22-.01c.07,0,.14-.02.21-.03.07-.01.14-.03.21-.05.07-.02.14-.05.2-.07.07-.03.13-.06.19-.09.06-.03.13-.07.19-.11.06-.04.12-.08.17-.13.06-.05.11-.09.16-.15.05-.05.1-.1.15-.16.05-.06.09-.11.13-.17.04-.06.08-.12.11-.18.03-.06.06-.13.09-.19.03-.07.05-.13.07-.2.02-.07.04-.14.05-.21.01-.07.02-.14.03-.21,0-.07.01-.14.01-.22s0-.14-.01-.22c0-.07-.02-.14-.03-.21Z" fill="#1e237f" stroke-width="0"/><path d="M72.74,79.2c-.01-.07-.03-.14-.05-.21-.02-.07-.05-.14-.07-.2-.03-.07-.06-.13-.09-.19-.03-.06-.07-.13-.11-.19-.04-.06-.08-.12-.13-.17-.05-.06-.09-.11-.14-.16-.05-.05-.1-.1-.16-.14-.06-.05-.11-.09-.17-.13-.06-.04-.12-.08-.18-.11-.06-.03-.13-.06-.19-.09-.07-.03-.13-.05-.2-.07-.07-.02-.14-.04-.21-.05-.07-.01-.14-.02-.21-.03-.14-.01-.29-.01-.43,0-.07,0-.14.02-.21.03-.07.01-.14.03-.21.05-.07.02-.14.05-.2.07-.07.03-.13.06-.19.09-.06.03-.12.07-.18.11-.06.04-.12.08-.17.13-.06.05-.11.1-.16.14-.05.05-.1.11-.14.16-.05.06-.09.11-.13.17-.04.06-.08.12-.11.19-.03.06-.06.13-.09.19-.03.07-.05.14-.07.2-.02.07-.04.14-.05.21-.01.07-.02.14-.03.21,0,.07-.01.15-.01.22s0,.15.01.22c0,.07.02.14.03.21.01.07.03.14.05.21.02.07.05.14.07.2.03.07.06.13.09.2.03.06.07.12.11.18.04.06.08.12.13.17.05.06.09.11.14.16.05.05.11.1.16.14.05.05.11.09.17.13.06.04.12.08.18.11.06.03.13.06.19.09.07.03.13.05.2.07.07.02.14.04.21.05.07.01.14.02.21.03.07,0,.15.01.22.01s.14,0,.22-.01c.07,0,.14-.02.21-.03.07-.01.14-.03.21-.05.07-.02.14-.05.2-.07.07-.03.13-.06.19-.09.06-.03.13-.07.18-.11.06-.04.12-.08.17-.13.06-.05.11-.1.16-.14.05-.05.1-.11.14-.16.05-.06.09-.11.13-.17.04-.06.08-.12.11-.18.03-.06.06-.13.09-.2.03-.07.05-.13.07-.2.02-.07.04-.14.05-.21.01-.07.02-.14.03-.21,0-.07.01-.14.01-.22s0-.14-.01-.22c0-.07-.02-.14-.03-.21Z" fill="#1e237f" stroke-width="0"/><path d="M56,80.06c.01.07.03.14.05.21.02.07.05.14.07.2.03.07.06.13.09.2.03.06.07.12.11.18.04.06.08.12.13.17.05.06.09.11.14.16.05.05.1.1.16.14.06.05.11.09.17.13.06.04.12.08.18.11.06.03.13.06.19.09.07.03.13.05.2.07.07.02.14.04.21.05.07.01.14.02.21.03.07,0,.14.01.22.01s.14,0,.22-.01c.07,0,.14-.02.21-.03.07-.01.14-.03.21-.05.07-.02.14-.05.2-.07.07-.03.13-.06.19-.09.06-.03.12-.07.18-.11.06-.04.12-.08.17-.13.06-.05.11-.1.16-.14.05-.05.1-.11.14-.16.05-.06.09-.11.13-.17.04-.06.08-.12.11-.18.03-.06.06-.13.09-.2.03-.07.05-.13.07-.2.02-.07.04-.14.05-.21.01-.07.02-.14.03-.21,0-.07.01-.14.01-.22s0-.14-.01-.22c0-.07-.02-.14-.03-.21-.01-.07-.03-.14-.05-.21-.02-.07-.05-.14-.07-.2-.03-.07-.06-.13-.09-.19-.03-.06-.07-.13-.11-.19-.04-.06-.08-.12-.13-.17-.05-.06-.09-.11-.14-.16-.05-.05-.1-.1-.16-.14-.05-.05-.11-.09-.17-.13-.06-.04-.12-.08-.18-.11-.06-.03-.13-.06-.19-.09-.07-.03-.13-.05-.2-.07-.07-.02-.14-.04-.21-.05-.07-.01-.14-.02-.21-.03-.14-.01-.29-.01-.43,0-.07,0-.14.02-.21.03-.07.01-.14.03-.21.05-.07.02-.14.05-.2.07-.07.03-.13.06-.19.09-.06.03-.13.07-.18.11-.06.04-.12.08-.17.13-.06.05-.11.1-.16.14-.05.05-.1.11-.14.16-.05.06-.09.11-.13.17-.04.06-.08.12-.11.19-.03.06-.06.13-.09.19-.03.07-.05.14-.07.2-.02.07-.04.14-.05.21-.01.07-.02.14-.03.21,0,.07-.01.15-.01.22s0,.15.01.22c0,.07.02.14.03.21Z" fill="#1e237f" stroke-width="0"/><path d="M66.53,85.42c-.01-.07-.03-.14-.05-.21-.02-.07-.05-.14-.07-.2-.03-.07-.06-.13-.09-.2-.03-.06-.07-.12-.11-.18-.04-.06-.08-.12-.13-.17-.05-.06-.1-.11-.15-.16-.05-.05-.11-.1-.16-.14-.06-.05-.11-.09-.17-.13-.06-.04-.12-.08-.19-.11-.06-.03-.13-.06-.19-.09-.07-.03-.13-.05-.2-.07-.07-.02-.14-.04-.21-.05-.07-.01-.14-.02-.21-.03-.14-.01-.29-.01-.43,0-.07,0-.14.02-.21.03-.07.02-.14.03-.21.05-.07.02-.14.04-.2.07-.07.03-.13.06-.19.09-.06.03-.12.07-.18.11-.06.04-.12.08-.17.13-.06.05-.11.09-.16.14-.05.05-.1.1-.15.16-.05.05-.09.11-.13.17-.04.06-.08.12-.11.18-.03.06-.06.13-.09.2-.03.06-.05.13-.07.2-.02.07-.04.14-.05.21-.01.07-.02.14-.03.21,0,.07-.01.15-.01.22s0,.14.01.22c0,.07.02.14.03.21.01.07.03.14.05.21.02.07.05.14.07.2.03.07.06.13.09.19.03.06.07.13.11.18.04.06.08.12.13.17.05.06.1.11.15.16.05.05.11.1.16.15.06.05.11.09.17.13.06.04.12.08.18.11.06.03.13.06.19.09.07.03.13.05.2.07.07.02.14.04.21.05.07.01.14.02.21.03.07,0,.14.01.22.01s.14,0,.22-.01c.07,0,.14-.02.21-.03.07-.01.14-.03.21-.05.07-.02.14-.05.2-.07.07-.03.13-.06.19-.09.06-.03.13-.07.19-.11.06-.04.12-.08.17-.13.06-.05.11-.09.16-.15.05-.05.1-.1.15-.16.05-.06.09-.11.13-.17.04-.06.08-.12.11-.18.03-.06.06-.13.09-.19.03-.07.05-.13.07-.2.02-.07.04-.14.05-.21.01-.07.02-.14.03-.21,0-.07.01-.14.01-.22s0-.14-.01-.22c0-.07-.02-.14-.03-.21Z" fill="#1e237f" stroke-width="0"/><path d="M53.5,84.29c-.86-.86-2.25-.86-3.11,0-.86.86-.86,2.25,0,3.11l6.21,6.22c.43.43.99.64,1.55.64s1.12-.21,1.55-.64c.86-.86.86-2.25,0-3.11l-6.21-6.22Z" fill="#1e237f" stroke-width="0"/><path d="M47.28,90.51c-.86-.86-2.25-.86-3.11,0-.86.86-.86,2.25,0,3.11l6.21,6.21c.43.43.99.64,1.55.64s1.12-.21,1.55-.64c.86-.86.86-2.25,0-3.11l-6.21-6.21Z" fill="#1e237f" stroke-width="0"/><path d="M89.03,43.64h0c-1.21,0-2.2.98-2.2,2.2,0,1.21.98,2.2,2.2,2.2,1.85,0,3.6.72,4.91,2.03,1.31,1.31,2.03,3.05,2.03,4.91,0,1.21.98,2.2,2.2,2.2h0c1.21,0,2.2-.98,2.2-2.2,0-3.03-1.18-5.87-3.32-8.01-2.14-2.14-4.99-3.32-8.01-3.32Z" fill="#1e237f" stroke-width="0"/><path d="M103.5,40.5c-3.87-3.87-9-6-14.47-6h0c-1.21,0-2.2.98-2.2,2.2,0,1.21.98,2.2,2.2,2.2h0c4.29,0,8.33,1.67,11.36,4.71,3.04,3.04,4.71,7.07,4.71,11.37,0,1.21.98,2.2,2.2,2.2h0c1.21,0,2.2-.98,2.2-2.2,0-5.47-2.13-10.61-6-14.48Z" fill="#1e237f" stroke-width="0"/><path d="M72,0c39.76,0,72,32.24,72,72s-32.24,72-72,72S0,111.76,0,72,32.24,0,72,0Z" fill="none" fill-rule="evenodd" stroke-width="0"/></svg>