<svg xmlns="http://www.w3.org/2000/svg" width="144" height="144" viewBox="0 0 144 144"><path d="M72,0c39.76,0,72,32.24,72,72s-32.24,72-72,72S0,111.76,0,72,32.24,0,72,0Z" fill="none" fill-rule="evenodd" stroke-width="0"/><path d="M94.29,56.09c-1.76,0-3.18,1.42-3.18,3.18v35.6c-.19,3.35-3.05,5.92-6.4,5.76h-25.41c-3.35.16-6.21-2.41-6.4-5.76v-35.6c0-1.76-1.43-3.18-3.18-3.18s-3.18,1.42-3.18,3.18v35.6c.19,6.86,5.9,12.28,12.77,12.12h25.41c6.87.16,12.58-5.25,12.77-12.12v-35.6c0-1.76-1.43-3.18-3.18-3.18Z" fill="#1e237f" stroke-width="0"/><path d="M97.48,46.55h-12.74v-6.36c0-1.76-1.43-3.18-3.18-3.18h-19.11c-1.76,0-3.18,1.42-3.18,3.18v6.36h-12.74c-1.76,0-3.18,1.42-3.18,3.18s1.43,3.18,3.18,3.18h50.95c1.76,0,3.18-1.42,3.18-3.18s-1.43-3.18-3.18-3.18ZM65.63,46.55v-3.18h12.74v3.18h-12.74Z" fill="#1e237f" stroke-width="0"/><path d="M68.82,95.21v-8.85c0-1.76-1.43-3.18-3.18-3.18s-3.18,1.42-3.18,3.18v8.85c0,1.76,1.43,3.18,3.18,3.18s3.18-1.42,3.18-3.18Z" fill="#1e237f" stroke-width="0"/><path d="M81.55,95.21v-8.85c0-1.76-1.43-3.18-3.18-3.18s-3.18,1.42-3.18,3.18v8.85c0,1.76,1.43,3.18,3.18,3.18s3.18-1.42,3.18-3.18Z" fill="#1e237f" stroke-width="0"/><path d="M66.76,72.96c.29,0,.55.11.77.33.22.22.33.48.33.78v.9c0,.3-.11.56-.33.79-.22.22-.47.33-.77.33h-7.81c-.3,0-.55-.11-.77-.33-.22-.22-.33-.48-.33-.79v-.9c0-.73.29-1.33.87-1.79,2.12-1.65,3.49-2.87,4.14-3.66.64-.79.96-1.57.96-2.34,0-.98-.55-1.47-1.64-1.47-.77,0-1.77.22-3,.67-.26.09-.49.06-.71-.09-.22-.15-.33-.36-.33-.62v-1.3c0-.34.1-.64.29-.91.19-.27.44-.44.75-.52,1.26-.31,2.45-.47,3.58-.47,1.6,0,2.84.38,3.7,1.15.87.77,1.3,1.82,1.3,3.17,0,1.07-.33,2.09-.99,3.06-.66.97-1.96,2.28-3.9,3.94-.01.01-.02.03-.02.04s0,.02.02.02h3.89Z" fill="#1e237f" stroke-width="0"/><path d="M78.4,70.51c.29,0,.55.11.77.33.22.22.33.48.33.78v.8c0,.3-.11.56-.33.79-.22.22-.47.33-.77.33h-.67c-.1,0-.15.06-.15.18v1.26c0,.3-.11.56-.33.79-.22.22-.47.33-.77.33h-1.46c-.3,0-.55-.11-.77-.33-.22-.22-.33-.48-.33-.79v-1.26c0-.12-.06-.18-.17-.18h-4.89c-.3,0-.55-.11-.77-.33-.22-.22-.33-.49-.33-.79v-.8c0-.73.21-1.41.63-2.02l4.89-6.93c.42-.6,1-.9,1.73-.9h1.46c.29,0,.55.11.77.33.22.22.33.48.33.78v7.44c0,.12.05.18.15.18h.67ZM73.92,70.33v-4.02s0-.02-.02-.02c-.03,0-.04,0-.04.02l-2.81,4.14-.02.02v.02s0,.02.02.02h2.69c.12,0,.17-.06.17-.18Z" fill="#1e237f" stroke-width="0"/><path d="M85.07,69.23c.79,0,1.35.23,1.67.69.33.46.49,1.31.49,2.55v2.89c0,.2-.07.37-.22.52-.14.15-.31.22-.51.22h-.9c-.19,0-.36-.07-.51-.22-.14-.15-.22-.32-.22-.52v-2.63c0-.64-.05-1.06-.16-1.26-.11-.2-.31-.3-.6-.3-.24,0-.46.1-.65.29-.2.19-.3.4-.3.62v3.28c0,.2-.07.37-.22.52-.14.15-.31.22-.51.22h-.97c-.2,0-.36-.07-.51-.22-.14-.15-.22-.32-.22-.52v-8.25c0-.2.07-.37.22-.52.14-.15.31-.22.51-.22h.97c.19,0,.36.07.51.22.14.15.22.32.22.52v2.88s0,.01.01.01.02,0,.03-.01c.6-.51,1.22-.77,1.87-.77Z" fill="#1e237f" stroke-width="0"/></svg>