<svg xmlns="http://www.w3.org/2000/svg" width="144" height="144" viewBox="0 0 144 144"><path d="M72,0c39.76,0,72,32.24,72,72s-32.24,72-72,72S0,111.76,0,72,32.24,0,72,0Z" fill="none" fill-rule="evenodd" stroke-width="0"/><path d="M104.45,40.99H39.55c-2.78,0-5.04,2.27-5.05,5.05v51.92c0,2.78,2.27,5.04,5.05,5.05h64.9c2.78,0,5.04-2.27,5.05-5.05v-51.92c0-2.78-2.27-5.04-5.05-5.05ZM51.99,49.93h40.02c2.78,0,5.04-2.27,5.05-5.05v-.72h7.39c1.03,0,1.87.84,1.88,1.88v51.92c0,1.03-.84,1.87-1.87,1.88H39.55c-1.03,0-1.87-.84-1.88-1.88v-51.92c0-1.03.84-1.87,1.87-1.88h7.39v.72c0,2.78,2.27,5.04,5.05,5.05ZM93.89,44.88c0,1.03-.84,1.87-1.87,1.88h-40.02c-1.03,0-1.87-.84-1.88-1.88v-.72h43.77v.72Z" fill="#1e237f" stroke-width="0"/><path d="M39.12,52.96v29.14c0,.88.71,1.59,1.59,1.59h62.6c.87,0,1.59-.71,1.59-1.59v-29.14c0-.88-.71-1.59-1.59-1.59h-62.6c-.87,0-1.59.71-1.59,1.59ZM101.71,54.55v25.96h-59.42v-25.96h59.42Z" fill="#1e237f" stroke-width="0"/><path d="M62.01,75.27h7.3c.87,0,1.59-.71,1.59-1.59v-12.64c0-.88-.71-1.59-1.59-1.59h-7.3c-.87,0-1.59.71-1.59,1.59v12.64c0,.87.71,1.59,1.59,1.59ZM67.72,62.64v9.47h-4.12v-9.47h4.12Z" fill="#1e237f" stroke-width="0"/><path d="M72.69,75.6c.87,0,1.59-.71,1.59-1.59v-.77c0-.88-.71-1.59-1.59-1.59s-1.59.71-1.59,1.59v.77c0,.88.71,1.59,1.59,1.59Z" fill="#1e237f" stroke-width="0"/><path d="M51.3,75.27h7.3c.87,0,1.59-.71,1.59-1.59s-.71-1.59-1.59-1.59h-5.71v-.3l6.67-5.11c.39-.3.62-.77.62-1.26v-4.38c0-.88-.71-1.59-1.59-1.59h-7.3c-.87,0-1.59.71-1.59,1.59v3.66c0,.87.71,1.59,1.59,1.59s1.59-.71,1.59-1.59v-2.07h4.12v2.01l-6.67,5.11c-.39.3-.62.77-.62,1.26v2.67c0,.87.71,1.59,1.59,1.59Z" fill="#1e237f" stroke-width="0"/><path d="M76.07,75.27h7.3c.42,0,.82-.16,1.12-.46.3-.3.46-.7.47-1.12v-4.24c0-.57-.31-1.1-.8-1.38l-1.23-.7,1.23-.71c.49-.28.8-.81.8-1.38v-4.24c0-.87-.71-1.59-1.59-1.59h-7.3c-.87,0-1.59.71-1.59,1.59v2.22c0,.87.71,1.59,1.59,1.59s1.59-.71,1.59-1.59v-.63h4.12v1.73l-2.85,1.62c-.76.43-1.02,1.41-.59,2.17.14.25.34.45.59.59l2.85,1.63v1.73h-4.12v-.63c0-.87-.71-1.59-1.59-1.59s-1.59.71-1.59,1.59v2.22c0,.42.16.82.46,1.12.3.3.7.46,1.12.46Z" fill="#1e237f" stroke-width="0"/><path d="M90.11,67.82h0c2.3,0,4.18-1.87,4.18-4.18s-1.87-4.18-4.18-4.18-4.18,1.87-4.18,4.18c0,2.3,1.88,4.17,4.18,4.18ZM89.11,63.64c0-.55.45-1,1.01-1.01.55,0,1,.45,1,1s-.45,1.01-1.01,1.01-1-.45-1-1.01Z" fill="#1e237f" stroke-width="0"/><path d="M80.97,85.13h-17.93c-.87,0-1.59.71-1.59,1.59v10.09c0,.87.71,1.59,1.59,1.59h17.93c.87,0,1.59-.71,1.59-1.59v-10.09c0-.87-.71-1.59-1.59-1.59ZM79.38,88.3v6.92h-14.76v-6.92h14.76Z" fill="#1e237f" stroke-width="0"/><path d="M103.3,85.13h-17.72c-.42,0-.82.16-1.12.46-.3.3-.46.7-.47,1.12v10.09c0,.87.71,1.59,1.59,1.59h17.72c.87,0,1.59-.71,1.59-1.59v-10.09c0-.87-.71-1.59-1.59-1.59ZM101.71,88.3v6.92h-14.54v-6.92h14.54Z" fill="#1e237f" stroke-width="0"/><path d="M58.42,85.13h-17.72c-.87,0-1.59.71-1.59,1.59v10.09c0,.87.71,1.59,1.59,1.59h17.72c.42,0,.82-.17,1.12-.46.3-.3.46-.7.47-1.12v-10.09c0-.42-.16-.82-.46-1.12-.3-.3-.7-.46-1.12-.46ZM42.29,95.22v-6.92h14.54v6.92h-14.54Z" fill="#1e237f" stroke-width="0"/><path d="M93.38,93.99h0c.31.3.7.44,1.1.44s.79-.15,1.11-.44l2.24-2.17c.64-.6.68-1.6.08-2.24-.59-.64-1.6-.68-2.24-.08-.02.02-.03.03-.04.04l-1.15,1.11-1.15-1.11c-.63-.61-1.63-.59-2.24.04-.61.63-.59,1.63.04,2.24l2.25,2.18Z" fill="#1e237f" stroke-width="0"/><path d="M69.75,94.44h0c.41,0,.81-.16,1.1-.45l1.15-1.11,1.16,1.12c.31.29.71.44,1.14.42.42-.02.82-.2,1.1-.51.58-.63.56-1.59-.04-2.2l-2.26-2.18c-.62-.58-1.58-.58-2.2,0l-2.25,2.18c-.3.29-.48.69-.48,1.11,0,.42.15.82.45,1.13.3.31.71.48,1.14.48Z" fill="#1e237f" stroke-width="0"/><path d="M52.35,90.18h-5.57c-.87,0-1.59.71-1.59,1.59s.71,1.59,1.59,1.59h5.57c.87,0,1.59-.71,1.59-1.59s-.71-1.59-1.59-1.59Z" fill="#1e237f" stroke-width="0"/></svg>