<svg xmlns="http://www.w3.org/2000/svg" width="144" height="144" viewBox="0 0 144 144"><path d="M65.29,106.45c-.5,0-.91-.41-.91-.91V38.48c0-.51.41-.91.91-.91s.91.41.91.91v67.06c0,.51-.41.91-.91.91Z" fill="#1e237f" stroke-width="0"/><path d="M104.85,34.5H39.15c-1.68,0-3.05,1.36-3.05,3.05v68.9c0,1.68,1.36,3.05,3.05,3.05h65.7c1.68,0,3.05-1.37,3.05-3.05V37.55c0-1.68-1.36-3.05-3.05-3.05h0ZM64.38,104.61h-22.35c-.67,0-1.22-.55-1.22-1.22v-16.66h23.56v17.88ZM64.38,84.9h-23.57v-24.59h23.56v24.59ZM64.38,58.48h-23.57v-17.88c0-.67.55-1.22,1.22-1.22h22.34v19.1ZM101.97,104.61h-35.76v-53.65h36.97v52.43c0,.67-.55,1.22-1.22,1.22h0ZM103.18,49.14h-36.98v-9.75h35.75c.67,0,1.22.55,1.22,1.22v8.53Z" fill="#1e237f" stroke-width="0"/><path d="M62.35,53.38c0-1.61-1.31-2.92-2.92-2.92h-13.66c-1.61,0-2.92,1.3-2.92,2.91,0,.75.29,1.48.81,2.02-1.11,1.16-1.07,3.01.09,4.12.54.52,1.27.81,2.02.81h13.66c1.61,0,2.92-1.3,2.92-2.9,0-.75-.29-1.48-.81-2.02.52-.54.81-1.26.81-2.01ZM45.76,52.29h13.66c.6-.01,1.1.46,1.12,1.07.01.6-.46,1.1-1.07,1.12h-13.72c-.6-.01-1.08-.52-1.07-1.12.01-.58.48-1.05,1.07-1.07Z" fill="#1e237f" stroke-width="0"/><path d="M61.72,77.79c1.11-1.16,1.07-3.01-.09-4.12-.54-.52-1.27-.81-2.02-.81h-13.66c-1.61,0-2.92,1.29-2.92,2.9,0,.75.29,1.48.81,2.02-1.08,1.12-1.08,2.89,0,4.01-1.11,1.16-1.07,3.01.09,4.12.54.52,1.27.81,2.02.81h13.66c1.61,0,2.92-1.3,2.92-2.91,0-.75-.29-1.48-.81-2.02,1.08-1.12,1.08-2.89,0-4.01ZM44.85,79.8c0-.6.49-1.09,1.09-1.09h13.66c.6.01,1.08.52,1.07,1.12-.01.58-.48,1.05-1.07,1.07h-13.66c-.6,0-1.09-.49-1.09-1.09Z" fill="#1e237f" stroke-width="0"/><path d="M101.82,68.49c-.49-1.89-1.79-6.46-3.35-8.18-.92-1.07-2.05-1.93-3.31-2.54-.58-.27-1.26-.26-1.83.02-.81-.65-1.71-1.39-2.34-1.97.27-.39.52-.8.73-1.22,1.25-2.53,1.03-4.71-.58-5.67-.83-.5-1.85-.57-2.74-.21-.82.33-1.44,1.04-1.66,1.9-.12.49.17.99.66,1.11.49.12.99-.17,1.11-.66.08-.3.3-.55.59-.66.36-.15.77-.11,1.11.09.85.51.47,2.09-.13,3.28-.29.56-.63,1.09-1.02,1.59-.69.87-1.45,1.69-2.27,2.43-.54-.17-1.13-.12-1.63.14-.14.07-.3.16-.49.25-.3.15-.66.34-1.03.54-.42-.73-1.19-1.18-2.03-1.17h-.95c-1.2-.81-2.15-1.49-2.75-1.97.32-.38.6-.8.83-1.24,1.29-2.55,1.1-4.57-.51-5.56-.91-.51-2.01-.53-2.94-.05-.92.45-1.55,1.34-1.65,2.36-.05.5.32.95.82,1,.5.05.95-.32,1-.82.05-.39.3-.74.66-.9.36-.2.8-.21,1.17-.02.98.6.2,2.41-.18,3.17-.31.56-.7,1.07-1.15,1.52-.9.92-1.87,1.76-2.91,2.52h-.82c-.99,0-1.88.62-2.21,1.56-1.53,4.45-2.17,9.16-1.91,13.86.15,2.13.34,7.46.43,20.72v.17c0,.73.52,1.36,1.24,1.5.68.11,1.36.17,2.05.16.93,0,1.85-.07,2.77-.2.7-.11,1.23-.68,1.28-1.39l.79-9.66.71,9.7c.04.68.53,1.24,1.19,1.39,1.61.22,3.24.2,4.85-.05.75-.09,1.32-.71,1.35-1.46v-.35c.06-1.66.19-5.49.34-9.46,1.3.1,2.8.16,4.44.16,2.59,0,5.5-.13,8.44-.39.5-.04.88-.49.83-.99,0,0,0,0,0,0l-1.02-11.11c-.03-.28.16-.53.43-.59.97-.17,1.91-.48,2.79-.91.64-.31.98-1.03.8-1.72h0ZM89.87,57.27c.57.51,1.26,1.09,1.82,1.55-1.05.51-2.28.52-3.35.04.46-.44.99-.98,1.52-1.59ZM76.66,56.94c.23.19.5.4.81.63h-1.51c.24-.21.48-.42.7-.63ZM83.8,73.41c-.14,1.76-.3,4.82-.49,9.6-.17,4.32-.3,8.64-.36,10.44v.08c-1.24.18-2.51.21-3.76.1l-1.51-20.59s0-.08,0-.12l-.19-2.97c0-.14-.05-.27-.11-.39l-1.37-2.42c-.25-.44-.82-.6-1.26-.36-.44.24-.61.79-.37,1.23,0,0,0,.01,0,.02l1.26,2.24.15,2.25-1.72,21.03c-1.23.17-2.48.19-3.71.06-.09-13.25-.29-18.6-.43-20.75-.25-4.45.37-8.91,1.81-13.12.07-.21.27-.34.49-.34h9.38c.22,0,.42.14.49.35l.18.6c1.24,4.24,1.76,8.65,1.51,13.06h0Z" fill="#1e237f" stroke-width="0"/><path d="M52.01,104.11c-.21-1.46-.27-2.94-.17-4.41,0-.29,0-.58-.04-.87-.21-1.9-1.34-3.29-2.82-3.45-1.06-.14-2.11.34-2.7,1.24-.52.75-.81,1.64-.83,2.55-.02.24-.03.5-.03.76,0,.62-.06,1.24-.16,1.85-.28,1.17-.51,2.09-.7,2.73-.23.81.24,1.65,1.05,1.88.13.04.27.06.41.06h4.57c.84,0,1.53-.69,1.52-1.53,0-.06,0-.12-.01-.19-.03-.22-.06-.42-.09-.62h0ZM49.5,104.61c0-.73.07-1.47.22-2.19.11-.49-.2-.98-.7-1.09-.49-.11-.98.21-1.09.7-.17.85-.26,1.71-.26,2.58h-1.26c.17-.63.37-1.44.62-2.45.13-.72.2-1.44.2-2.17,0-.24.02-.47.03-.69,0-.57.17-1.13.48-1.6.21-.37.63-.57,1.04-.5.48.05,1.06.64,1.19,1.84.03.2.04.41.03.61-.1,1.58-.04,3.16.19,4.73.01.08.02.15.04.23h-.73Z" fill="#1e237f" stroke-width="0"/><path d="M60.67,104.5c-.18-.64-.42-1.56-.69-2.69-.11-.62-.17-1.25-.17-1.89,0-.26-.02-.51-.03-.76-.02-.91-.31-1.8-.83-2.55-.59-.9-1.65-1.38-2.71-1.24-1.47.16-2.6,1.54-2.81,3.43-.04.29-.05.59-.04.89.1,1.47.04,2.95-.17,4.4-.03.2-.06.4-.09.62-.1.84.49,1.6,1.33,1.7.06,0,.12.01.19.01h4.57c.84,0,1.52-.68,1.52-1.52,0-.14-.02-.28-.06-.41h0ZM57.55,104.61c0-.87-.09-1.73-.26-2.58-.11-.49-.6-.81-1.09-.7-.49.11-.81.59-.7,1.09.14.72.22,1.45.22,2.19h-.74c.01-.08.02-.15.04-.23.23-1.56.29-3.15.19-4.73,0-.21,0-.42.03-.63.13-1.18.71-1.77,1.18-1.82.42-.08.84.12,1.05.5.31.47.48,1.03.48,1.59.02.23.02.46.03.7,0,.74.08,1.48.21,2.21.23.98.44,1.78.61,2.41h-1.26Z" fill="#1e237f" stroke-width="0"/><path d="M72,0c39.76,0,72,32.24,72,72s-32.24,72-72,72S0,111.76,0,72,32.24,0,72,0Z" fill="none" fill-rule="evenodd" stroke-width="0"/></svg>