
<svg id="graphics" xmlns="http://www.w3.org/2000/svg" viewBox="0 0 283.46 74.82"><defs><style>.cls-1{fill:#1e2380;}</style></defs><title>logo</title><path class="cls-1" d="M417,762.17a.24.24,0,0,0-.24-.24H403.58a.24.24,0,0,0-.24.24v6a.25.25,0,0,0,.24.25H416.8a.25.25,0,0,0,.24-.25Z" transform="translate(-153.42 -722.94)"/><path class="cls-1" d="M193.37,790.28c-8.63-4.17-11.18-13.06-15.22-20.84-1.47-2.89-1.61-4.44-4.44-6.26-1.54-1-2.78-1.35-5.48-1.35h-6.75a.21.21,0,0,0-.23.18,96,96,0,0,1-2.95,11.21,25,25,0,0,1-4.8,8.7.31.31,0,0,0-.08.2l.07,8.13a.24.24,0,0,0,.35.22c2.58-1.16,5.25-4.05,6.5-5.63,4.7-5.85,6.55-16,6.55-16.08s0-.3.13-.3c1.41,0,2.95-.06,4.13,2.9,4.39,11,8.27,16.68,12.64,20.72,4.78,4.43,8.16,5.44,9.14,5.67a.25.25,0,0,0,.29-.24c0-.54.11-1.81.2-3.92s.09-2.79.1-3.09a.24.24,0,0,0-.15-.22" transform="translate(-153.42 -722.94)"/><path class="cls-1" d="M267.7,790c-9.19-5.36-10.78-11.85-15.3-20.61-1.49-2.87-1.35-4.52-4.2-6.35-1.52-1-2.76-1.35-5.47-1.35h-6.88a.3.3,0,0,0-.26.21,107.64,107.64,0,0,1-3,11.87,22.45,22.45,0,0,1-4.55,8.16.39.39,0,0,0-.07.19l.14,7.71a.25.25,0,0,0,.35.23c2.62-1,4.82-3.65,6.13-5.18,4.9-5.72,6.46-16.14,6.46-16.25s0-.3.13-.3c1.41,0,3-.44,4.44,3.05,4.4,10.79,8.28,16.81,11.8,19.87a32.87,32.87,0,0,0,9.88,5.58.25.25,0,0,0,.34-.21c0-.42.07-1.31.13-3,.06-2.05,0-3,0-3.37,0-.16-.05-.2-.12-.24" transform="translate(-153.42 -722.94)"/><path class="cls-1" d="M222.44,780.47a.13.13,0,0,0,.12-.12V774a.12.12,0,0,0-.12-.11h-31a.12.12,0,0,0-.13.11v6.36a.13.13,0,0,0,.13.12Z" transform="translate(-153.42 -722.94)"/><path class="cls-1" d="M268.48,771.87a.25.25,0,0,0,.25-.25v-9.46a.25.25,0,0,0-.25-.24H264a.23.23,0,0,0-.23.24v9.46a.24.24,0,0,0,.23.25Z" transform="translate(-153.42 -722.94)"/><path class="cls-1" d="M261.13,771.87a.25.25,0,0,0,.24-.25v-9.46a.24.24,0,0,0-.24-.24h-4.47a.23.23,0,0,0-.23.24v9.46a.24.24,0,0,0,.23.25Z" transform="translate(-153.42 -722.94)"/><path class="cls-1" d="M400,768.14a.25.25,0,0,0,.25-.24v-5.74a.25.25,0,0,0-.25-.24h-4.47a.24.24,0,0,0-.24.24v5.74a.24.24,0,0,0,.24.24Z" transform="translate(-153.42 -722.94)"/><path class="cls-1" d="M392.68,768.14a.24.24,0,0,0,.24-.24v-5.74a.24.24,0,0,0-.24-.24h-4.46a.24.24,0,0,0-.25.24v5.74a.24.24,0,0,0,.25.24Z" transform="translate(-153.42 -722.94)"/><path class="cls-1" d="M314.83,779.3a47.47,47.47,0,0,0,1.08-6.88.22.22,0,0,0-.23-.24h-6.53a.24.24,0,0,0-.24.24,19.61,19.61,0,0,1-.3,3.22,20,20,0,0,1-3.28,8.1c-2.77,3.55-5.43,4.11-5.43,4.11V761.76a.25.25,0,0,0-.24-.25H293a.24.24,0,0,0-.23.25v34.52a.23.23,0,0,0,.23.24,22.37,22.37,0,0,0,21.88-17.22" transform="translate(-153.42 -722.94)"/><path class="cls-1" d="M360.56,762.91a48.59,48.59,0,0,1,5,12.21c0,.17.14.24.34.24h7c.21,0,.3-.15.22-.46a36.43,36.43,0,0,0-5.12-12.18.54.54,0,0,0-.57-.31h-6.5c-.41,0-.48.21-.31.5" transform="translate(-153.42 -722.94)"/><path class="cls-1" d="M388.06,769.63a.29.29,0,0,0-.3.23c-.81,5.65-3.16,11-7.17,14.23a26.27,26.27,0,0,1-16.75,5.42h-.7a.25.25,0,0,0-.24.25v6.13a.24.24,0,0,0,.24.24h1.36c8.52,0,14.79-2.07,20.72-6.65,7.38-5.69,9.29-15,9.76-19.59a.23.23,0,0,0-.25-.26Z" transform="translate(-153.42 -722.94)"/><path class="cls-1" d="M436.86,767.38c0-.86,0-1.91,0-1.91a.24.24,0,0,0-.24-.24h-6.52a.25.25,0,0,0-.25.24s0,.46,0,.82c-.18,8.14-1.76,13.08-6.87,17.35-5.61,4.67-13.71,5.19-19.13,5.19h-1.25a.25.25,0,0,0-.24.25v6.28a.24.24,0,0,0,.24.24h2.21c6.34,0,16-.54,23-6.7,6.3-5.54,8.79-10.89,9.05-21.52" transform="translate(-153.42 -722.94)"/><path class="cls-1" d="M354.93,788.64a20.7,20.7,0,0,1-9.39-7c3.61-5.26,5.73-11.8,6.37-19.84a.27.27,0,0,0-.27-.25h-6.48a.27.27,0,0,0-.26.25,34.3,34.3,0,0,1-4,14.19c-.2-.24-.4-.46-.62-.69-4.46-4.9-10.08-9.22-17-9.83a.26.26,0,0,0-.26.25l-.09,6a.22.22,0,0,0,.2.24c5,1,8.92,4.22,12.32,8a15.78,15.78,0,0,1,1.22,1.49,32.54,32.54,0,0,1-18.56,8.75.27.27,0,0,0-.22.24l.1,6a.28.28,0,0,0,.26.24,39.35,39.35,0,0,0,22.83-9.91c2.92,3.62,7.15,7.48,13.28,8.77a.23.23,0,0,0,.27-.22l.48-6.35a.26.26,0,0,0-.17-.28" transform="translate(-153.42 -722.94)"/><path class="cls-1" d="M275.92,789.93a.32.32,0,0,0-.12.28v7.13c0,.14.09.22.22.17a28.6,28.6,0,0,0,2.85-1.25,11.24,11.24,0,0,0,2.67-2.1,18.77,18.77,0,0,0,5-8.4c.69-2.36,1.34-8.45,1.51-13.43.18-5.35.2-10.57.2-10.57a.24.24,0,0,0-.23-.25h-6.77a.25.25,0,0,0-.24.25S281,769,280.89,772s-.9,11.27-1.72,13.39a11.87,11.87,0,0,1-3.25,4.51" transform="translate(-153.42 -722.94)"/><path class="cls-1" d="M338.59,738.05a11.2,11.2,0,0,1-5.39,4.07l-1.71-2.38a7.78,7.78,0,0,0,4.16-2.48,7.23,7.23,0,0,0,1.67-4.6,5.43,5.43,0,0,0-1.67-4,5.89,5.89,0,0,0-3.93-1.55,32.55,32.55,0,0,1-2.86,10.28c-.69,1.44-1.76,3.38-3,3.38-.83,0-4.62-2.08-4.62-6.22a10,10,0,0,1,10.19-9.8c4.81,0,8.6,3.26,8.6,8.42A8.67,8.67,0,0,1,338.59,738.05Zm-12.43-8.9a7.54,7.54,0,0,0-2.32,5.13c0,1.87,1.07,2.84,1.48,2.84,1.21,0,3.19-6,3.65-9.63A6.68,6.68,0,0,0,326.16,729.15Z" transform="translate(-153.42 -722.94)"/><path class="cls-1" d="M358,728.46v.76h4.73v1.71H351v-1.71h4.23v-.76h-5.43v-1.71h5.43V726c-1.5.07-2.29.07-3.9.09l-.79-1.4c-.05,0-.32.13-.37.18s-1.06,1.2-1.27,1.41c.3.09.58.21.58.39a.36.36,0,0,1-.14.23c-.21.19-.23.21-.23.3V731h-2.31v-2.63a10.34,10.34,0,0,1-1.13,1l-1.69-1.51a15.15,15.15,0,0,0,4-4.48l2.4.74c.9.07,1.48.09,2.47.09a29.65,29.65,0,0,0,8.09-.92l1.29,1.62a.53.53,0,0,1,.17.32.24.24,0,0,1-.26.23c-.09,0-.58-.12-.69-.12s-.63.14-.74.14c-1.09.21-2.17.3-2.7.35v1h5.52v1.71Zm3.46,14.6a17.16,17.16,0,0,1-6.19-2.52l.85-.85h-3.9l.6.9a.8.8,0,0,1,.14.39c0,.19-.07.33-.23.33s-.28-.1-.56-.26a18.28,18.28,0,0,1-5.36,2l-1.8-2.15a10.34,10.34,0,0,0,4.6-1.25h-2.45v-8.16H361v8.16h-2.34a11.41,11.41,0,0,0,4.39,1.25Zm-3.09-9.84h-8.58V734h8.58Zm0,1.92h-8.58v.74h8.58Zm0,1.91h-8.58v.81h8.58Z" transform="translate(-153.42 -722.94)"/><path class="cls-1" d="M381.78,727.37c1.69,1.94,3,2.1,3.15,2.1.6,0,.78-1,.9-1.57l1.94,1.25c-.33,1.76-.79,2.91-2,2.91a4.53,4.53,0,0,1-1.18-.25v7.6H382.2a11.19,11.19,0,0,0,4.71,1.9l-1.68,2.19a18,18,0,0,1-6.24-3.07l.92-1h-4.32l.9.72a.65.65,0,0,1,.32.51c0,.2-.25.23-.37.23a3,3,0,0,1-.46,0,17.72,17.72,0,0,1-5.5,2.43l-1.62-2.13a10.85,10.85,0,0,0,4.74-1.73h-2.52v-9h10.61a13,13,0,0,1-2.8-2.68l-5.1.65-.37-1.83a1.51,1.51,0,0,0-.23.21.23.23,0,0,0-.1.19v3h-2.45v-1.27a10.23,10.23,0,0,1-1,.83l-1.91-1.85a16.32,16.32,0,0,0,4.66-4.71l2.22,1.29c.05,0,.28.18.28.35a.23.23,0,0,1-.16.2,5.31,5.31,0,0,0-.6.12s-.74,1-.9,1.13a.69.69,0,0,1,.25.23l4.14-.53a7.43,7.43,0,0,1-.88-2.47l3,.14c.23,0,.55,0,.55.28,0,.06,0,.11-.18.25s-.21.16-.21.25a3.41,3.41,0,0,0,.53,1.21l2.08-.28a9.71,9.71,0,0,0-1.73-.49l1.61-1.5a12.52,12.52,0,0,1,2.57.86l-.88.92,3.63-.44.37,2.15Zm.12,5h-8.16v.85h8.16Zm0,2.1h-8.16v.86h8.16Zm0,2.1h-8.16v1h8.16Z" transform="translate(-153.42 -722.94)"/><path class="cls-1" d="M399.06,724.62c-.37.12-.41.12-.48.26a29.6,29.6,0,0,1-1.69,3.51c.53.21.79.3.79.53s-.07.19-.28.3-.28.14-.28.23v13.73h-2.56v-11a13,13,0,0,1-.86,1.09l-2.31-1.55a20.94,20.94,0,0,0,4.76-8.71l2.59.93c.46.16.55.27.55.43S399.2,724.6,399.06,724.62Zm-.51,17.73v-2.5h5.55v-4.6h-4.3V732.8h4.3v-3.67h-5.29v-2.5h5.52a10.05,10.05,0,0,0-2.36-2.1l2.11-1.59a14.7,14.7,0,0,1,3.32,2.93l-1.06.76h6.1v2.5H406.8v3.67h4.44v2.45H406.8v4.6h5.71v2.5Z" transform="translate(-153.42 -722.94)"/><path class="cls-1" d="M433,743h-5.82c-1.53,0-2.64-.83-2.64-2.19v-4.1l-7.09.7-.28-2.52,7.37-.67v-1.87a37.22,37.22,0,0,1-3.69.51l-1.3-2.32h-2.4v-5.2h8.13v-2.19l3.05.12c.23,0,.65,0,.65.27s-.25.33-.56.58v1.22h8.16v4.9h-2.63v-2.54h-2.87l1.6,1.83a.62.62,0,0,1,.18.39c0,.32-.51.26-.83.23s-.44.14-.67.23c-1.27.51-3.19,1.07-4,1.32v2.24l8.94-.83.28,2.45-9.22.92v2.94c0,.74.49,1,1.16,1h4.25c1.46,0,1.48-1.77,1.48-2.58l2.66,1.06C436.35,741.77,435.92,743,433,743Zm-13.22-15.3v2.5a17.28,17.28,0,0,0,3.56-.16,18,18,0,0,0,7-2.34Z" transform="translate(-153.42 -722.94)"/><polygon class="cls-1" points="9.5 7.87 3.83 7.87 3.83 0.23 0 0.23 0 19.43 3.83 19.43 3.83 11.48 9.5 11.48 9.5 19.43 13.33 19.43 13.33 0.23 9.5 0.23 9.5 7.87"/><polygon class="cls-1" points="18.88 0.23 18.88 19.43 30.93 19.43 30.93 15.82 22.71 15.82 22.71 11.48 30.23 11.48 30.23 7.87 22.71 7.87 22.71 3.84 30.93 3.84 30.93 0.23 18.88 0.23"/><polygon class="cls-1" points="53.89 0.23 53.89 19.43 65.94 19.43 65.94 15.82 57.72 15.82 57.72 11.48 65.25 11.48 65.25 7.87 57.72 7.87 57.72 3.84 65.94 3.84 65.94 0.23 53.89 0.23"/><polygon class="cls-1" points="101.38 7.87 95.7 7.87 95.7 0.23 91.87 0.23 91.87 19.43 95.7 19.43 95.7 11.48 101.38 11.48 101.38 19.43 105.2 19.43 105.2 0.23 101.38 0.23 101.38 7.87"/><polygon class="cls-1" points="74.54 0.23 70.72 0.23 70.72 19.43 82.58 19.43 82.58 15.82 74.54 15.82 74.54 0.23"/><path class="cls-1" d="M290.77,736a2.91,2.91,0,1,1-5.81,0V723.16h-3.82V736.1c0,3.54,2.54,6.42,6.73,6.42s6.73-2.88,6.73-6.42V723.16h-3.83Z" transform="translate(-153.42 -722.94)"/><path class="cls-1" d="M268.65,723.16l-6.14,19.21h3.9l1-3.18h6.45l.93,3.18h3.89l-6.25-19.21Zm-.19,12.41,2.2-7.28,2.11,7.28Z" transform="translate(-153.42 -722.94)"/><path class="cls-1" d="M200.28,732.51a4.88,4.88,0,0,0,1.84-4.08c0-3.58-2.6-5.27-5.8-5.27h-7.19v19.21h7.28c3.3,0,6-1.67,6-5.33A5.32,5.32,0,0,0,200.28,732.51Zm-4.19-5.73a2,2,0,1,1,0,4h-3.3v-4Zm.15,12h-3.45v-4.33h3.46a2.17,2.17,0,1,1,0,4.33Z" transform="translate(-153.42 -722.94)"/><path class="cls-1" d="M304.9,742.49a12.27,12.27,0,0,1-6.57-2l1.85-3.36a9.41,9.41,0,0,0,4.77,1.76c1.84,0,2.88-.86,2.88-2.1s-.67-1.86-2.88-2.43c-4.44-1.16-6-2.81-6-5.52,0-3.41,2.41-5.8,6.37-5.8a10,10,0,0,1,5.6,1.58l-1.69,3.4a6.86,6.86,0,0,0-3.8-1.47c-1.9,0-2.69.92-2.69,2s.68,1.61,3,2.24c3.69,1,5.91,2.6,5.91,5.86C311.68,740.39,308.72,742.49,304.9,742.49Z" transform="translate(-153.42 -722.94)"/></svg>