<svg xmlns="http://www.w3.org/2000/svg" width="15" height="15" viewBox="0 0 15 15"><path d="M7.594,15.5a7.5,7.5,0,1,1,7.5-7.5A7.5,7.5,0,0,1,7.594,15.5Zm-.965-2.455H8.223V11.539H6.629ZM7.739,4.14a3.558,3.558,0,0,0-2.429.769,2.719,2.719,0,0,0-.869,1.649l1.627.2A1.472,1.472,0,0,1,7.641,5.3c.945,0,1.528.418,1.528,1.089,0,.494-.264.846-.968,1.319a3.336,3.336,0,0,0-1.033.824,2.152,2.152,0,0,0-.451,1.419l.011.209a3.77,3.77,0,0,1-.033.461H8.168a5.232,5.232,0,0,1-.033-.56c0-.583.165-.847.858-1.309a4.7,4.7,0,0,0,1.352-1.121,2.088,2.088,0,0,0,.385-1.3C10.73,5.041,9.51,4.14,7.739,4.14Z" transform="translate(-0.094 -0.5)" fill="#6165a5" fill-rule="evenodd"/></svg>